<svg id="레이어_1" data-name="레이어 1" xmlns="http://www.w3.org/2000/svg" viewBox="0 0 100 36.29"><path d="M10.12,34.59a8.31,8.31,0,0,1-4.43-1.23,9.54,9.54,0,0,1-3.21-3.29,8.68,8.68,0,0,1-1.22-4.52l.05-14.27A8.65,8.65,0,0,1,2.5,6.78,9.14,9.14,0,0,1,5.71,3.54a8.41,8.41,0,0,1,4.41-1.21,8.24,8.24,0,0,1,4.41,1.21,9.31,9.31,0,0,1,3.18,3.24,8.75,8.75,0,0,1,1.19,4.5l0,14.27a8.75,8.75,0,0,1-1.19,4.52,9.31,9.31,0,0,1-3.19,3.29A8.32,8.32,0,0,1,10.12,34.59Zm0-5.44a3.15,3.15,0,0,0,2.37-1.1,3.63,3.63,0,0,0,1-2.5l-.05-14.27a3.6,3.6,0,0,0-.94-2.52,3.1,3.1,0,0,0-2.39-1,3.22,3.22,0,0,0-2.38,1,3.49,3.49,0,0,0-1,2.54V25.55a3.57,3.57,0,0,0,1,2.54A3.13,3.13,0,0,0,10.12,29.15Z"/><path d="M22.54,34.14c-.12,0-.18-.07-.18-.22L22.41,3c0-.12.07-.18.22-.18h5c.15,0,.22.06.22.18l0,12.24h6.75V3a.16.16,0,0,1,.18-.18h5c.15,0,.23.06.23.18l.09,30.92c0,.15-.08.22-.23.22h-5a.19.19,0,0,1-.22-.22V20.69H27.81V33.92c0,.15-.06.22-.18.22Z"/><path d="M58.68,34.59a8.41,8.41,0,0,1-4.48-1.23A9.15,9.15,0,0,1,51,30.05a9.27,9.27,0,0,1-1.17-4.64l0-14a9.15,9.15,0,0,1,1.15-4.52A9,9,0,0,1,54.2,3.57a8.75,8.75,0,0,1,8.93,0,9.11,9.11,0,0,1,4.33,7.83v2.07a.17.17,0,0,1-.19.18h-5a.16.16,0,0,1-.18-.18V11.37a3.72,3.72,0,0,0-1-2.56,3.11,3.11,0,0,0-2.41-1.08,2.93,2.93,0,0,0-2.47,1.1,4,4,0,0,0-.86,2.54v14a3.77,3.77,0,0,0,1,2.7,3.1,3.1,0,0,0,2.36,1A3,3,0,0,0,61.09,28a3.92,3.92,0,0,0,1-2.59V23.34a.16.16,0,0,1,.18-.18h5.09a.16.16,0,0,1,.18.18v2.07a9.18,9.18,0,0,1-1.19,4.64,9.43,9.43,0,0,1-3.18,3.31A8.25,8.25,0,0,1,58.68,34.59Z"/><path d="M79.11,34.59a8.28,8.28,0,0,1-4.43-1.23,9.48,9.48,0,0,1-3.22-3.29,8.68,8.68,0,0,1-1.22-4.52l.05-14.27a8.75,8.75,0,0,1,1.19-4.5A9.17,9.17,0,0,1,74.7,3.54a8.41,8.41,0,0,1,4.41-1.21,8.26,8.26,0,0,1,4.41,1.21,9.28,9.28,0,0,1,3.17,3.24,8.75,8.75,0,0,1,1.19,4.5l.05,14.27a8.85,8.85,0,0,1-1.19,4.52,9.34,9.34,0,0,1-3.2,3.29A8.28,8.28,0,0,1,79.11,34.59Zm0-5.44a3.13,3.13,0,0,0,2.36-1.1,3.63,3.63,0,0,0,1-2.5l0-14.27a3.61,3.61,0,0,0-1-2.52,3.08,3.08,0,0,0-2.38-1,3.24,3.24,0,0,0-2.39,1,3.49,3.49,0,0,0-1,2.54V25.55a3.57,3.57,0,0,0,1,2.54A3.15,3.15,0,0,0,79.11,29.15Z"/><path d="M92.52,25.86c-.12,0-.2-.07-.23-.22l-.94-10.35V3.05c0-.15.06-.23.18-.23h5c.15,0,.22.08.22.23l0,12.24-1,10.35c0,.15-.1.22-.22.22Zm-1,8.28c-.12,0-.18-.07-.18-.22V29a.16.16,0,0,1,.18-.18h5a.16.16,0,0,1,.18.18v4.91c0,.15-.06.22-.18.22Z"/></svg>