<svg id="레이어_1" data-name="레이어 1" xmlns="http://www.w3.org/2000/svg" viewBox="0 0 480 480"><defs><style>.cls-1{fill:#fff;}.cls-2{fill:#f2f2f2;}.cls-3,.cls-4{fill:none;stroke:#000;stroke-miterlimit:10;}.cls-4{stroke-width:5px;}.cls-5{fill:#e0e0e0;}.cls-6{fill:#ededed;}.cls-7{fill:#3f3f3f;}</style></defs><path class="cls-1" d="M374,101.65s23.06,6.8,24.2-17.38c0,0,19.06-11.46,37,4.59,0,0-10.47,14.9-12.26,15.08a39.68,39.68,0,0,1-6.64-.71s21.8,25.15,25.32,25.48c0,0-27.39,24.89-51.23,26.53l-9-29.48L379,138.39l-16.89,2.92S356,108.9,374,101.65Z"/><path class="cls-1" d="M171.55,192.58c5.75-.19,0-28.38,0-28.38s-7-8.82,1.28,18.51C168,192.2,171.55,192.58,171.55,192.58Z"/><path class="cls-1" d="M321.88,284.63s29.15.95,31.46,47c0,0-203.38,23.66-256.57-13-33.75-23.28,29.91-36.05,29.91-36.05,17.38,2.93,30.37,2.62,40,.34,73.8,78.95,103.58-5.26,103.58-5.26C280.52,281.69,296.67,284.58,321.88,284.63Z"/><path class="cls-1" d="M197.23,88.45c-.14-.08-1.28-.76-3.17-1.76-12.75-10.34-17.5-55.42,11.58-51.15,19.67,2.88,25.32,18.69,26.79,30.11a47,47,0,0,0,.26,12.07,55.26,55.26,0,0,0-.26-12.07c1.26-11.3,7.72-25.39,33.66-17.84C306.29,59.51,277,88.67,276,89.6c.62-.44,16.14-11.2,27.55,1.21,11.65,12.66,13,21.8,5.15,38a28.56,28.56,0,0,1-1.79,3c-12.73,19.72-13,26.18-12.87,27.39a24.78,24.78,0,0,0-1.51-5.14c-7.85-18.6-15.73,13.42-15.73,13.42s0-13.23-3.64-21.09-7.67-2.69-23.77,1.86-27.62-9.91-43.77-11.45-27.08,35.29-27.08,35.29-1.83-24.93-13-14.58c0,0-20.82-5.75-23.5-18.41s20.71-11.89,20.71-11.89-40.65-11.89-25.31-38.73c12.86-22.5,46.19-7.28,56.64-1.77A9.36,9.36,0,0,0,197.23,88.45Z"/><path class="cls-1" d="M179.92,208.67c-8.9,9.57-29.08-34.31-16.23-49.26a24.75,24.75,0,0,1,1.83-1.92c11.21-10.35,13,14.58,13,14.58s10.93-36.82,27.08-35.29,27.66,16,43.77,11.45,20.12-9.72,23.77-1.86,3.64,21.09,3.64,21.09,7.88-32,15.73-13.42a24.78,24.78,0,0,1,1.51,5.14v0a1.76,1.76,0,0,0,0,.21c3.56,19.66-10.28,50.92-18.1,45-4,23.94-12,37.47-19.67,45.13-6.68,6.68-13.12,8.88-16.46,9.6a16.3,16.3,0,0,1-3.48.34c-20.82-.27-34.21-8-42.79-18.31h0C185.46,231.38,181.64,219.18,179.92,208.67Zm26-41.25s-2.12,15.86,6.12,14.33,7.84-10.21,7.61-11.68C217.28,168.92,211.82,166.67,205.89,167.42Zm49.37-2.76s-6.34,12.58,1.33,16.8,9.5-14.19,9.5-14.19A32.76,32.76,0,0,0,255.26,164.66Zm27.65,17.43c6.4-29.11,2.43-22.68,2.43-22.68s-10,27-1.23,30.87C284.11,190.28,282.43,184.3,282.91,182.09Z"/><path class="cls-1" d="M294.06,159.2a1.3,1.3,0,0,1,0,.21A1.76,1.76,0,0,1,294.06,159.2Z"/><path class="cls-1" d="M285.34,159.41s4-6.43-2.43,22.68c-.48,2.21,1.2,8.19,1.2,8.19C275.29,186.44,285.34,159.41,285.34,159.41Z"/><path class="cls-1" d="M253.91,261.31c.84,5.39,4.77,11.62,16.4,16.28,0,0-29.78,84.21-103.58,5.26,23.05-5.43,27.34-22,27.62-32.53.62.52,34.77,29.65,59.37,11Z"/><path class="cls-1" d="M266.09,167.27s-1.82,18.41-9.5,14.19-1.33-16.8-1.33-16.8A32.76,32.76,0,0,1,266.09,167.27Z"/><path class="cls-1" d="M253.91,261.31l-.19,0c-24.6,18.63-58.75-10.5-59.37-11a39,39,0,0,0-.75-9.13c8.58,10.34,22,18,42.79,18.31a16.3,16.3,0,0,0,3.48-.34c3.34-.72,9.78-2.92,16.46-9.6A18.48,18.48,0,0,0,253.91,261.31Z"/><path class="cls-1" d="M232.43,65.65a55.26,55.26,0,0,1,.26,12.07A47,47,0,0,1,232.43,65.65Z"/><path class="cls-1" d="M219.62,170.07c.23,1.47.64,10.15-7.61,11.68s-6.12-14.33-6.12-14.33C211.82,166.67,217.28,168.92,219.62,170.07Z"/><path class="cls-1" d="M194.06,86.69c1.89,1,3,1.68,3.17,1.76A9.36,9.36,0,0,1,194.06,86.69Z"/><path d="M171.5,192.41c5.76-.19,0-28.37,0-28.37s-7-8.83,1.28,18.5C168,192,171.5,192.41,171.5,192.41Z"/><path d="M276,89.43c.61-.44,16.13-11.19,27.55,1.21,11.65,12.66,13,21.81,5.14,38a28,28,0,0,1-1.79,3c-12.73,19.71-13,26.17-12.86,27.38a25.4,25.4,0,0,0-1.51-5.14c-7.86-18.6-15.73,13.43-15.73,13.43s0-13.24-3.64-21.1-7.68-2.68-23.78,1.86-27.62-9.91-43.77-11.44-27.07,35.28-27.07,35.28-1.84-24.93-13-14.57c0,0-20.82-5.76-23.51-18.42S162.68,127,162.68,127,122,115.14,137.38,88.29C150.23,65.79,183.56,81,194,86.52a9.19,9.19,0,0,0,3.17,1.76c-.14-.08-1.27-.76-3.17-1.76-12.74-10.33-17.51-55.41,11.58-51.15,19.67,2.88,25.32,18.7,26.79,30.12a46.68,46.68,0,0,0,.27,12.06,54.85,54.85,0,0,0-.27-12.06c1.26-11.31,7.73-25.4,33.66-17.85C306.24,59.34,276.9,88.51,276,89.43Z"/><path d="M285.29,159.24s4-6.42-2.43,22.68c-.48,2.22,1.21,8.2,1.21,8.2C275.24,186.28,285.29,159.24,285.29,159.24Z"/><path d="M266,167.1s-1.82,18.41-9.5,14.19-1.33-16.79-1.33-16.79A32.42,32.42,0,0,1,266,167.1Z"/><path class="cls-2" d="M253.86,261.14l-.18,0c-24.61,18.64-58.76-10.5-59.37-11a40.48,40.48,0,0,0-.75-9.13c8.58,10.35,22,18,42.78,18.31a15.77,15.77,0,0,0,3.49-.34c3.33-.72,9.77-2.92,16.45-9.6A18.41,18.41,0,0,0,253.86,261.14Z"/><path d="M219.58,169.91c.22,1.46.63,10.14-7.62,11.67s-6.13-14.33-6.13-14.33C211.78,166.5,217.24,168.75,219.58,169.91Z"/><path class="cls-3" d="M193.56,241c8.58,10.35,22,18,42.78,18.31a15.77,15.77,0,0,0,3.49-.34c3.33-.72,9.77-2.92,16.45-9.6,7.67-7.65,15.66-21.18,19.67-45.13a184.83,184.83,0,0,0,2.17-19.32"/><path class="cls-3" d="M178.79,184.94a99.15,99.15,0,0,0,1.08,23.56c1.72,10.51,5.54,22.71,13.69,32.52"/><path class="cls-3" d="M294,159.11a.3.3,0,0,1,0,.13c3.56,19.67-10.28,50.93-18.1,45"/><path class="cls-3" d="M179.87,208.5c-8.89,9.57-29.08-34.3-16.23-49.26a21.34,21.34,0,0,1,1.84-1.91c11.2-10.36,13,14.57,13,14.57s10.92-36.82,27.07-35.28,27.66,16,43.77,11.44,20.13-9.72,23.78-1.86,3.64,21.1,3.64,21.1,7.87-32,15.73-13.43A25.4,25.4,0,0,1,294,159"/><path class="cls-4" d="M193.56,160.2s10.73,5,29.91-2.87"/><path class="cls-4" d="M244.75,157.33s14.19-6.91,25.5-1.35"/><path class="cls-3" d="M241.68,160.58s-8.82,16.11,7.87,38c0,0,5,7.59-6,7l-.4,0"/><path class="cls-3" d="M241.78,191.45s3.3,9.31,1.75,14.12c-.61,1.91-2,3.12-4.62,2.76-9.3-1.25-12,.39-13.42.67s-6.72.09-2.6-11.12a5.79,5.79,0,0,1,5.43-3.16"/><path class="cls-3" d="M220.78,170.55s-.43-.26-1.2-.64c-2.34-1.16-7.8-3.41-13.75-2.66-4.66.59-9.63,3-13.62,9.28"/><path class="cls-3" d="M205.83,167.25s-2.11,15.87,6.13,14.33,7.84-10.21,7.62-11.67"/><path class="cls-3" d="M255.21,164.5c-10.8-.52-15.44,6.44-15.44,6.44"/><path class="cls-3" d="M255.21,164.5s-6.33,12.58,1.33,16.79S266,167.1,266,167.1A32.42,32.42,0,0,0,255.21,164.5Z"/><path class="cls-3" d="M209.85,224.05s31.65-3.45,41.61,0c0,0,3.65-10-26.07-5.17"/><path class="cls-3" d="M222.13,229s7.86,10.55,24.73,0"/><path class="cls-3" d="M193.56,241h0a40.48,40.48,0,0,1,.75,9.13c-.28,10.53-4.58,27.1-27.63,32.52-9.67,2.29-22.66,2.6-40.05-.33,0,0-24.54-4.6-29.91,36.06"/><path class="cls-3" d="M256.28,249.39a18.41,18.41,0,0,0-2.42,11.75c.84,5.4,4.77,11.63,16.39,16.28,10.21,4.11,26.37,7,51.59,7.05,0,0,29.15.94,31.45,47"/><path class="cls-3" d="M270.25,277.42s-29.77,84.21-103.57,5.26"/><path class="cls-3" d="M276,89.44h0c.61-.44,16.13-11.19,27.55,1.21,11.65,12.66,13,21.81,5.14,38a28,28,0,0,1-1.79,3c-12.73,19.71-13,26.17-12.86,27.38a.31.31,0,0,0,0,.1,1.11,1.11,0,0,0,0,.13"/><path class="cls-3" d="M232.38,65.49c1.26-11.31,7.73-25.4,33.66-17.85,40.2,11.7,10.86,40.87,9.94,41.79"/><path class="cls-3" d="M232.38,65.49a54.85,54.85,0,0,1,.27,12.06A46.68,46.68,0,0,1,232.38,65.49Z"/><path class="cls-3" d="M197.2,88.29h0A9.19,9.19,0,0,1,194,86.52c-12.74-10.33-17.51-55.41,11.58-51.15,19.67,2.88,25.32,18.7,26.79,30.12"/><path class="cls-3" d="M165.48,157.33s-20.82-5.76-23.51-18.42S162.68,127,162.68,127,122,115.14,137.38,88.29C150.23,65.79,183.56,81,194,86.52c1.9,1,3,1.68,3.17,1.76"/><path class="cls-5" d="M378.23,100.55s21.7,6.39,22.77-16.37c0,0,17.94-10.78,34.86,4.33,0,0-9.86,14-11.54,14.19a37.36,37.36,0,0,1-6.25-.67s20.52,23.67,23.83,24c0,0-25.78,23.43-48.21,25l-8.52-27.74-2.24,11.88L367,137.87S361.22,107.37,378.23,100.55Z"/><path class="cls-3" d="M374.05,101.65s23.06,6.8,24.19-17.38c0,0,19.07-11.46,37.05,4.59,0,0-10.47,14.9-12.27,15.08a39.66,39.66,0,0,1-6.63-.71s21.79,25.15,25.31,25.48c0,0-27.39,24.89-51.23,26.53l-9-29.48L379,138.39l-16.89,2.92S356,108.9,374.05,101.65Z"/><path class="cls-1" d="M362.46,186.11l-43.89,69s20.07,12.76,21.73,10.27,29.11-43.62,31.11-46.68-6.94,56.07-5.2,56.71,24.06,3.34,24.06,3.34l9.79-80.51Z"/><polyline class="cls-1" points="362.46 186.11 363.37 183.51 400.96 195.4 400.06 198.24"/><path class="cls-1" d="M379.9,193a41.58,41.58,0,0,0-2.59,13.73"/><path class="cls-1" d="M396.79,206.68c-4.62-2.72-3.57-6.73-3.57-6.73l1.11.22a5.17,5.17,0,0,0,3.09,5.43Z"/><path class="cls-1" d="M358.39,194.15a6.24,6.24,0,0,0,6.6-3.35l-1-.57a6.48,6.48,0,0,1-5.16,3.11Z"/><path class="cls-6" d="M366.56,184.81l-43.89,69s20.07,12.76,21.73,10.26,29.11-43.61,31.1-46.67-6.94,56.06-5.19,56.7,24.06,3.35,24.06,3.35l9.78-80.51Z"/><polyline class="cls-6" points="366.56 184.81 367.46 182.21 405.06 194.1 404.15 196.94"/><path class="cls-6" d="M384,191.69a41.63,41.63,0,0,0-2.58,13.73"/><path class="cls-6" d="M400.88,205.38c-4.62-2.72-3.56-6.73-3.56-6.73l1.1.22a5.19,5.19,0,0,0,3.1,5.43Z"/><path class="cls-6" d="M362.49,192.85a6.23,6.23,0,0,0,6.59-3.35l-1-.57A6.48,6.48,0,0,1,363,192Z"/><path class="cls-3" d="M362.91,185.8,319,254.8s20.06,12.76,21.72,10.26,29.11-43.61,31.11-46.68-6.94,56.07-5.2,56.71,24.06,3.35,24.06,3.35l9.79-80.52Z"/><polyline class="cls-3" points="362.91 185.8 363.82 183.2 401.41 195.09 400.51 197.93"/><path class="cls-3" d="M380.35,192.67a41.44,41.44,0,0,0-2.58,13.74"/><path class="cls-3" d="M397.24,206.36c-4.62-2.71-3.57-6.72-3.57-6.72l1.11.22a5.19,5.19,0,0,0,3.09,5.43Z"/><path class="cls-3" d="M358.84,193.84a6.24,6.24,0,0,0,6.6-3.35l-1-.57a6.47,6.47,0,0,1-5.15,3.11Z"/><path d="M335.58,96l7.93-2.42c-6.92-14.73,14-50.26-11.53-47s-11.34,24.68-11.34,24.68L327,68.46s-5.65-12.2,6.21-10.81c0,0,5.37.78,2,14.12a44.8,44.8,0,0,0,.62,24.16"/><circle cx="342.2" cy="102.53" r="4.76"/><path d="M97.27,388.28v-5.46H114.7v-7.13c-8.43-1-13.74-6-13.74-12.75,0-7.6,6.82-12.91,17.23-12.91s17.27,5.31,17.27,12.91c0,6.76-5.36,11.76-13.84,12.75v7.13h17.54v5.46Zm20.92-32.73c-6.25,0-10.25,3-10.25,7.44s4,7.55,10.25,7.55,10.25-3.07,10.25-7.55S124.43,355.55,118.19,355.55Z"/><path d="M142.28,371v-5.46h41.89V371Zm5.15,23V381.31h24.3V379h-24.3v-5.36h31.22v12.43H154.14v2.19h26.18V394Zm.57-31.06V348.42h7v9.11h24.14v5.36Z"/><path d="M212.11,392.6V377c-4.42.15-8.32.15-10.93.15-.31-1.82-.57-3.74-.83-5.62a279.13,279.13,0,0,0,30.13-1.45l.31,5.41c-3.69.52-7.75.88-11.76,1.14v16Zm15.71-25.45h-23.1V349.72h23.1Zm-6.86-12h-9.42v6.51H221Zm3.53,23.37h9.11V347.59h6.92V394H233.6v-10.3h-9.11Z"/><path d="M273.51,349.67c7.08,0,12.54,4.32,12.54,10.77s-5.46,10.88-12.54,10.88-12.38-4.43-12.38-10.88S266.54,349.67,273.51,349.67Zm-6.45,43.71V374.23H274v4.53H291.2v-4.53h6.92v19.15Zm6.45-27.68c3.44,0,5.93-2.19,5.93-5.21s-2.55-5.3-5.93-5.3-5.77,2.23-5.77,5.3S270.18,365.7,273.51,365.7Zm17.69,18.36H274V388H291.2Zm0-11.91V347.59h7v24.56Z"/><path d="M329.66,383.13c-3.7-2.19-9.11-7.65-10.62-12.23-1.35,5.05-6.5,11.08-10.77,13.37L304.21,379c7.81-4.57,11.14-11.39,11.19-21.38h-8.9v-5.72h24.93v5.72h-8.9c.1,9.83,3.8,16.29,11,20.14ZM336.21,394V347.59h7V394Z"/><path d="M354.06,373.4c0-3.59,1.67-5,5-7.7,2.08-1.62,3-2.81,3-5.36,0-3-1.93-4.17-5.78-4.17a17.7,17.7,0,0,0-6.66,1.2v-5.1a21.11,21.11,0,0,1,8.69-1.56c6.19,0,11,2.55,11,9,0,4.53-1.51,6.19-5.2,9-2.81,2.09-4,2.92-4,5.21v3.48h-6.09Zm-.36,8.69h7v6.6h-7Z"/><path class="cls-7" d="M77.49,414.76v3.46H84.4v1h-15v-1h6.85v-3.46c-3.13-.17-5.16-1.84-5.16-4.33,0-2.66,2.29-4.39,5.77-4.39s5.81,1.73,5.81,4.39C82.69,412.92,80.64,414.59,77.49,414.76Zm-.61-7.64c-2.75,0-4.58,1.35-4.58,3.31s1.83,3.28,4.58,3.28,4.62-1.33,4.62-3.28S79.67,407.12,76.88,407.12Z"/><path class="cls-7" d="M85.85,412.94v-1h15v1Zm2.09,8.32v-4h9.67v-1.75H87.8v-1h11v3.74H89.13v2H99.47v1Zm0-11v-5h1.19v3.95H99v1Z"/><path class="cls-7" d="M107.94,412.42v-6.65h1.21v5.57a43.54,43.54,0,0,0,7.77-.74l.19,1.06A53.65,53.65,0,0,1,107.94,412.42Zm1.61,8.95v-4.1h9.2v-1.88h-9.29v-1.05H120v3.88h-9.19v2.11h9.84v1ZM120,409.52v3.74h-1.21v-8.38H120v3.59h2.59v1Z"/><path class="cls-7" d="M128.47,415.39a5.74,5.74,0,0,1-1.75-2.44,9.23,9.23,0,0,1-2.58,4.32l-.85-.74a8.09,8.09,0,0,0,2.81-6v-3.81h1.16v3.78a4.88,4.88,0,0,0,1.9,4.06Zm5.47,1.86a8.35,8.35,0,0,1-2.68-4.2,10.47,10.47,0,0,1-3,5.26l-.89-.74a10.19,10.19,0,0,0,3.28-7.43v-3.66h1.16v3.63a7.58,7.58,0,0,0,2.85,6.3Zm2.26,4.23v-16.6h1.22v16.6Z"/><path class="cls-7" d="M147.49,411.51h2.18V405.2h1.22v15.47h-1.22v-8.13h-2.18c-.14,3.11-1.37,5-3.48,5s-3.51-2.15-3.51-5.58,1.25-5.57,3.51-5.57S147.37,408.38,147.49,411.51Zm-3.48-4c-1.41,0-2.28,1.69-2.28,4.51s.87,4.52,2.28,4.52,2.26-1.69,2.26-4.52S145.4,407.48,144,407.48Zm8.89,14v-16.6h1.22v16.6Z"/><path class="cls-7" d="M165.89,406.1c2.45,0,3.88,2,4,5.24h4v-6.46h1.22v16.6h-1.22v-9.1h-4c-.11,3.27-1.54,5.34-4,5.34s-4-2.28-4-5.81S163.29,406.1,165.89,406.1Zm0,1.08c-1.73,0-2.85,2-2.85,4.75s1.12,4.73,2.85,4.73,2.87-2,2.87-4.73S167.62,407.18,165.89,407.18Z"/><path class="cls-7" d="M179.93,421.2v-3.63h9.92V416h-10v-1h5v-1.86H178v-1h15v1h-6.91V415h5v3.57h-9.92v1.65h10.57v1Zm5.57-10.26c-3.42,0-5.63-.89-5.63-2.83s2.21-2.83,5.63-2.83,5.64.91,5.64,2.83S189,410.94,185.5,410.94Zm-4.37-2.83c0,1.23,1.72,1.84,4.37,1.84s4.42-.61,4.42-1.84-1.78-1.84-4.42-1.84S181.13,406.88,181.13,408.11Z"/><path class="cls-7" d="M195.41,417.44v-6.23h6.35v-3.73h-6.43v-1H203v5.79h-6.34v4.16a47.25,47.25,0,0,0,8.34-.57l.15,1.07A62.08,62.08,0,0,1,195.41,417.44Zm11.3,4v-16.6h1.22v16.6Z"/><path class="cls-7" d="M210.85,414.61v-1.05h15v1.05Zm2.09,6.46v-4.83h1.2V420h10v1.05Zm0-9.86v-5.76h1.2v4.71H224v1Z"/><path class="cls-7" d="M240.35,411.38v2h6.92v1h-15v-1h6.86v-2c-3.14-.12-5-1.14-5-3s2.15-3,5.66-3,5.65,1,5.65,3S243.53,411.28,240.35,411.38Zm5.3,10.05c-2.43-.44-5-2.07-5.9-3.65-.65,1.46-3,3.1-5.78,3.59l-.61-1c3.08-.3,5.78-2.41,5.78-4.29v-.65h1.25v.65c0,1.88,3,4.06,5.85,4.33Zm-5.89-15c-2.64,0-4.38.65-4.38,2s1.74,2,4.38,2,4.43-.64,4.43-2S242.42,406.4,239.76,406.4Z"/><path class="cls-7" d="M249,418.12h1.54l-1.38,3.71h-.9Z"/><path class="cls-7" d="M265.81,414.76v3.46h6.91v1h-15v-1h6.86v-3.46c-3.13-.17-5.17-1.84-5.17-4.33,0-2.66,2.3-4.39,5.78-4.39s5.81,1.73,5.81,4.39C271,412.92,269,414.59,265.81,414.76Zm-.61-7.64c-2.76,0-4.58,1.35-4.58,3.31s1.82,3.28,4.58,3.28,4.61-1.33,4.61-3.28S268,407.12,265.2,407.12Z"/><path class="cls-7" d="M274.16,419V418h6v-4.29h1.22V418h7.73V419Zm12.94-10.36a36.12,36.12,0,0,1-.63,7.22l-1.17-.17a28.52,28.52,0,0,0,.45-4.08l-9.84.55-.23-1.09,10.11-.45c0-.46,0-.91,0-1.35v-1.54h-9.73v-1h11Z"/><path class="cls-7" d="M298,411.51h2.18V405.2h1.22v15.47h-1.22v-8.13H298c-.14,3.11-1.37,5-3.48,5-2.26,0-3.51-2.15-3.51-5.58s1.25-5.57,3.51-5.57S297.83,408.38,298,411.51Zm-3.48-4c-1.41,0-2.28,1.69-2.28,4.51s.87,4.52,2.28,4.52,2.26-1.69,2.26-4.52S295.86,407.48,294.47,407.48Zm8.89,14v-16.6h1.22v16.6Z"/><path class="cls-7" d="M316.14,417.38a11.29,11.29,0,0,1-4.12-5.24,11.62,11.62,0,0,1-4.2,5.68l-.83-.91a9.46,9.46,0,0,0,4.4-7.34v-3.25h1.26v3.23a8.41,8.41,0,0,0,4.27,6.9Zm3.2,4.1V412H315.4v-1h3.94v-6h1.21v16.6Z"/><path class="cls-7" d="M335.31,421.5v-5.41h-6.86v-1h15v1h-6.91v5.41Zm6.76-7.75c-2.9-.53-5.41-2.05-6.13-3.55-.63,1.5-3,3.12-6.08,3.61l-.55-1c2.66-.3,5.73-1.84,6-4H330v-1h11.85v1H336.6c.27,2.15,3.59,3.63,6,3.91Zm-8.83-7.44v-1h5.41v1Z"/><path class="cls-7" d="M354,415.16a7.76,7.76,0,0,1-4.16-3.54,7.27,7.27,0,0,1-4.26,4l-.64-.94c2.14-.61,4.29-2.84,4.29-4.83v-.36h-3.82v-1h8.82v1h-3.76v.34c0,2,2.22,3.93,4.18,4.37Zm-6.4-8.53v-1H352v1Zm.17,14.27V416H349v3.88h9.76v1ZM358.41,417h-1.22v-5.38H354v-1h3.21v-5.74h1.22Z"/><path class="cls-7" d="M361.26,408.43v-1h9.48v1Zm4.69,6.29c-2.13,0-3.73-1-3.73-2.73s1.58-2.74,3.73-2.74,3.72,1,3.72,2.74S368.09,414.72,366,414.72Zm0-4.44c-1.35,0-2.53.62-2.53,1.71s1.2,1.72,2.53,1.72,2.52-.64,2.52-1.72S367.3,410.28,366,410.28Zm-2.32-4v-1.08h4.73v1.08Zm0,15v-5.93h1.21v1.78h7.91v-1.78H374v5.93Zm9.12-3.1h-7.91v2.07h7.91Zm1.21-7.33v3.72h-1.21v-9.67H374v4.92h2.59v1Z"/><path class="cls-7" d="M378.83,417.3V406.59H380v9.63a48.48,48.48,0,0,0,8.15-.78l.17,1A54.53,54.53,0,0,1,378.83,417.3Zm11.05,4.18v-16.6h1.22v16.6Z"/><path class="cls-7" d="M394.93,417.3V406.61h7.74v1h-6.52v8.57a38.11,38.11,0,0,0,8-.53l.17,1A46.58,46.58,0,0,1,394.93,417.3Zm11.93-4.71v8.89h-1.21v-16.6h1.21v6.69h2.78v1Z"/></svg>