<svg xmlns="http://www.w3.org/2000/svg" xmlns:xlink="http://www.w3.org/1999/xlink" viewBox="0 0 558.67 559.59"><defs><style>.cls-1,.cls-6{fill:none;}.cls-2{fill:#e5e5e5;}.cls-3{clip-path:url(#clip-path);}.cls-10,.cls-4{fill:#fff;}.cls-5{fill:#e2e2e2;}.cls-10,.cls-6{stroke:#000;stroke-miterlimit:10;}.cls-7{fill:#d3d3d3;}.cls-8{fill:#ededed;}.cls-9{fill:#ddd;}</style><clipPath id="clip-path"><polygon class="cls-1" points="534.19 492.6 257.92 502.46 256.78 140.36 549.02 116.44 534.19 492.6"/></clipPath></defs><g id="레이어_2" data-name="레이어 2"><g id="레이어_1-2" data-name="레이어 1"><polygon class="cls-2" points="266.94 136.92 558.15 113.08 543.37 488.21 268.08 498.03 266.94 136.92"/><path d="M557.63,113.63l-14.75,374.1-274.31,9.79-1.13-360.14,290.19-23.75m1-1.09L266.44,136.46l1.14,362.09,276.27-9.86,14.82-376.15Z"/><g class="cls-3"><path class="cls-4" d="M455.36,260.28c.15,2.92.3,5.87.44,8.83-7.17,1.63-24.24,6.08-21.89,10.9,1.91,3.94,11.46.59,17.89-2.23-7.65,3.87-19.61,10.66-17.69,14.28,1.28,2.39,6.51.31,11.84-2.67-4.5,3.41-7.94,6.88-5.76,8.39s6.66-.6,10.77-3.39l-3.64,2.82c-3.15,6.77,3.28,5.14,3.28,5.14l6.55-5.75c.52,11,1,21.6,1.4,31.24a21.49,21.49,0,0,0-4.67-2.36c-8.08-3.17-27.33-7.34-62.78,2.36-32,8.74-47.47,5.32-54.45,1.79-3.84-1.93-5.1-3.9-5.1-3.9,4.67-15.8,10.14-33.56,15.63-51.37l12.42,11.85s7,2.65,4.67-4.53c-6.08-5.23-11.89-9.68-12.93-10.48l17.3,12.2s6.08,1.25,3.59-4.52c-3.27-3.73-10.81-8.08-14.38-10,4.8,2.51,17.09,8.31,19.21,3.81,2.45-5.21-16.08-8.42-18.72-8.85,2.42.3,18.43,2.2,19-.81.46-2.71-17.57-7.76-23.74-9.39q1.83-5.9,3.56-11.65c9-29.67,16.69-56.06,19-69.46l-52.39,27.82,26.19,44.28-10.94,22-10.11,20.31S260.13,209,301.76,176.78s66.45-35.24,89.34-34.93c0,0,6.14,15.31,11.17,30.64,4.54-10.79,31-28.27,31-28.27s10.63-12.81,83.12,37.7c0,0,46.77,22-36.47,109l-4.38-10.51-9.41-22.64-3.53-8.48L496.78,210l-45.36-23.38S453.36,221.09,455.36,260.28Z"/><path d="M477.61,537.35c29.46,3.28,34.61,13.11,32.74,21.52-41.28.47-53.79,0-53.79,0s.24-11.23-3.5-10.87-3.51,10.52-3.51,10.52H434L421,451.31h33.21S451,539.7,477.61,537.35Z"/><path class="cls-4" d="M455.8,269.11c-.14-3-.29-5.91-.44-8.83.25,1.08,10.81-2.54,10.81-2.54l9.41,22.64L457.15,296.6l-6.55,5.75s-6.43,1.63-3.28-5.14l3.64-2.82a89.17,89.17,0,0,0,9.31-7.47c-.43.35-3.53,2.95-9.31,7.47-4.11,2.79-8.51,4.95-10.77,3.39s1.26-5,5.76-8.39A129.73,129.73,0,0,0,458.84,281,142.13,142.13,0,0,0,446,289.39c-5.33,3-10.56,5.06-11.84,2.67-1.92-3.62,10-10.41,17.69-14.28-6.43,2.82-16,6.17-17.89,2.23C431.56,275.19,448.63,270.74,455.8,269.11Zm1.9,5.83c-.59.26-2.83,1.29-5.72,2.76C454.89,276.41,457.12,275.25,457.7,274.94Z"/><path d="M438.81,39.8c.51-.78,10.72-16.53,19.4-16.75s-6.48,23.27-7.11,24.25c.81-.56,15.39-10.91,23.36-7.94,8.18,3-18.36,28.05-34,26.52,10.76,14.56,6.67,25.6,6.67,25.6s-8,16.85-16.63,23.18c.74-8.56,1.89-15.56,1.89-15.56,2.2-.69,4.13.38,6.25-3.75a33.19,33.19,0,0,0,2.18-6.1c3-11.15-8.19-10.46-8.19-10.46s-1.32,8.44-1.55,11.17c0,.19,0,.35-.05.49-1-2.24-11.27-14-11.27-14C406,78,398.1,76.39,393.67,73.72a10.64,10.64,0,0,1-5.26-11.83s.93-15.73,35.89-8.45c0,0-6.32-20.41,15-35.92C444.76,16.38,439.05,38.84,438.81,39.8Z"/><path class="cls-5" d="M453.88,325.48l5,57.54a46.84,46.84,0,0,1-9.81,2.86c-10.79,2.09-25,2.59-36,2.62-9.7,0-16.85-.34-16.85-.34l-2.34-31.8s0,29.47-2.79,33.67c-1.14,1.73-13.06,1.1-26.68-.27-11.28-1.11-23.75-2.72-32.26-3.88-6.2-.85-10.29-1.45-10.29-1.45l14.78-54.8c7,3.53,22.49,6.95,54.45-1.79C426.55,318.14,445.8,322.31,453.88,325.48Z"/><path class="cls-4" d="M449.09,385.88l1.17,65.43H423.37L413.08,388.5C424.06,388.47,438.3,388,449.09,385.88Z"/><path class="cls-4" d="M432.6,78.79s11.23-.69,8.19,10.46a33.19,33.19,0,0,1-2.18,6.1l-2-1A5.38,5.38,0,0,1,434,91.17a4.13,4.13,0,0,1-.15-1.3c4.85-1.28,2.7-5.69,2.7-5.69s-2.63,2.72-2.7,5.69l-.57.12-2.26,0C431.28,87.23,432.6,78.79,432.6,78.79Z"/><path class="cls-4" d="M416.28,85.49a6.06,6.06,0,0,0-5.09,1.13s-1.39,4.15,2.7,4C417.58,90.45,416.52,86.3,416.28,85.49Zm-8.64,33.36c-16,.71-17.39-17.28-16.21-30.86l3,.22c0,2.12,3.51,2.38,3.51,2.38s4.17-.54,2.08-5a21.22,21.22,0,0,1,2.91.43h.26c-.38-11.69-10.3-8.37-10.3-8.37.34-1.87.65-3.23.8-3.89C398.1,76.39,406,78,419.73,76.45c0,0,10.29,11.76,11.27,14,0,.31,0,.43.08.32a.42.42,0,0,0-.08-.32c0-.14,0-.3.05-.49l2.26,0,.57-.12a4.13,4.13,0,0,0,.15,1.3,5.38,5.38,0,0,0,2.55,3.18l2,1c-2.12,4.13-4.05,3.06-6.25,3.75,0,0-1.15,7-1.89,15.56-1,11.28-1.25,25.29,2.84,29.56,0,0-26.5,17.48-31,28.27-5-15.33-11.17-30.64-11.17-30.64C406.55,139.05,407.64,118.85,407.64,118.85Z"/><path d="M436.58,84.18s2.15,4.41-2.7,5.69C434,86.9,436.58,84.18,436.58,84.18Z"/><path d="M416.28,85.49c.24.81,1.3,5-2.39,5.1-4.09.18-2.7-4-2.7-4A6.06,6.06,0,0,1,416.28,85.49Z"/><path class="cls-4" d="M400,85.55c-2.12-.16-4.73,0-5.4,1.72a2.66,2.66,0,0,0-.19.94l-3-.22a102.57,102.57,0,0,1,1.44-10.38s9.92-3.32,10.3,8.37h-.26A21.22,21.22,0,0,0,400,85.55Z"/><path d="M400,85.55c2.09,4.5-2.08,5-2.08,5s-3.51-.26-3.51-2.38a2.66,2.66,0,0,1,.19-.94C395.27,85.57,397.88,85.39,400,85.55Z"/><path class="cls-4" d="M357.81,268.83c-.88-.47-1.5-.8-1.77-.93C356.29,268,356.92,268.39,357.81,268.83Zm-6.47,2.37c1,.8,6.85,5.25,12.93,10.48,2.34,7.18-4.67,4.53-4.67,4.53l-12.42-11.85-8.17-7.8h0l10.94-22s5.49-4.11,7.18-2.64q-1.74,5.75-3.56,11.65c6.17,1.63,24.2,6.68,23.74,9.39-.52,3-16.53,1.11-19,.81,2.64.43,21.17,3.64,18.72,8.85-2.12,4.5-14.41-1.3-19.21-3.81,3.57,2,11.11,6.31,14.38,10,2.49,5.77-3.59,4.52-3.59,4.52Z"/><path class="cls-4" d="M364.42,389.76,352.84,456l-26.72-5.12,6-65C340.67,387,353.14,388.65,364.42,389.76Z"/><path d="M326.12,450.9,352.84,456l2.24.43s-11.15,96.32-8.81,102.62H332.16v-11s-14,6-13.09,11l-51.45-1.6s-5.8-18.44,38.82-20.58c9.77-.47,9.59-8.89,9.59-8.89l6.08-77.87Z"/><path class="cls-6" d="M393.77,73.29s0,.15-.1.43c-.15.66-.46,2-.8,3.89A102.57,102.57,0,0,0,391.43,88c-1.18,13.58.22,31.57,16.21,30.86a34.87,34.87,0,0,0,12.09-3.11"/><path class="cls-6" d="M431,90.45c0-.14,0-.3.05-.49.23-2.73,1.55-11.17,1.55-11.17s11.23-.69,8.19,10.46a33.19,33.19,0,0,1-2.18,6.1c-2.12,4.13-4.05,3.06-6.25,3.75,0,0-1.15,7-1.89,15.56-1,11.28-1.25,25.29,2.84,29.56,0,0-26.5,17.48-31,28.27"/><path class="cls-6" d="M431,90.45a.42.42,0,0,1,.08.32C431,90.88,431,90.76,431,90.45Z"/><path class="cls-6" d="M438.81,39.8c.24-1,5.95-23.42.45-22.28C418,33,424.3,53.44,424.3,53.44c-35-7.28-35.89,8.45-35.89,8.45a10.64,10.64,0,0,0,5.26,11.83C398.1,76.39,406,78,419.73,76.45c0,0,10.29,11.76,11.27,14"/><path class="cls-6" d="M451.1,47.3c.63-1,15.81-24.49,7.11-24.25s-18.89,16-19.4,16.75v0"/><path class="cls-6" d="M430.45,114.67s0,0,0,0c8.66-6.33,16.63-23.18,16.63-23.18s4.09-11-6.67-25.6c15.67,1.53,42.21-23.47,34-26.52-8-3-22.55,7.38-23.36,7.94l0,0"/><path class="cls-6" d="M433.88,89.87l-.57.12"/><path class="cls-6" d="M433.88,89.87c.07-3,2.7-5.69,2.7-5.69S438.73,88.59,433.88,89.87Z"/><path class="cls-6" d="M436.58,94.35A5.38,5.38,0,0,1,434,91.17a4.13,4.13,0,0,1-.15-1.3"/><path class="cls-6" d="M392.87,77.61s9.92-3.32,10.3,8.37a42.21,42.21,0,0,1-2,12.69s3.52,1.81,7.55-1.52"/><path class="cls-6" d="M410.38,81.36s4.36-4.24,10.41-.52"/><path class="cls-6" d="M402.91,86a21.22,21.22,0,0,0-2.91-.43c-2.12-.16-4.73,0-5.4,1.72a2.66,2.66,0,0,0-.19.94c0,2.12,3.51,2.38,3.51,2.38s4.17-.54,2.08-5c0,0,0,0,0-.06"/><path class="cls-6" d="M416.28,85.49l0-.13"/><path class="cls-6" d="M416.28,85.49a6.06,6.06,0,0,0-5.09,1.13s-1.39,4.15,2.7,4C417.58,90.45,416.52,86.3,416.28,85.49Z"/><path class="cls-6" d="M421.48,87.61a15.28,15.28,0,0,0-5.2-2.12"/><path class="cls-6" d="M412.6,103.34s-4.18,6.41-14.35,4.11a.32.32,0,0,1,.05-.64,18.75,18.75,0,0,0,6.47-1.54"/><path class="cls-6" d="M400.21,109.72s.75,2.39,10.17-.76"/><path class="cls-6" d="M407.64,118.85s-1.09,20.2-16.54,23c0,0,6.14,15.31,11.17,30.64,3.71,11.3,6.8,22.6,6.42,27.82"/><path class="cls-6" d="M455.8,269.11c-.14-3-.29-5.91-.44-8.83-2-39.19-3.94-73.69-3.94-73.69L496.78,210l-34.14,39.29,3.53,8.48,9.41,22.64L480,290.89c83.24-87,36.47-109,36.47-109-72.49-50.51-83.12-37.7-83.12-37.7"/><path class="cls-6" d="M347.18,274.36c-5.49,17.81-11,35.57-15.63,51.37,0,0,1.26,2,5.1,3.9,7,3.53,22.49,6.95,54.45-1.79,35.45-9.7,54.7-5.53,62.78-2.36a21.49,21.49,0,0,1,4.67,2.36c-.4-9.64-.88-20.27-1.4-31.24"/><path class="cls-6" d="M391.1,141.85c-22.89-.31-47.72,2.65-89.34,34.93s27.12,110.09,27.12,110.09L339,266.56l10.94-22-26.19-44.28,52.39-27.82c-2.33,13.4-10,39.79-19,69.46q-1.74,5.75-3.56,11.65a.24.24,0,0,1,0,.12"/><path class="cls-6" d="M336.65,329.63l-14.78,54.8s4.09.6,10.29,1.45c8.51,1.16,21,2.77,32.26,3.88,13.62,1.37,25.54,2,26.68.27,2.79-4.2,2.79-33.67,2.79-33.67l2.34,31.8s7.15.37,16.85.34c11,0,25.22-.53,36-2.62A46.84,46.84,0,0,0,458.9,383l-5-57.54"/><path class="cls-6" d="M394.37,349.66s-2.81-7.49-2.49-13.25"/><path class="cls-6" d="M439,326.43s1.55,13.1,10.14,13.1"/><path class="cls-6" d="M442.37,328.15s.79,6.55,5,6.7"/><path class="cls-6" d="M344.17,334.85a12.86,12.86,0,0,1-6.39,6.55"/><path class="cls-6" d="M340.43,334.85s0,1.24-2.65,3.28"/><path class="cls-6" d="M337.12,380.05s17.63,2.39,31.27,2.06"/><path class="cls-6" d="M406.45,380.41s25.1,3.27,43.81-4.52"/><line class="cls-6" x1="449.09" y1="385.88" x2="450.26" y2="451.31"/><line class="cls-6" x1="413.08" y1="388.5" x2="423.37" y2="451.31"/><polyline class="cls-6" points="364.42 389.76 352.84 456.02 352.77 456.45"/><polyline class="cls-6" points="332.16 385.88 326.12 450.9 326.08 451.31"/><path class="cls-6" d="M450.26,451.31h4s-3.27,88.39,23.38,86c29.46,3.28,34.61,13.11,32.74,21.52-41.28.47-53.79,0-53.79,0s.24-11.23-3.5-10.87-3.51,10.52-3.51,10.52H434L421,451.31h29.24Z"/><path class="cls-6" d="M326.12,450.9l-4-.77L316,528s.18,8.42-9.59,8.89c-44.62,2.14-38.82,20.58-38.82,20.58l51.45,1.6c-.94-4.93,13.09-11,13.09-11v11h14.11c-2.34-6.3,8.81-102.62,8.81-102.62l-2.24-.43Z"/><path class="cls-6" d="M358,263.76h.1l.2,0h0c2.42.3,18.43,2.2,19-.81.46-2.71-17.57-7.76-23.74-9.39-1.27-.34-2-.53-2-.53"/><path class="cls-6" d="M357.85,268.84c4.8,2.51,17.09,8.31,19.21,3.81,2.45-5.21-16.08-8.42-18.72-8.85"/><path class="cls-6" d="M355.91,267.82l.13.08c.25.14.88.49,1.77.93"/><path class="cls-6" d="M357.81,268.83c-.88-.47-1.5-.8-1.77-.93"/><path class="cls-6" d="M357.81,268.83h0"/><path class="cls-6" d="M351.18,271.08l.16.12,17.3,12.2s6.08,1.25,3.59-4.52c-3.27-3.73-10.81-8.08-14.38-10"/><path class="cls-6" d="M339,266.56l8.17,7.8,12.42,11.85s7,2.65,4.67-4.53c-6.08-5.23-11.89-9.68-12.93-10.48"/><path class="cls-6" d="M349.93,244.59s5.49-4.11,7.18-2.64"/><path class="cls-6" d="M451.8,277.78c-6.43,2.82-16,6.17-17.89,2.23-2.35-4.82,14.72-9.27,21.89-10.9,1.9-.43,3.1-.67,3.1-.67"/><path class="cls-6" d="M457.85,274.86l-.07,0-.08.05c-.58.31-2.81,1.47-5.72,2.76"/><path class="cls-6" d="M452,277.7c2.89-1.47,5.13-2.5,5.72-2.76"/><path class="cls-6" d="M452,277.7h0l-.15.07"/><path class="cls-6" d="M458.84,281A129.73,129.73,0,0,1,446,289.39c-5.33,3-10.56,5.06-11.84,2.67-1.92-3.62,10-10.41,17.69-14.28"/><path class="cls-6" d="M460.31,286.87l0,0s0,0,0,0a89.17,89.17,0,0,1-9.31,7.47c-4.11,2.79-8.51,4.95-10.77,3.39s1.26-5,5.76-8.39A142.13,142.13,0,0,1,458.84,281c.05,0,.06,0,.06,0"/><path class="cls-6" d="M457.15,296.6l-6.55,5.75s-6.43,1.63-3.28-5.14l3.64-2.82c5.78-4.52,8.88-7.12,9.31-7.47"/><line class="cls-6" x1="475.58" y1="280.38" x2="457.15" y2="296.6"/><path class="cls-6" d="M466.17,257.74s-10.56,3.62-10.81,2.54l0,0"/><circle class="cls-7" cx="442.17" cy="201.56" r="5.6"/><circle class="cls-7" cx="377.29" cy="236.04" r="5.6"/><circle class="cls-7" cx="358.15" cy="308.12" r="5.6"/><circle class="cls-7" cx="353.15" cy="155.51" r="5.6"/><circle class="cls-7" cx="300.28" cy="193.49" r="5.6"/><circle class="cls-7" cx="332.15" cy="234.55" r="5.6"/><circle class="cls-7" cx="487.02" cy="241.64" r="5.6"/><circle class="cls-7" cx="517.3" cy="200.31" r="5.6"/><circle class="cls-7" cx="458.57" cy="155.51" r="5.6"/><circle class="cls-7" cx="433.69" cy="313.72" r="5.6"/><circle class="cls-7" cx="408.69" cy="269.88" r="5.6"/></g><path class="cls-4" d="M106.36,335c7.51,14.2,14.91,21.93,20.69,26.15a18.44,18.44,0,0,0,19.64,1.26c6.74-3.63,15.27-9.84,16.65-18.49a12.4,12.4,0,0,0-9.07-13.79,64.43,64.43,0,0,0-44.16,3.07Q108.17,334,106.36,335Zm129.39-38.33.69.19s15,27.88,28.77,16.58,0-31.76,0-31.76C248,280.1,239.64,287.64,235.75,296.63Zm-13-24.51,78.77-3.44V391.86L85.3,407.13C44.09,395.68,42.5,280,42.5,280Zm60.42,71.73s1.76-24.8-3.18-25.51-6.71,9.24-6.71,9.24-20.11-6.41-11.64,6.29S283.21,343.85,283.21,343.85Z"/><path class="cls-8" d="M280,318.34c4.94.71,3.18,25.51,3.18,25.51s-13.06,2.73-21.53-10,11.64-6.29,11.64-6.29S275.09,317.64,280,318.34Z"/><path d="M265.21,281.64s13.76,20.47,0,31.76-28.77-16.58-28.77-16.58l-.69-.19C239.64,287.64,248,280.1,265.21,281.64Z"/><path d="M154.27,330.09a12.4,12.4,0,0,1,9.07,13.79c-1.38,8.65-9.91,14.86-16.65,18.49a18.44,18.44,0,0,1-19.64-1.26c-5.78-4.22-13.18-11.95-20.69-26.15q1.81-.94,3.75-1.8A64.43,64.43,0,0,1,154.27,330.09Z"/><path class="cls-9" d="M85.3,407.13,10.74,412.4v-131L42.5,280S44.09,395.68,85.3,407.13Z"/><polygon class="cls-9" points="10.74 281.37 10.74 412.4 0.5 413.12 0.5 281.82 10.74 281.37"/><polygon class="cls-6" points="301.56 391.86 85.3 407.13 10.74 412.4 0.5 413.12 0.5 281.82 10.74 281.37 42.5 279.99 222.79 272.12 301.56 268.68 301.56 391.86"/><path class="cls-6" d="M106.36,335c-.14-.27-.29-.54-.43-.82"/><path class="cls-6" d="M106.36,335q1.81-.94,3.75-1.8a64.43,64.43,0,0,1,44.16-3.07,12.4,12.4,0,0,1,9.07,13.79c-1.38,8.65-9.91,14.86-16.65,18.49a18.44,18.44,0,0,1-19.64-1.26C121.27,356.89,113.87,349.16,106.36,335Z"/><path class="cls-6" d="M79,358.38A80.83,80.83,0,0,1,106.36,335"/><path class="cls-6" d="M161.27,315s-30.53-45.88-88.59-8.12"/><path class="cls-6" d="M226.38,310.93s-9.79-22.66-3.59-38.81c3.42-8.94,11.75-15.89,29.36-15.89"/><path class="cls-6" d="M236.44,296.82s15,27.88,28.77,16.58,0-31.76,0-31.76c-17.26-1.54-25.57,6-29.46,15-5,11.6-2.66,25.6-2.66,25.6"/><path class="cls-6" d="M187.56,322.23s-4.94,57.53,18,59.29"/><path class="cls-6" d="M273.32,327.58s-20.11-6.41-11.64,6.29,21.53,10,21.53,10,1.76-24.8-3.18-25.51S273.32,327.58,273.32,327.58Z"/><path class="cls-6" d="M42.5,280s1.59,115.69,42.8,127.14"/><polygon class="cls-10" points="320.94 183.63 144.14 193.51 154.58 31.1 320.94 6.83 320.94 183.63"/><path d="M157.83,81.52a2.79,2.79,0,0,1-.2-2,2.9,2.9,0,0,1,1.73-1.23L165,76.07a3,3,0,0,1,2.12-.24,2.8,2.8,0,0,1,1.2,1.65l5.42,14.13a48.56,48.56,0,0,1,12.13-3.12,35.14,35.14,0,0,1,11.78.47,24.56,24.56,0,0,1,10,4.75,22.2,22.2,0,0,1,6.86,9.78q2.85,7.44,1.8,13.07a20.86,20.86,0,0,1-4.63,9.83,32.51,32.51,0,0,1-8.89,7.19,82.39,82.39,0,0,1-11,5.18l-8.11,3.1a2.88,2.88,0,0,1-2.11.24,2.81,2.81,0,0,1-1.21-1.65Zm46.46,26.68a14.19,14.19,0,0,0-4-5.91,14,14,0,0,0-6-2.92,22.54,22.54,0,0,0-7.72-.25,45.49,45.49,0,0,0-9.09,2.18l10.7,27.93a63,63,0,0,0,8.43-3.9,21.71,21.71,0,0,0,5.85-4.64,11.77,11.77,0,0,0,2.72-5.65A12.88,12.88,0,0,0,204.29,108.2Z"/><path d="M231.56,96.79q1.49,4.13,2.72,6.72a8.84,8.84,0,0,0,2.86,3.7,5.61,5.61,0,0,0,3.92.85,23.28,23.28,0,0,0,5.94-1.75l10.69-4.38L244.81,67.07a2.64,2.64,0,0,1-.16-2,3.18,3.18,0,0,1,1.77-1.26l6.11-2.34a2.92,2.92,0,0,1,2.11-.23,2.78,2.78,0,0,1,1.21,1.65l15,40.85a5.64,5.64,0,0,1,.48,3.12,3.18,3.18,0,0,1-1.86,1.53q-4.14,2-10.27,4.46t-13.58,5.35a17.57,17.57,0,0,1-8.48,1.28,15.32,15.32,0,0,1-6.85-2.5,18.78,18.78,0,0,1-5.12-5.23,28.69,28.69,0,0,1-3.38-6.95l-8.56-25.58a2.64,2.64,0,0,1-.16-2,3.13,3.13,0,0,1,1.77-1.26l6.11-2.34a2.92,2.92,0,0,1,2.11-.23A2.75,2.75,0,0,1,224.25,75Z"/><path d="M295.7,92.54,262.81,64c-1-.82-1.51-1.48-1.47-2a4.63,4.63,0,0,1,1.4-2.22l3.95-4.2a3.2,3.2,0,0,1,1.78-1.11,3.53,3.53,0,0,1,2,1.12L296.16,78l1-33.17a3.82,3.82,0,0,1,.54-2.22,3.2,3.2,0,0,1,2.06-.5l5.79.08a4.18,4.18,0,0,1,2.44.5c.35.32.51,1.12.49,2.41l-2,68.63c0,1.29-.23,2.07-.64,2.36a5.39,5.39,0,0,1-2.73.37l-4.72-.3a5.33,5.33,0,0,1-2.76-.57q-.51-.48-.48-2.4Z"/><path d="M366.07,41.76a5.14,5.14,0,0,1,.63-3.07q.65-.75,2.73-.75a45.72,45.72,0,0,0,8.12-.7,24,24,0,0,0,6.67-2.15,12.17,12.17,0,0,0,4.53-3.83,9.66,9.66,0,0,0,1.68-5.74A10.15,10.15,0,0,0,386,17q-4.47-3.32-12.12-3.31a34.93,34.93,0,0,0-10.79,1.57A52,52,0,0,0,353,19.84c-1.16.62-2,.83-2.44.64s-.85-.83-1.16-1.92l-2.2-7.19a5.24,5.24,0,0,1-.24-2.55q.24-.93,1.86-1.86c1.62-.93,3.27-1.82,4.93-2.67a33.5,33.5,0,0,1,5.57-2.2A50.49,50.49,0,0,1,366.12.58,58.8,58.8,0,0,1,375,0a47.62,47.62,0,0,1,11.83,1.39,25.82,25.82,0,0,1,9.46,4.47,20.62,20.62,0,0,1,6.2,7.89,27.56,27.56,0,0,1,2.21,11.54,22.61,22.61,0,0,1-1.57,8.88,21.37,21.37,0,0,1-3.94,6.2,21.93,21.93,0,0,1-5.11,4.12A40.19,40.19,0,0,1,389,47a43.72,43.72,0,0,1-4.3,1.34,40.31,40.31,0,0,1-4.06.87V63.11a3.85,3.85,0,0,1-.69,2.61,3.64,3.64,0,0,1-2.67.75h-7.89a3.62,3.62,0,0,1-2.67-.75,3.85,3.85,0,0,1-.69-2.61ZM365,83a7.29,7.29,0,0,1,2.26-5.51,8.83,8.83,0,0,1,11.55,0,7.7,7.7,0,0,1,0,11,8.08,8.08,0,0,1-5.69,2.14,8.17,8.17,0,0,1-5.86-2.14A7.29,7.29,0,0,1,365,83Z"/></g></g></svg>