<svg id="레이어_1" data-name="레이어 1" xmlns="http://www.w3.org/2000/svg" xmlns:xlink="http://www.w3.org/1999/xlink" viewBox="0 0 480 480"><defs><style>.cls-1,.cls-5{fill:none;}.cls-2{fill:#fff;}.cls-3{fill:#c6c6c6;}.cls-4{fill:#919191;}.cls-5{stroke:#000;stroke-miterlimit:10;}.cls-6{clip-path:url(#clip-path);}.cls-7{fill:#e8e8e8;}.cls-8{fill:#020202;}.cls-9{fill:#fffffa;}.cls-10{fill:#3f3f3f;}</style><clipPath id="clip-path"><path class="cls-1" d="M404.49,191.92c0,99.19-77.42,148.2-176.61,148.2S45.3,291.11,45.3,191.92a179.6,179.6,0,0,1,359.19,0Z"/></clipPath></defs><path class="cls-2" d="M270.9,192.54c.27,1.37,9.36,47.36,8.42,47.71-30.22,11.49-89.73,2.34-89.73,2.34l1.93-35.91-21.7-10c1.62-57.13,48.87-53.75,48.87-53.75s6.8,11.54,18,2.64a12.78,12.78,0,0,0,9.54,6.68,15.5,15.5,0,0,0,30.25.89,25.51,25.51,0,0,0,10,3.19c.49.45,16.76,15.51,15.52,17.29s-20.06,29.6-22.67,28.88C277.89,202.13,274.19,197,270.9,192.54Z"/><path class="cls-3" d="M391,75.24V95.48a8.65,8.65,0,0,1-8.65,8.65h-8.71L361.31,114.8V104.13h-8.7A8.65,8.65,0,0,1,344,95.48V75.24a8.65,8.65,0,0,1,8.65-8.65h29.78A8.65,8.65,0,0,1,391,75.24ZM376.5,90c4.13-5.8,5.74-11.75,3.59-13.28s-7.25,1.93-11.38,7.73a32,32,0,0,0-2.06,3.27,34.73,34.73,0,0,0-2-3.26c-4.11-5.81-9.2-9.29-11.35-7.77S352.69,84.2,356.8,90c2.69,3.82,5.81,6.62,8.24,7.67l.08.07a2.2,2.2,0,0,0,1.39.36,2.34,2.34,0,0,0,1.64-.33.81.81,0,0,0,.16-.16C370.74,96.56,373.82,93.79,376.5,90Z"/><path class="cls-4" d="M380.09,76.75c2.15,1.53.54,7.48-3.59,13.28-2.68,3.76-5.76,6.53-8.19,7.59a.81.81,0,0,1-.16.16,2.34,2.34,0,0,1-1.64.33,2.2,2.2,0,0,1-1.39-.36l-.08-.07c-2.43-1.05-5.55-3.85-8.24-7.67-4.11-5.81-5.7-11.76-3.54-13.29s7.24,2,11.35,7.77a34.73,34.73,0,0,1,2,3.26,32,32,0,0,1,2.06-3.27C372.84,78.68,377.94,75.22,380.09,76.75Z"/><path class="cls-5" d="M382.39,66.59H352.61A8.65,8.65,0,0,0,344,75.24V95.48a8.65,8.65,0,0,0,8.65,8.65h8.7V114.8l12.37-10.67h8.71A8.65,8.65,0,0,0,391,95.48V75.24A8.65,8.65,0,0,0,382.39,66.59Z"/><path class="cls-5" d="M380.09,76.75c-2.15-1.53-7.25,1.93-11.38,7.73a32,32,0,0,0-2.06,3.27,34.73,34.73,0,0,0-2-3.26c-4.11-5.81-9.2-9.29-11.35-7.77S352.69,84.2,356.8,90c2.69,3.82,5.81,6.62,8.24,7.67l.08.07a2.2,2.2,0,0,0,1.39.36,2.34,2.34,0,0,0,1.64-.33.81.81,0,0,0,.16-.16c2.43-1.06,5.51-3.83,8.19-7.59C380.63,84.23,382.24,78.28,380.09,76.75Z"/><path class="cls-3" d="M76.88,221.05v14.84a6.34,6.34,0,0,0,6.34,6.33H89.6L98.66,250v-7.81H105a6.34,6.34,0,0,0,6.34-6.33V221.05a6.34,6.34,0,0,0-6.34-6.34H83.22A6.34,6.34,0,0,0,76.88,221.05Zm10.66,10.84c-3-4.25-4.21-8.61-2.63-9.73s5.3,1.41,8.33,5.66a22,22,0,0,1,1.51,2.4,25.34,25.34,0,0,1,1.5-2.39c3-4.26,6.73-6.81,8.32-5.7s.41,5.48-2.6,9.74c-2,2.8-4.26,4.85-6,5.62l-.06.06a1.62,1.62,0,0,1-1,.26,1.66,1.66,0,0,1-1.19-.25.45.45,0,0,1-.13-.11A16.88,16.88,0,0,1,87.54,231.89Z"/><path class="cls-4" d="M84.91,222.16c-1.58,1.12-.41,5.48,2.63,9.73a16.88,16.88,0,0,0,6,5.56.45.45,0,0,0,.13.11,1.66,1.66,0,0,0,1.19.25,1.62,1.62,0,0,0,1-.26l.06-.06c1.78-.77,4.06-2.82,6-5.62,3-4.26,4.17-8.62,2.6-9.74s-5.31,1.44-8.32,5.7a25.34,25.34,0,0,0-1.5,2.39,22,22,0,0,0-1.51-2.4C90.21,223.57,86.48,221,84.91,222.16Z"/><path class="cls-5" d="M83.22,214.71H105a6.34,6.34,0,0,1,6.34,6.34v14.84a6.34,6.34,0,0,1-6.34,6.33H98.66V250l-9.06-7.81H83.22a6.34,6.34,0,0,1-6.34-6.33V221.05A6.34,6.34,0,0,1,83.22,214.71Z"/><path class="cls-5" d="M84.91,222.16c1.57-1.13,5.3,1.41,8.33,5.66a22,22,0,0,1,1.51,2.4,25.34,25.34,0,0,1,1.5-2.39c3-4.26,6.73-6.81,8.32-5.7s.41,5.48-2.6,9.74c-2,2.8-4.26,4.85-6,5.62l-.06.06a1.62,1.62,0,0,1-1,.26,1.66,1.66,0,0,1-1.19-.25.45.45,0,0,1-.13-.11,16.88,16.88,0,0,1-6-5.56C84.5,227.64,83.33,223.28,84.91,222.16Z"/><path class="cls-3" d="M367.14,248.81v11.38a4.87,4.87,0,0,1-4.86,4.87h-4.89l-7,6v-6h-4.89a4.87,4.87,0,0,1-4.86-4.87V248.81a4.86,4.86,0,0,1,4.86-4.87h16.74A4.86,4.86,0,0,1,367.14,248.81ZM359,257.12c2.33-3.26,3.23-6.6,2-7.47s-4.07,1.09-6.4,4.35a19.9,19.9,0,0,0-1.16,1.84,17.74,17.74,0,0,0-1.15-1.83c-2.31-3.27-5.17-5.23-6.37-4.37s-.33,4.2,2,7.47a12.8,12.8,0,0,0,4.64,4.31.1.1,0,0,1,0,.05,1.94,1.94,0,0,0,1.7,0,.87.87,0,0,0,.1-.08A13,13,0,0,0,359,257.12Z"/><path class="cls-4" d="M361,249.65c1.21.87.31,4.21-2,7.47a13,13,0,0,1-4.6,4.28.87.87,0,0,1-.1.08,1.94,1.94,0,0,1-1.7,0,.1.1,0,0,0,0-.05,12.8,12.8,0,0,1-4.64-4.31c-2.31-3.27-3.2-6.61-2-7.47s4.06,1.1,6.37,4.37a17.74,17.74,0,0,1,1.15,1.83,19.9,19.9,0,0,1,1.16-1.84C356.92,250.74,359.78,248.79,361,249.65Z"/><path class="cls-5" d="M362.28,243.94H345.54a4.86,4.86,0,0,0-4.86,4.87v11.38a4.87,4.87,0,0,0,4.86,4.87h4.89v6l7-6h4.89a4.87,4.87,0,0,0,4.86-4.87V248.81A4.86,4.86,0,0,0,362.28,243.94Z"/><path class="cls-5" d="M361,249.65c-1.21-.86-4.07,1.09-6.4,4.35a19.9,19.9,0,0,0-1.16,1.84,17.74,17.74,0,0,0-1.15-1.83c-2.31-3.27-5.17-5.23-6.37-4.37s-.33,4.2,2,7.47a12.8,12.8,0,0,0,4.64,4.31.1.1,0,0,1,0,.05,1.94,1.94,0,0,0,1.7,0,.87.87,0,0,0,.1-.08,13,13,0,0,0,4.6-4.28C361.3,253.86,362.2,250.52,361,249.65Z"/><g class="cls-6"><path class="cls-7" d="M213.88,139.56S167.8,134.12,165,193.3l21.71,10-3.6,35s86.5,8.39,93.68-8.12c-3.11-16.66-10.1-46.57-10.1-46.57l8.19,10.29L296.7,165S265.9,122.75,213.88,139.56Z"/><path d="M271,268.32a29.55,29.55,0,0,1-3.75,2.27c-12.26,6.41-23.55-9.12-23.55-9.12l4.12-1.85c1.67-.72,3.67-1.61,5.85-2.57l15.56-6.84,1.77,18.1Z"/><path class="cls-2" d="M184.86,327.47c-2.14,1.88-1.71-12.38-1.64-14.38-.14,2-1.13,16.64-1.88,16.14s-2.17-3.09-2.27-11.19c-2.92,17.58-2.83,12.67-4,12.63s.41-13.11.41-13.11l-.62,1.74c-1,3.33-3.58,9.44-4.46,8.31-1.15-1.5,3.86-17.07,3.86-17.07-4.2,6.65-12.85,4.74-8.53,2.85s9.55-11.77,9.55-11.77c2.17-16.79,0-101.91,0-101.91l11,5h0c0,.62-.1,18.56-.32,39-.31,27.53-.84,59.63-1.72,60.25l2.64,9.75S187.16,325.44,184.86,327.47Z"/><path d="M297.3,483.25l-4.85,1.18s1.53-9.12-6.75-9.71-7.77,11.78-7.77,11.78-32.88,10.29-34.65,3.23a13,13,0,0,1-.34-1.72c-.74-5.88,2.88-8.58,2.88-8.58l11.42-2.65c18.57-1.86,18.11-25.81,17.85-30.44l14.12-2.14C292.57,458.62,297.3,483.25,297.3,483.25Z"/><path d="M279.77,251.5c.41,6.07-1.93,12-8.8,16.82h0C271.38,264.93,274.93,258.67,279.77,251.5Z"/><path d="M207.23,144.57l41.94,101.65q-3.4.21-6.83.28l-41.5-100.11v0A50,50,0,0,1,207.23,144.57Z"/><path class="cls-8" d="M205.35,95.16c.41,1.57.82,4.7-1.14,5.63s-3.37-1.14-3.37-2.9a2.69,2.69,0,0,1,.33-1.34C201.79,95.56,203.82,95.25,205.35,95.16Z"/><path class="cls-8" d="M221.5,89.64c1.61.57,1.49,6.48-1.82,6.74s-2.91-4.24-2.91-4.24A5.76,5.76,0,0,1,217.9,91,6.5,6.5,0,0,1,221.5,89.64Z"/><path class="cls-2" d="M205.35,95.16c-1.53.09-3.56.4-4.18,1.39a2.69,2.69,0,0,0-.33,1.34l-3.68,0c0-3.21.18-6.08.36-8.21l1.88.17s9-2.17,10.46,1.08a14.68,14.68,0,0,1,.73,4.71l-3.36-.53S206.4,95.11,205.35,95.16Z"/><path class="cls-2" d="M275.09,446.34l-17.94,2.73L236.58,336.8,234,287l-7.23,50.54L243.43,451.6l-11.39,1-14.66,1.31-16.54,1.47s-5.66-102.34-6.54-120.76c-.81-17.15,8.33-81.12,9.59-89.81a314.34,314.34,0,0,0,38.45,1.68l5.44,13.11h0l-4.12,1.85S255,277,267.22,270.59a29.55,29.55,0,0,0,3.75-2.27l.65,6.51L277,329.76l27.61,112.09-15.4,2.35Z"/><path class="cls-9" d="M223.66,84.48l2.86.15q-.06.74-.06,1.5a23.62,23.62,0,0,0,.21,3.16l-3,.46a8.13,8.13,0,0,0-2.16-.11A6.5,6.5,0,0,0,217.9,91l-2.22-3.26S218,83.67,223.66,84.48Z"/><path class="cls-2" d="M237.46,133a12.8,12.8,0,0,0-2.16,7.12,12.52,12.52,0,0,0,1.49,6c-11.19,8.91-18-2.63-18-2.63V129.17a35.88,35.88,0,0,0,8.66-1.92l5.17-1.89A16.59,16.59,0,0,0,237.46,133Z"/><path d="M253.54,256.84l.1.21c-2.18,1-4.18,1.85-5.85,2.57h0l-5.44-13.11q3.42-.08,6.83-.28Z"/><path class="cls-2" d="M216.77,92.14s-.41,4.52,2.91,4.24,3.43-6.17,1.82-6.74a8.13,8.13,0,0,1,2.16.11l3-.46h0c1.2,8.8,7.38,15.53,14.89,15.86a16.59,16.59,0,0,0-9.66,15.28,17.33,17.33,0,0,0,.71,4.93l-5.17,1.89a35.88,35.88,0,0,1-8.66,1.92c-18.44,1.51-21.61-17.92-21.64-31.24l3.68,0c0,1.76,1.32,3.85,3.37,2.9s1.55-4.06,1.14-5.63c1.05,0,1.88,0,1.88,0l3.36.53a14.68,14.68,0,0,0-.73-4.71c-1.48-3.25-10.46-1.08-10.46-1.08l-1.88-.17c.08-1,.18-1.8.25-2.42a34,34,0,0,0,7.4-3.93,5,5,0,0,0,2.3-3.57c.11-1.23,1.37-2.56,6.86-1.46,8.65,1.7,16.11-5.14,16.9-5.89a20.72,20.72,0,0,0-4.71,12.18l-2.86-.15c-5.67-.81-8,3.24-8,3.24L217.9,91A5.76,5.76,0,0,0,216.77,92.14Z"/><path d="M276.93,241.66l1.76,4.38-4.12,1.81L272.43,243C274,242.57,275.48,242.14,276.93,241.66Z"/><path d="M240.24,492.21l-5,1.21s1.57-9.38-6.94-10-8,12.1-8,12.1-33.79,10.58-35.64,3.32,2.63-10.58,2.63-10.58L199,485.55c19.6-2,18.61-27.8,18.35-31.63L232,452.61c2.63,11.35,6,28.39,7.47,35.86C240,490.81,240.24,492.21,240.24,492.21Z"/><path d="M286.58,156.89a25.19,25.19,0,0,1-10-3.2,15.49,15.49,0,0,1-30.25-.88,12.78,12.78,0,0,1-9.54-6.69,12.52,12.52,0,0,1-1.49-6,12.8,12.8,0,0,1,2.16-7.12,16.59,16.59,0,0,1-4.83-7.67,17.33,17.33,0,0,1-.71-4.93,16.59,16.59,0,0,1,9.66-15.28c-7.51-.33-13.69-7.06-14.89-15.86h0a23.62,23.62,0,0,1-.21-3.16q0-.76.06-1.5a20.72,20.72,0,0,1,4.71-12.18c-.79.75-8.25,7.59-16.9,5.89-5.49-1.1-6.75.23-6.86,1.46a5,5,0,0,1-2.3,3.57,34,34,0,0,1-7.4,3.93c-4.85,1.74-10.12,1.67-12.46-5C180.64,69,192.42,63.94,198.64,62c-5.47-3.37-8.3-9-6.42-13.64C194.39,43,202.05,41,209.34,44a16.71,16.71,0,0,1,8.51,7.22h0a14,14,0,0,1-.9-11.89c3.17-7.8,13.36-11,22.79-7.22s14.51,13.24,11.35,21l.15.1c4.48-7,14.42-9.81,23.56-6.1,10.12,4.09,15.45,14.59,11.87,23.41a15.36,15.36,0,0,1-4.7,6.24,24.94,24.94,0,0,1,17.74.7c11.27,4.56,17.53,15.43,14,24.24-2.53,6.26-9.3,9.78-17,9.71,10.05,3,17.32,11.82,17.32,22.28,0,12.9-11.07,23.36-24.7,23.36A23.81,23.81,0,0,1,286.58,156.89Z"/><path class="cls-2" d="M283.66,286.68c-4.35.88-7.05-5.54-7.05-5.54,1,6.36,2.78,7.82,2.78,7.82-4.51,3.26-7.77-14.13-7.77-14.13l-.65-6.51c6.87-4.78,9.21-10.75,8.8-16.82,8.86-13.15,22-29.38,28.05-36.67a4.94,4.94,0,0,0-.72-7l-16.75-17c2.57-3.48,5.16-7.13,7.26-10.13,0,0,26.22,23.38,19.73,36.74s-28,36.2-36.65,50.9l-1.2,2c2.66,1.83,8.25,4.2,7.11,5.48s-7.58-1.28-7.58-1.28c3.72,5.41,12.38,4.81,8.79,7.35s-10.07-4.78-10.42-5.17c3,5,5.31,7.3,6.65,8.33A.92.92,0,0,1,283.66,286.68Z"/><path d="M274.57,247.85l4.12-1.81a22.87,22.87,0,0,1,1.08,5.46c-4.84,7.17-8.39,13.43-8.8,16.81l-1.77-18.1C271.22,249.31,273.06,248.52,274.57,247.85Z"/><path class="cls-9" d="M268.57,243.84l.63,6.37-15.56,6.84-.1-.21-4.37-10.62A131.75,131.75,0,0,0,268.57,243.84Z"/><path class="cls-5" d="M198,85.92s-.08.49-.18,1.38c-.07.62-.17,1.44-.25,2.42-.18,2.13-.36,5-.36,8.21,0,13.32,3.2,32.75,21.64,31.24a35.88,35.88,0,0,0,8.66-1.92l5.17-1.89"/><path class="cls-5" d="M199.4,89.89s9-2.17,10.46,1.08a14.68,14.68,0,0,1,.73,4.71c.16,4.38-.16,9.7,1.1,9.5,1.82-.27,4.39-.27,4.53-2.17"/><path class="cls-5" d="M215.68,87.72s2.31-4,8-3.24"/><path class="cls-5" d="M216.22,93a4.93,4.93,0,0,1,.55-.86A5.76,5.76,0,0,1,217.9,91a6.5,6.5,0,0,1,3.6-1.34,8.13,8.13,0,0,1,2.16.11"/><path class="cls-5" d="M216.77,92.14s-.41,4.52,2.91,4.24,3.43-6.17,1.82-6.74"/><path class="cls-5" d="M207.23,95.15s-.83,0-1.88,0c-1.53.09-3.56.4-4.18,1.39a2.69,2.69,0,0,0-.33,1.34c0,1.76,1.32,3.85,3.37,2.9s1.55-4.06,1.14-5.63a5.41,5.41,0,0,0-.3-.91"/><path class="cls-5" d="M226.46,109.45a34,34,0,0,1-16.53,6.77,5.79,5.79,0,0,1,5.08-3.93c4-.27,2.16-2.91,4.19-2"/><path class="cls-5" d="M214.33,118.17a11.45,11.45,0,0,0,10.29-2.91"/><line class="cls-5" x1="186.29" y1="204.76" x2="191.63" y2="207.21"/><path class="cls-5" d="M218.8,143.49a45.55,45.55,0,0,0-11.57,1.08,50,50,0,0,0-6.39,1.8c-13.56,4.86-30,17.6-30.92,50.87l5.4,2.47,11,5"/><path class="cls-5" d="M237.32,145.69c-.18.15-.37.29-.53.43-11.19,8.91-18-2.63-18-2.63V129.17"/><path class="cls-5" d="M251.1,53.09c3.16-7.79-1.92-17.21-11.35-21s-19.62-.58-22.79,7.22a14,14,0,0,0,.9,11.89,19.18,19.18,0,0,0,5.11,6"/><path class="cls-5" d="M231.29,72.39s0,0-.06.06a20.72,20.72,0,0,0-4.71,12.18q-.06.74-.06,1.5a23.62,23.62,0,0,0,.21,3.16h0c1.2,8.8,7.38,15.53,14.89,15.86a16.59,16.59,0,0,0-9.66,15.28,17.33,17.33,0,0,0,.71,4.93,16.59,16.59,0,0,0,4.83,7.67,12.8,12.8,0,0,0-2.16,7.12,12.52,12.52,0,0,0,1.49,6,12.78,12.78,0,0,0,9.54,6.69,15.49,15.49,0,0,0,30.25.88,25.19,25.19,0,0,0,10,3.2,23.81,23.81,0,0,0,2.68.14c13.63,0,24.7-10.46,24.7-23.36,0-10.46-7.27-19.31-17.32-22.28,7.74.07,14.51-3.45,17-9.71,3.57-8.81-2.69-19.68-14-24.24a24.94,24.94,0,0,0-17.74-.7,15.36,15.36,0,0,0,4.7-6.24c3.58-8.82-1.75-19.32-11.87-23.41-9.14-3.71-19.08-1-23.56,6.1a13.53,13.53,0,0,0-1.09,2"/><path class="cls-5" d="M219.12,57a9.87,9.87,0,0,0-1.27-5.78A16.71,16.71,0,0,0,209.34,44c-7.29-3-15-1-17.12,4.38-1.88,4.63.95,10.27,6.42,13.64-6.22,2-18,7-13.33,20.34,2.34,6.66,7.61,6.73,12.46,5a34,34,0,0,0,7.4-3.93,5,5,0,0,0,2.3-3.57c.11-1.23,1.37-2.56,6.86-1.46,8.65,1.7,16.11-5.14,16.9-5.89"/><path class="cls-5" d="M286.57,156.88h0c.62.58,16.75,15.5,15.52,17.28-.37.52-2.12,3.09-4.49,6.5-2.1,3-4.69,6.65-7.26,10.13-4.87,6.62-9.68,12.59-10.91,12.26-1.44-.41-5.15-5.52-8.45-10-2.67-3.68-5.07-6.95-5.72-6.95"/><path class="cls-5" d="M189.65,178.14s2.88-1.38,2,29.07c-.25,8.94-.85,20.63-1.93,35.91,0,.24,0,.47,0,.72"/><path class="cls-5" d="M189.7,243.12s5.58.85,14.19,1.7a314.34,314.34,0,0,0,38.45,1.68q3.42-.08,6.83-.28a131.75,131.75,0,0,0,19.4-2.38c1.31-.26,2.6-.55,3.86-.88,1.55-.39,3.05-.82,4.5-1.3.86-.28,1.69-.57,2.51-.88S271,193,271,193"/><path class="cls-5" d="M204,243.84s-.06.34-.14,1c-1.26,8.69-10.4,72.66-9.59,89.81.88,18.42,6.54,120.76,6.54,120.76l16.54-1.47L232,452.61l11.39-1L226.8,337.52,234,287l2.55,49.82,20.57,112.27,17.94-2.73,14.12-2.14,15.4-2.35"/><polyline class="cls-5" points="268.57 243.84 269.2 250.21 270.97 268.31 270.97 268.32 271.62 274.83 277 329.76 304.62 441.85"/><path class="cls-5" d="M217.34,453.44s0,.17,0,.48c.26,3.83,1.25,29.67-18.35,31.63l-11.72,2.73s-4.46,3.32-2.63,10.58,35.64-3.32,35.64-3.32-.52-12.72,8-12.1,6.94,10,6.94,10l5-1.21s-.26-1.4-.73-3.74C238.06,481,234.67,464,232,452.61c0-.23-.09-.44-.15-.66"/><path class="cls-5" d="M275,445.56s0,.28.06.78c.26,4.63.72,28.58-17.85,30.44l-11.42,2.65s-3.62,2.7-2.88,8.58a13,13,0,0,0,.34,1.72c1.77,7.06,34.65-3.23,34.65-3.23s-.49-12.37,7.77-11.78,6.75,9.71,6.75,9.71l4.85-1.18s-4.73-24.63-8.09-39.05c0,0,0-.07,0-.1"/><path class="cls-5" d="M290.35,190.8l16.75,17a4.94,4.94,0,0,1,.72,7c-6,7.29-19.19,23.52-28.05,36.67-4.84,7.17-8.39,13.43-8.8,16.81"/><path class="cls-5" d="M277.38,276.7s0,0,0,0c.35.39,6.93,7.65,10.42,5.17s-5.07-1.94-8.79-7.35c0,0,6.43,2.57,7.58,1.28s-4.45-3.65-7.11-5.48l1.2-2c8.68-14.7,30.15-37.53,36.65-50.9s-19.73-36.74-19.73-36.74"/><path class="cls-5" d="M271.62,274.83s3.26,17.39,7.77,14.13c0,0-1.77-1.46-2.78-7.82,0,0,2.7,6.42,7.05,5.54a.92.92,0,0,0,.38-1.63c-1.34-1-3.68-3.35-6.65-8.33"/><path class="cls-5" d="M175.32,199.71s2.17,85.12,0,101.91c0,0-5.22,9.87-9.55,11.77s4.33,3.8,8.53-2.85c0,0-5,15.57-3.86,17.07.88,1.13,3.48-5,4.46-8.31l.62-1.74.5-1.42"/><path class="cls-5" d="M183.24,312.85a1.11,1.11,0,0,1,0,.18v.06c-.14,2-1.13,16.64-1.88,16.14s-2.17-3.09-2.27-11.19c0-1.39,0-2.93.1-4.65"/><path class="cls-5" d="M186.29,204.75h0c0,.62-.1,18.56-.32,39-.31,27.53-.84,59.63-1.72,60.25l2.64,9.75s.27,11.64-2,13.67c-2.14,1.88-1.71-12.38-1.64-14.38"/><path class="cls-5" d="M175.52,317.56s-1.54,13.07-.41,13.11,1,4.95,4-12.63a.08.08,0,0,0,0,0"/><polyline class="cls-5" points="207.23 144.57 249.16 246.22 253.54 256.84"/><polyline class="cls-5" points="200.84 146.39 242.34 246.5 247.78 259.61"/><path class="cls-5" d="M276.93,241.66l1.76,4.38-4.12,1.81c-1.51.67-3.35,1.46-5.37,2.36l-15.56,6.84c-2.18,1-4.18,1.85-5.85,2.57l-4.12,1.85S255,277,267.22,270.59a29.55,29.55,0,0,0,3.75-2.27c6.87-4.78,9.21-10.75,8.8-16.82a22.87,22.87,0,0,0-1.08-5.46"/><polyline class="cls-5" points="272.43 242.96 274.57 247.84 274.57 247.86"/></g><path d="M53.16,381.28H48.52V350.74h6.82V375.3h1.25a91.21,91.21,0,0,0,16.23-1.62c.32,1.82.58,3.7.84,5.41A103,103,0,0,1,53.16,381.28Zm30.12-17.74h6.77v5.67H83.28v23.36h-7V346.21h7Z"/><path d="M115.49,390.44V369.05h-2.86c-.57,7.29-3.43,14.36-10.09,14.36-7.44,0-10.2-8.89-10.2-17.12,0-8,2.76-16.75,10.2-16.75,6.45,0,9.31,6.5,10,13.48h3V347.09h6.35v43.35Zm-12.9-34.5c-2.81,0-3.7,5-3.7,10.46s.89,10.4,3.7,10.4,3.75-4.89,3.75-10.4S105.45,355.94,102.59,355.94ZM125,392.57V346.21h6.45v46.36Z"/><path d="M155.41,363.12h4.83V347h6.46v43.45h-6.46v-21.7h-6.92a34.51,34.51,0,0,1-13.53,14.31L135.68,378c9.11-5.2,13.38-12.44,14.31-20.92H138.44v-5.41h18.32A41,41,0,0,1,155.41,363.12ZM170,392.57V346.21h6.46v46.36Z"/><path d="M208.17,349.18c6.61,0,10.87,5.46,11.76,13.52h7.18V346.21h7v46.36h-7v-24H220c-.73,8.17-5.1,14-11.81,14-7.39,0-12-7-12-16.6C196.15,356.2,200.78,349.18,208.17,349.18Zm0,6.08c-3,0-5.41,3.59-5.41,10.67s2.39,10.61,5.41,10.61,5.51-3.64,5.51-10.61S211.24,355.26,208.17,355.26Z"/><path d="M245.58,392.36V380H270.4v-1.87H245.58v-5.47h12.54V370H240.59v-5.52h41.88V370H264.94v2.65h12.38v12.13H252.45v2h26v5.57Zm15.92-45.21c10.25,0,16.5,3.27,16.5,8s-6.25,8-16.5,8-16.44-3.28-16.44-8S251.25,347.15,261.5,347.15Zm0,11c5.68,0,9.27-1.2,9.27-2.92s-3.59-3-9.27-3-9.21,1.35-9.21,3S255.78,358.18,261.5,358.18Z"/><path d="M314.16,380.45c-4.63,1.09-13.58,1.51-21.23,1.51-1.56,0-3.48-.06-4.63-.06V362.13h14.26v-6.71H288.2v-5.36h21.28v17.48H295.22v8.74c4.43.16,12.91-.1,18.22-1.35Zm9.89-34.24v46.36h-6.92V346.21Z"/><path d="M330.61,374.1v-5.52h41.88v5.52Zm5.15,17.22V377.59h6.92V386h25v5.36Zm.36-26.69V347.72h7v11.55h24.35v5.36Z"/><path d="M410.22,347.15c10.25,0,16.55,3.79,16.55,9,0,4.58-5,8.17-13.27,8.9v3.12h17.69v5.41H389.3v-5.41h17.38v-3.12c-8.11-.79-12.9-4.38-12.9-8.9C393.78,350.94,400,347.15,410.22,347.15Zm14.78,46c-6.92-1.14-12.28-4.42-14.83-8.48-2.19,4.06-8.85,7.7-15,8.43l-3-5.36c7.7-.62,14.72-4.89,14.72-11.44v-.58h6.71v.58c0,6.76,7,10.4,14.52,11.44ZM410.22,360.1c5.78,0,9.37-1.61,9.37-3.9s-3.65-3.85-9.37-3.85S401,353.91,401,356.2,404.5,360.1,410.22,360.1Z"/><path class="cls-10" d="M62.92,418.28V407.83h1.22v9.36A39.43,39.43,0,0,0,72,416.4l.19,1.1A51.9,51.9,0,0,1,62.92,418.28Zm12-4.54v8.89H73.66V406h1.21v6.69h2.78v1Z"/><path class="cls-10" d="M84.1,418.79c-1.95.09-3.89.15-5.15.17l-.2-1.12c1.23,0,3.25,0,5.3-.11,2.28-.1,4.59-.23,5.72-.38l.11,1C88.53,418.52,86.23,418.68,84.1,418.79Zm-.19-3.72c-2.43,0-4.33-1.66-4.33-3.78,0-2.3,2-3.86,4.33-3.86s4.32,1.46,4.32,3.86S86.27,415.07,83.91,415.07Zm0-6.58a2.9,2.9,0,0,0-3.09,2.8,3.1,3.1,0,1,0,3.09-2.8ZM92.14,406v16.61H90.92V406Z"/><path class="cls-10" d="M106.9,419.21v-3.35H100v-1h15v1h-6.92v3.35Zm-4.85-6.27v-6.25h1.22v2.15h8.55v-2.15H113v6.25Zm0,9.12v-4.45h1.22V421h10v1Zm9.77-12.2h-8.55v2h8.55Z"/><path class="cls-10" d="M121.29,422.13v-5.94c-1.57.07-3.15.09-4.73.13l-.19-1.12c2,0,3.81,0,5.61-.08,2-.07,4-.19,5.6-.36l.12,1c-1.22.15-3.31.29-5.19.38v6Zm.52-8.45c-2.47,0-4.26-1.37-4.26-3.36s1.79-3.42,4.26-3.42,4.23,1.35,4.23,3.42S124.28,413.68,121.81,413.68Zm0-5.72c-1.67,0-3.08.84-3.08,2.36s1.41,2.3,3.08,2.3,3.06-.86,3.06-2.3S123.48,408,121.81,408Zm6.95,14.67V406H130v16.61Z"/><path class="cls-10" d="M133.81,419.21l-.74-1c4.24-2.11,6.75-5.53,7.05-9.37h-6.34v-1h7.67C141.36,413.34,137.86,417,133.81,419.21Zm11.38,3.42V406h1.22v16.61Z"/><path class="cls-10" d="M149.33,414.86v-1h15v1Zm1.88,7.41v-3.56h10v-1.42h-10v-1h11.25v3.32h-10v1.58H163v1Zm.14-9.88V409h9.76V407.6h-9.78v-1h11V410h-9.77v1.41h10.05v1Z"/><path class="cls-10" d="M170.76,420.5v-1.05h4.18v-3.81h1.21v3.81h4.14v-3.81h1.22v3.81h4.24v1.05Zm1.48-11.87v-1.05h11.95v1.05Zm0,6.15v-1h2.7l-.48-4.07,1.29-.21.35,4.28h4.23l.55-4.24,1.2.21-.59,4h2.7v1Z"/><path class="cls-10" d="M187.25,410.3v-1.05h9.34v1.05Zm4.8,6.57c-2.16,0-3.8-1.1-3.8-2.89s1.64-2.87,3.8-2.87,3.8,1.09,3.8,2.87S194.24,416.87,192.05,416.87Zm0-4.71c-1.39,0-2.6.65-2.6,1.82s1.21,1.85,2.6,1.85,2.6-.67,2.6-1.85S193.46,412.16,192.05,412.16Zm-2.43-4.31V406.8h4.73v1.05Zm.44,14.19v-4.31h1.21V421h9.8v1Zm6.49-11.25h2.95V406h1.21v12.41H199.5v-3.25h-2.95v-1h2.95v-2.31h-2.95Z"/><path class="cls-10" d="M203.56,411.08v-1h9.71v1Zm5,8c-2.3,0-3.84-1.49-3.84-3.37s1.54-3.4,3.84-3.4,3.82,1.49,3.82,3.4S210.86,419,208.56,419ZM206,408.32v-1.08h4.81v1.08Zm2.61,5a2.37,2.37,0,1,0,2.6,2.35A2.42,2.42,0,0,0,208.56,413.32Zm7.75.82v8.49h-1.22V406h1.22v7.07h2.77v1.05Z"/><path class="cls-10" d="M220.05,415.75v-1h15v1Zm2.09,6.46v-4.83h1.2v3.78h9.95v1Zm0-9.86v-5.76h1.2v4.71h9.87v1.05Z"/><path class="cls-10" d="M242.23,418.45v-10.7H250v1.05h-6.52v8.56a38.11,38.11,0,0,0,8-.53l.17,1.05A47.33,47.33,0,0,1,242.23,418.45Zm11.94-4.71v8.89H253V406h1.22v6.69h2.77v1Z"/><path class="cls-10" d="M266.47,410.79a4.17,4.17,0,1,1-4.16-3.82A3.91,3.91,0,0,1,266.47,410.79Zm-7.08,0a2.75,2.75,0,0,0,2.92,2.81,2.79,2.79,0,1,0,0-5.58A2.74,2.74,0,0,0,259.39,410.79Zm5.94,11.74c-3.61,0-5.41-1.25-5.41-3.09s1.8-3.1,5.41-3.1,5.46,1.27,5.46,3.1S268.94,422.53,265.33,422.53Zm-4.16-3.09c0,1.27,1.54,2.07,4.16,2.07s4.2-.76,4.2-2.07-1.58-2.09-4.2-2.09S261.17,418.18,261.17,419.44Zm12-6.16H270.6v2.83h-1.22V406h1.22v2.64h2.58v1H270.6v2.53h2.58Z"/><path class="cls-10" d="M274.28,410.26v-1h9.52v1ZM279,417c-2.17,0-3.8-1.12-3.8-2.89s1.61-2.87,3.8-2.87,3.8,1.06,3.8,2.87S281.2,417,279,417Zm0-4.73c-1.41,0-2.6.66-2.6,1.84s1.19,1.84,2.6,1.84,2.6-.68,2.6-1.84S280.42,412.22,279,412.22Zm-2.38-4.37V406.8h4.73v1.05Zm.1,14.19v-4.16H278V421h9.79v1ZM287,412.88v5.28h-1.22V406H287v5.84h2.58v1Z"/><path class="cls-10" d="M295.76,420.14v-1.05h6V414.8H303v4.29h7.73v1.05Zm12.94-10.35a36,36,0,0,1-.63,7.21l-1.18-.17a28.07,28.07,0,0,0,.46-4.08l-9.84.55-.23-1.08,10.11-.46c0-.46,0-.91,0-1.35v-1.54h-9.73v-1h11Z"/><path class="cls-10" d="M313.26,418.39V407.71H321v1h-6.54v8.55a48.37,48.37,0,0,0,7.94-.55l.19,1A60.36,60.36,0,0,1,313.26,418.39Zm11.19,4.24V406h1.21v16.61Z"/><path class="cls-10" d="M345.85,415.05h2.76v1h-4.05v6.58h-1.21v-6.58h-4.51v6.58h-1.21v-6.58h-4v-1h11a21.23,21.23,0,0,0,.47-3.5l-9.67.48-.23-1.07,10-.38c0-1,.06-1.86.06-2.41h-9.58v-1h10.83A37.14,37.14,0,0,1,345.85,415.05Z"/><path class="cls-10" d="M350.58,418.43v-6h4.81v-3.4h-4.85v-1h6.06v5.47h-4.8v3.87a32.7,32.7,0,0,0,5.85-.45l.15,1A37.63,37.63,0,0,1,350.58,418.43Zm9.12,3.32v-8.18h-2.51v-1.05h2.51v-6.08h1.22v15.31Zm3.12.88V406H364v16.61Z"/><path class="cls-10" d="M371.3,407.33c2.63,0,4.07,2.3,4.07,5.84S373.93,419,371.3,419s-4-2.32-4-5.85S368.7,407.33,371.3,407.33Zm0,1.09c-1.72,0-2.85,2-2.85,4.75s1.13,4.73,2.85,4.73,2.89-2,2.89-4.73S373.05,408.42,371.3,408.42Zm7.47,14.21V406H380v16.61Z"/><path class="cls-10" d="M391.86,415.58a8.26,8.26,0,0,1-4.14-4.12,9,9,0,0,1-4.18,4.69l-.74-.95c2.14-1,4.29-3.29,4.29-6V407h1.2v2.17c0,2.83,2.3,4.67,4.29,5.41Zm-6,6.52v-5h1.21v4h9.75v1Zm6.13-10h3.25v-2.51H392v-1h3.25V406h1.22v12h-1.22v-4.84H392Z"/></svg>