<svg id="레이어_1" data-name="레이어 1" xmlns="http://www.w3.org/2000/svg" viewBox="0 0 480 480"><defs><style>.cls-1{fill:#fff;}.cls-2{fill:#f2f2f2;}.cls-3,.cls-4{fill:none;stroke:#000;stroke-miterlimit:10;}.cls-4{stroke-width:5px;}.cls-5{fill:#e0e0e0;}.cls-6{fill:#ededed;}.cls-7{fill:#3f3f3f;}</style></defs><path class="cls-1" d="M374,101.65s23.06,6.8,24.2-17.38c0,0,19.06-11.46,37,4.59,0,0-10.47,14.9-12.26,15.08a39.68,39.68,0,0,1-6.64-.71s21.8,25.15,25.32,25.48c0,0-27.39,24.89-51.23,26.53l-9-29.48L379,138.39l-16.89,2.92S356,108.9,374,101.65Z"/><path class="cls-1" d="M171.55,192.58c5.75-.19,0-28.38,0-28.38s-7-8.82,1.28,18.51C168,192.2,171.55,192.58,171.55,192.58Z"/><path class="cls-1" d="M321.88,284.63s29.15.95,31.46,47c0,0-203.38,23.66-256.57-13-33.75-23.28,29.91-36.05,29.91-36.05,17.38,2.93,30.37,2.62,40,.34,73.8,78.95,103.58-5.26,103.58-5.26C280.52,281.69,296.67,284.58,321.88,284.63Z"/><path class="cls-1" d="M197.23,88.45c-.14-.08-1.28-.76-3.17-1.76-12.75-10.34-17.5-55.42,11.58-51.15,19.67,2.88,25.32,18.69,26.79,30.11a47,47,0,0,0,.26,12.07,55.26,55.26,0,0,0-.26-12.07c1.26-11.3,7.72-25.39,33.66-17.84C306.29,59.51,277,88.67,276,89.6c.62-.44,16.14-11.2,27.55,1.21,11.65,12.66,13,21.8,5.15,38a28.56,28.56,0,0,1-1.79,3c-12.73,19.72-13,26.18-12.87,27.39a24.78,24.78,0,0,0-1.51-5.14c-7.85-18.6-15.73,13.42-15.73,13.42s0-13.23-3.64-21.09-7.67-2.69-23.77,1.86-27.62-9.91-43.77-11.45-27.08,35.29-27.08,35.29-1.83-24.93-13-14.58c0,0-20.82-5.75-23.5-18.41s20.71-11.89,20.71-11.89-40.65-11.89-25.31-38.73c12.86-22.5,46.19-7.28,56.64-1.77A9.36,9.36,0,0,0,197.23,88.45Z"/><path class="cls-1" d="M179.92,208.67c-8.9,9.57-29.08-34.31-16.23-49.26a24.75,24.75,0,0,1,1.83-1.92c11.21-10.35,13,14.58,13,14.58s10.93-36.82,27.08-35.29,27.66,16,43.77,11.45,20.12-9.72,23.77-1.86,3.64,21.09,3.64,21.09,7.88-32,15.73-13.42a24.78,24.78,0,0,1,1.51,5.14v0a1.76,1.76,0,0,0,0,.21c3.56,19.66-10.28,50.92-18.1,45-4,23.94-12,37.47-19.67,45.13-6.68,6.68-13.12,8.88-16.46,9.6a16.3,16.3,0,0,1-3.48.34c-20.82-.27-34.21-8-42.79-18.31h0C185.46,231.38,181.64,219.18,179.92,208.67Zm26-41.25s-2.12,15.86,6.12,14.33,7.84-10.21,7.61-11.68C217.28,168.92,211.82,166.67,205.89,167.42Zm49.37-2.76s-6.34,12.58,1.33,16.8,9.5-14.19,9.5-14.19A32.76,32.76,0,0,0,255.26,164.66Zm27.65,17.43c6.4-29.11,2.43-22.68,2.43-22.68s-10,27-1.23,30.87C284.11,190.28,282.43,184.3,282.91,182.09Z"/><path class="cls-1" d="M294.06,159.2a1.3,1.3,0,0,1,0,.21A1.76,1.76,0,0,1,294.06,159.2Z"/><path class="cls-1" d="M285.34,159.41s4-6.43-2.43,22.68c-.48,2.21,1.2,8.19,1.2,8.19C275.29,186.44,285.34,159.41,285.34,159.41Z"/><path class="cls-1" d="M253.91,261.31c.84,5.39,4.77,11.62,16.4,16.28,0,0-29.78,84.21-103.58,5.26,23.05-5.43,27.34-22,27.62-32.53.62.52,34.77,29.65,59.37,11Z"/><path class="cls-1" d="M266.09,167.27s-1.82,18.41-9.5,14.19-1.33-16.8-1.33-16.8A32.76,32.76,0,0,1,266.09,167.27Z"/><path class="cls-1" d="M253.91,261.31l-.19,0c-24.6,18.63-58.75-10.5-59.37-11a39,39,0,0,0-.75-9.13c8.58,10.34,22,18,42.79,18.31a16.3,16.3,0,0,0,3.48-.34c3.34-.72,9.78-2.92,16.46-9.6A18.48,18.48,0,0,0,253.91,261.31Z"/><path class="cls-1" d="M232.43,65.65a55.26,55.26,0,0,1,.26,12.07A47,47,0,0,1,232.43,65.65Z"/><path class="cls-1" d="M219.62,170.07c.23,1.47.64,10.15-7.61,11.68s-6.12-14.33-6.12-14.33C211.82,166.67,217.28,168.92,219.62,170.07Z"/><path class="cls-1" d="M194.06,86.69c1.89,1,3,1.68,3.17,1.76A9.36,9.36,0,0,1,194.06,86.69Z"/><path d="M171.5,192.41c5.76-.19,0-28.37,0-28.37s-7-8.83,1.28,18.5C168,192,171.5,192.41,171.5,192.41Z"/><path d="M276,89.43c.61-.44,16.13-11.19,27.55,1.21,11.65,12.66,13,21.81,5.14,38a28,28,0,0,1-1.79,3c-12.73,19.71-13,26.17-12.86,27.38a25.4,25.4,0,0,0-1.51-5.14c-7.86-18.6-15.73,13.43-15.73,13.43s0-13.24-3.64-21.1-7.68-2.68-23.78,1.86-27.62-9.91-43.77-11.44-27.07,35.28-27.07,35.28-1.84-24.93-13-14.57c0,0-20.82-5.76-23.51-18.42S162.68,127,162.68,127,122,115.14,137.38,88.29C150.23,65.79,183.56,81,194,86.52a9.19,9.19,0,0,0,3.17,1.76c-.14-.08-1.27-.76-3.17-1.76-12.74-10.33-17.51-55.41,11.58-51.15,19.67,2.88,25.32,18.7,26.79,30.12a46.68,46.68,0,0,0,.27,12.06,54.85,54.85,0,0,0-.27-12.06c1.26-11.31,7.73-25.4,33.66-17.85C306.24,59.34,276.9,88.51,276,89.43Z"/><path d="M285.29,159.24s4-6.42-2.43,22.68c-.48,2.22,1.21,8.2,1.21,8.2C275.24,186.28,285.29,159.24,285.29,159.24Z"/><path d="M266,167.1s-1.82,18.41-9.5,14.19-1.33-16.79-1.33-16.79A32.42,32.42,0,0,1,266,167.1Z"/><path class="cls-2" d="M253.86,261.14l-.18,0c-24.61,18.64-58.76-10.5-59.37-11a40.48,40.48,0,0,0-.75-9.13c8.58,10.35,22,18,42.78,18.31a15.77,15.77,0,0,0,3.49-.34c3.33-.72,9.77-2.92,16.45-9.6A18.41,18.41,0,0,0,253.86,261.14Z"/><path d="M219.58,169.91c.22,1.46.63,10.14-7.62,11.67s-6.13-14.33-6.13-14.33C211.78,166.5,217.24,168.75,219.58,169.91Z"/><path class="cls-3" d="M193.56,241c8.58,10.35,22,18,42.78,18.31a15.77,15.77,0,0,0,3.49-.34c3.33-.72,9.77-2.92,16.45-9.6,7.67-7.65,15.66-21.18,19.67-45.13a184.83,184.83,0,0,0,2.17-19.32"/><path class="cls-3" d="M178.79,184.94a99.15,99.15,0,0,0,1.08,23.56c1.72,10.51,5.54,22.71,13.69,32.52"/><path class="cls-3" d="M294,159.11a.3.3,0,0,1,0,.13c3.56,19.67-10.28,50.93-18.1,45"/><path class="cls-3" d="M179.87,208.5c-8.89,9.57-29.08-34.3-16.23-49.26a21.34,21.34,0,0,1,1.84-1.91c11.2-10.36,13,14.57,13,14.57s10.92-36.82,27.07-35.28,27.66,16,43.77,11.44,20.13-9.72,23.78-1.86,3.64,21.1,3.64,21.1,7.87-32,15.73-13.43A25.4,25.4,0,0,1,294,159"/><path class="cls-4" d="M193.56,160.2s10.73,5,29.91-2.87"/><path class="cls-4" d="M244.75,157.33s14.19-6.91,25.5-1.35"/><path class="cls-3" d="M241.68,160.58s-8.82,16.11,7.87,38c0,0,5,7.59-6,7l-.4,0"/><path class="cls-3" d="M241.78,191.45s3.3,9.31,1.75,14.12c-.61,1.91-2,3.12-4.62,2.76-9.3-1.25-12,.39-13.42.67s-6.72.09-2.6-11.12a5.79,5.79,0,0,1,5.43-3.16"/><path class="cls-3" d="M220.78,170.55s-.43-.26-1.2-.64c-2.34-1.16-7.8-3.41-13.75-2.66-4.66.59-9.63,3-13.62,9.28"/><path class="cls-3" d="M205.83,167.25s-2.11,15.87,6.13,14.33,7.84-10.21,7.62-11.67"/><path class="cls-3" d="M255.21,164.5c-10.8-.52-15.44,6.44-15.44,6.44"/><path class="cls-3" d="M255.21,164.5s-6.33,12.58,1.33,16.79S266,167.1,266,167.1A32.42,32.42,0,0,0,255.21,164.5Z"/><path class="cls-3" d="M209.85,224.05s31.65-3.45,41.61,0c0,0,3.65-10-26.07-5.17"/><path class="cls-3" d="M222.13,229s7.86,10.55,24.73,0"/><path class="cls-3" d="M193.56,241h0a40.48,40.48,0,0,1,.75,9.13c-.28,10.53-4.58,27.1-27.63,32.52-9.67,2.29-22.66,2.6-40.05-.33,0,0-24.54-4.6-29.91,36.06"/><path class="cls-3" d="M256.28,249.39a18.41,18.41,0,0,0-2.42,11.75c.84,5.4,4.77,11.63,16.39,16.28,10.21,4.11,26.37,7,51.59,7.05,0,0,29.15.94,31.45,47"/><path class="cls-3" d="M270.25,277.42s-29.77,84.21-103.57,5.26"/><path class="cls-3" d="M276,89.44h0c.61-.44,16.13-11.19,27.55,1.21,11.65,12.66,13,21.81,5.14,38a28,28,0,0,1-1.79,3c-12.73,19.71-13,26.17-12.86,27.38a.31.31,0,0,0,0,.1,1.11,1.11,0,0,0,0,.13"/><path class="cls-3" d="M232.38,65.49c1.26-11.31,7.73-25.4,33.66-17.85,40.2,11.7,10.86,40.87,9.94,41.79"/><path class="cls-3" d="M232.38,65.49a54.85,54.85,0,0,1,.27,12.06A46.68,46.68,0,0,1,232.38,65.49Z"/><path class="cls-3" d="M197.2,88.29h0A9.19,9.19,0,0,1,194,86.52c-12.74-10.33-17.51-55.41,11.58-51.15,19.67,2.88,25.32,18.7,26.79,30.12"/><path class="cls-3" d="M165.48,157.33s-20.82-5.76-23.51-18.42S162.68,127,162.68,127,122,115.14,137.38,88.29C150.23,65.79,183.56,81,194,86.52c1.9,1,3,1.68,3.17,1.76"/><path class="cls-5" d="M378.23,100.55s21.7,6.39,22.77-16.37c0,0,17.94-10.78,34.86,4.33,0,0-9.86,14-11.54,14.19a37.36,37.36,0,0,1-6.25-.67s20.52,23.67,23.83,24c0,0-25.78,23.43-48.21,25l-8.52-27.74-2.24,11.88L367,137.87S361.22,107.37,378.23,100.55Z"/><path class="cls-3" d="M374.05,101.65s23.06,6.8,24.19-17.38c0,0,19.07-11.46,37.05,4.59,0,0-10.47,14.9-12.27,15.08a39.66,39.66,0,0,1-6.63-.71s21.79,25.15,25.31,25.48c0,0-27.39,24.89-51.23,26.53l-9-29.48L379,138.39l-16.89,2.92S356,108.9,374.05,101.65Z"/><path class="cls-1" d="M362.46,186.11l-43.89,69s20.07,12.76,21.73,10.27,29.11-43.62,31.11-46.68-6.94,56.07-5.2,56.71,24.06,3.34,24.06,3.34l9.79-80.51Z"/><polyline class="cls-1" points="362.46 186.11 363.37 183.51 400.96 195.4 400.06 198.24"/><path class="cls-1" d="M379.9,193a41.58,41.58,0,0,0-2.59,13.73"/><path class="cls-1" d="M396.79,206.68c-4.62-2.72-3.57-6.73-3.57-6.73l1.11.22a5.17,5.17,0,0,0,3.09,5.43Z"/><path class="cls-1" d="M358.39,194.15a6.24,6.24,0,0,0,6.6-3.35l-1-.57a6.48,6.48,0,0,1-5.16,3.11Z"/><path class="cls-6" d="M366.56,184.81l-43.89,69s20.07,12.76,21.73,10.26,29.11-43.61,31.1-46.67-6.94,56.06-5.19,56.7,24.06,3.35,24.06,3.35l9.78-80.51Z"/><polyline class="cls-6" points="366.56 184.81 367.46 182.21 405.06 194.1 404.15 196.94"/><path class="cls-6" d="M384,191.69a41.63,41.63,0,0,0-2.58,13.73"/><path class="cls-6" d="M400.88,205.38c-4.62-2.72-3.56-6.73-3.56-6.73l1.1.22a5.19,5.19,0,0,0,3.1,5.43Z"/><path class="cls-6" d="M362.49,192.85a6.23,6.23,0,0,0,6.59-3.35l-1-.57A6.48,6.48,0,0,1,363,192Z"/><path class="cls-3" d="M362.91,185.8,319,254.8s20.06,12.76,21.72,10.26,29.11-43.61,31.11-46.68-6.94,56.07-5.2,56.71,24.06,3.35,24.06,3.35l9.79-80.52Z"/><polyline class="cls-3" points="362.91 185.8 363.82 183.2 401.41 195.09 400.51 197.93"/><path class="cls-3" d="M380.35,192.67a41.44,41.44,0,0,0-2.58,13.74"/><path class="cls-3" d="M397.24,206.36c-4.62-2.71-3.57-6.72-3.57-6.72l1.11.22a5.19,5.19,0,0,0,3.09,5.43Z"/><path class="cls-3" d="M358.84,193.84a6.24,6.24,0,0,0,6.6-3.35l-1-.57a6.47,6.47,0,0,1-5.15,3.11Z"/><path d="M335.58,96l7.93-2.42c-6.92-14.73,14-50.26-11.53-47s-11.34,24.68-11.34,24.68L327,68.46s-5.65-12.2,6.21-10.81c0,0,5.37.78,2,14.12a44.8,44.8,0,0,0,.62,24.16"/><circle cx="342.2" cy="102.53" r="4.76"/><path d="M49.81,349.17c6.61,0,10.88,5.47,11.76,13.53h7.18V346.21h7v46.36h-7v-24H61.62c-.73,8.17-5.1,14-11.81,14-7.39,0-12-7-12-16.6C37.79,356.2,42.42,349.17,49.81,349.17Zm0,6.09c-3,0-5.41,3.59-5.41,10.67s2.39,10.61,5.41,10.61,5.52-3.64,5.52-10.61S52.88,355.26,49.81,355.26Z"/><path d="M95.39,366.81l.37,4.95A57.08,57.08,0,0,1,82.54,373V349.59H95V355H89.15v12.59A25.48,25.48,0,0,0,95.39,366.81Zm-6.08,24.62V376.7h7v9.37h25.76v5.36Zm22-24.25.42,5a67.52,67.52,0,0,1-14.36,1V349.59h12.9V355h-6.29v12.91A43.26,43.26,0,0,0,111.26,367.18Zm3.7,12.64V363.43h-6.24v-5.36H115V346.21h6.61v33.61Z"/><path d="M161.84,347.15c10.25,0,16.55,3.79,16.55,9,0,4.58-5,8.17-13.27,8.89v3.13h17.69v5.41H140.92v-5.41H158.3V365c-8.11-.78-12.9-4.37-12.9-8.89C145.4,350.94,151.59,347.15,161.84,347.15Zm14.78,46c-6.92-1.14-12.28-4.42-14.83-8.48-2.19,4.06-8.85,7.7-15,8.43l-3-5.36c7.7-.62,14.72-4.89,14.72-11.44v-.58h6.71v.58c0,6.76,7,10.4,14.52,11.44ZM161.84,360.1c5.78,0,9.37-1.61,9.37-3.9s-3.64-3.85-9.37-3.85-9.26,1.56-9.26,3.85S156.12,360.1,161.84,360.1Z"/><path d="M199.31,349.17c7.7,0,12.23,7,12.23,16.76,0,9.52-4.53,16.6-12.23,16.6s-12.13-7-12.13-16.6C187.18,356.2,191.71,349.17,199.31,349.17Zm0,6.09c-3.12,0-5.57,3.59-5.57,10.67s2.45,10.61,5.57,10.61c3.33,0,5.77-3.64,5.77-10.61S202.64,355.26,199.31,355.26Zm18.26,37.31V346.21h6.87v46.36Z"/><path d="M257.22,349.17c6.61,0,10.88,5.47,11.76,13.53h7.18V346.21h7v46.36h-7v-24H269c-.72,8.17-5.09,14-11.81,14-7.38,0-12-7-12-16.6C245.2,356.2,249.84,349.17,257.22,349.17Zm0,6.09c-3,0-5.41,3.59-5.41,10.67s2.4,10.61,5.41,10.61,5.52-3.64,5.52-10.61S260.29,355.26,257.22,355.26Z"/><path d="M294.64,392.36V380h24.82v-1.87H294.64v-5.47h12.54V370H289.64v-5.52h41.89V370H314v2.65h12.39v12.13H301.51v2h26v5.57Zm15.92-45.21c10.25,0,16.49,3.27,16.49,8s-6.24,8-16.49,8-16.44-3.28-16.44-8S300.31,347.15,310.56,347.15Zm0,11c5.67,0,9.26-1.2,9.26-2.92s-3.59-3-9.26-3-9.21,1.35-9.21,3S304.84,358.18,310.56,358.18Z"/><path d="M345.27,369.52c-2.76,0-5.57-.1-8.38-.16V356.3h14.36V354H336.94V348.6h21.28v12.75H343.91v2.71c1,.05,2.29.1,3.6.1A77.61,77.61,0,0,0,362,362.91c.26,1.77.47,3.49.68,5.2C359.06,369,350.68,369.52,345.27,369.52Zm-3.07,22.69V379.82h24v-2.44H342.25V372H373.1v12.69h-24v2h25.29v5.52ZM366.13,370V346.21h7V370Z"/><path d="M383.83,382.27l-5.26-3.9c6.35-5.94,8.17-15,8.12-21.6H381v-5.83h12.39C393.61,364.68,391,374.62,383.83,382.27ZM397,385.55l-5.51-3.7c5.88-6.87,8.06-17.22,8-25.08h-3.9v-5.83H406C406.36,364.78,404.43,375.87,397,385.55Zm19.15-21.23h6.45V370h-6.45v22.58h-6.71V346.21h6.71Z"/><path d="M429.05,372c0-3.59,1.66-5,5-7.7,2.08-1.62,3-2.81,3-5.36,0-3-1.93-4.17-5.78-4.17a17.7,17.7,0,0,0-6.66,1.2v-5.1a21.14,21.14,0,0,1,8.69-1.56c6.19,0,11,2.55,11,9,0,4.53-1.51,6.19-5.2,9-2.81,2.09-4,2.92-4,5.21V376h-6.08Zm-.37,8.69h7v6.61h-7Z"/><path class="cls-7" d="M53.49,418.14V407.92h1.22v9.14a29.73,29.73,0,0,0,5.62-.55l.23,1A33.5,33.5,0,0,1,53.49,418.14Zm11.82,4.49v-8.89H62.86v8h-1.2V406.44h1.2v6.27h2.45V406h1.21v16.61Z"/><path class="cls-7" d="M80.83,419.21v-3.35H74v-1H89v1H82v3.35ZM76,412.94v-6.25H77.2v2.15h8.55v-2.15H87v6.25Zm0,9.12v-4.45H77.2V421h10v1Zm9.77-12.2H77.2v2h8.55Z"/><path class="cls-7" d="M95.22,422.13v-5.94c-1.57.07-3.15.09-4.73.13l-.19-1.12c2,0,3.8,0,5.61-.08s4-.19,5.6-.36l.12,1c-1.22.15-3.31.29-5.19.38v6Zm.52-8.45c-2.47,0-4.26-1.37-4.26-3.36s1.79-3.42,4.26-3.42,4.23,1.35,4.23,3.42S98.21,413.68,95.74,413.68Zm0-5.72c-1.67,0-3.08.84-3.08,2.36s1.41,2.3,3.08,2.3,3.06-.86,3.06-2.3S97.41,408,95.74,408Zm7,14.67V406h1.22v16.61Z"/><path class="cls-7" d="M107.74,419.21l-.74-1c4.24-2.11,6.74-5.53,7-9.37H107.7v-1h7.68C115.28,413.34,111.79,417,107.74,419.21Zm11.38,3.42V406h1.22v16.61Z"/><path class="cls-7" d="M130.61,412.65h2.19v-6.3H134v15.46H132.8v-8.13h-2.19c-.13,3.11-1.37,5-3.47,5-2.26,0-3.52-2.14-3.52-5.58s1.26-5.57,3.52-5.57S130.5,409.52,130.61,412.65Zm-3.47-4c-1.41,0-2.28,1.69-2.28,4.5s.87,4.52,2.28,4.52,2.26-1.69,2.26-4.52S128.52,408.63,127.14,408.63Zm8.89,14V406h1.21v16.61Z"/><path class="cls-7" d="M149,407.24c2.45,0,3.87,2,4,5.24H157V406h1.21v16.61H157v-9.1h-3.95c-.12,3.26-1.54,5.34-4,5.34s-4.05-2.28-4.05-5.82S146.41,407.24,149,407.24Zm0,1.08c-1.73,0-2.85,2-2.85,4.75s1.12,4.73,2.85,4.73,2.87-2,2.87-4.73S150.75,408.32,149,408.32Z"/><path class="cls-7" d="M163.05,422.34v-3.63H173v-1.57H163v-1h5v-1.86h-6.85v-1h15v1h-6.92v1.86h5v3.57h-9.92v1.66h10.56v1Zm5.57-10.26c-3.42,0-5.62-.89-5.62-2.83s2.2-2.83,5.62-2.83,5.64.91,5.64,2.83S172.1,412.08,168.62,412.08Zm-4.37-2.83c0,1.24,1.73,1.85,4.37,1.85s4.43-.61,4.43-1.85-1.79-1.84-4.43-1.84S164.25,408,164.25,409.25Z"/><path class="cls-7" d="M178.54,418.58v-6.23h6.34v-3.72h-6.42v-1.05h7.64v5.8h-6.35v4.16a49.24,49.24,0,0,0,8.34-.57l.15,1.06A61.82,61.82,0,0,1,178.54,418.58Zm11.3,4.05V406h1.21v16.61Z"/><path class="cls-7" d="M194,415.75v-1h15v1Zm2.09,6.46v-4.83h1.19v3.78h10v1Zm0-9.86v-5.76h1.19v4.71h9.88v1.05Z"/><path class="cls-7" d="M223.48,412.52v2h6.91v1h-15v-1h6.86v-2c-3.13-.11-5-1.14-5-3s2.14-3,5.66-3,5.64,1,5.64,3S226.65,412.43,223.48,412.52Zm5.3,10.05c-2.43-.44-5-2.07-5.91-3.65-.65,1.46-3,3.1-5.78,3.59l-.6-1c3.07-.3,5.77-2.41,5.77-4.29v-.64h1.26v.64c0,1.88,3,4.07,5.85,4.33Zm-5.89-15c-2.64,0-4.39.65-4.39,2s1.75,2,4.39,2,4.42-.64,4.42-2S225.55,407.54,222.89,407.54Z"/><path class="cls-7" d="M232.14,419.26h1.54L232.29,423h-.89Z"/><path class="cls-7" d="M248.93,415.9v3.46h6.91v1h-15v-1h6.85V415.9c-3.13-.17-5.16-1.84-5.16-4.33,0-2.66,2.29-4.39,5.77-4.39s5.81,1.73,5.81,4.39C254.13,414.06,252.08,415.73,248.93,415.9Zm-.61-7.64c-2.75,0-4.58,1.35-4.58,3.31s1.83,3.29,4.58,3.29,4.62-1.33,4.62-3.29S251.11,408.26,248.32,408.26Z"/><path class="cls-7" d="M257.29,420.14v-1.05h6V414.8h1.21v4.29h7.74v1.05Zm12.93-10.36a36.76,36.76,0,0,1-.62,7.22l-1.18-.17a29.76,29.76,0,0,0,.46-4.08l-9.85.55-.22-1.08,10.1-.46c0-.46,0-.91,0-1.35v-1.54h-9.72v-1h11Z"/><path class="cls-7" d="M281.07,412.65h2.18v-6.3h1.22v15.46h-1.22v-8.13h-2.18c-.13,3.11-1.37,5-3.48,5s-3.51-2.14-3.51-5.58,1.25-5.57,3.51-5.57S281,409.52,281.07,412.65Zm-3.48-4c-1.4,0-2.28,1.69-2.28,4.5s.88,4.52,2.28,4.52,2.26-1.69,2.26-4.52S279,408.63,277.59,408.63Zm8.89,14V406h1.22v16.61Z"/><path class="cls-7" d="M299.27,418.52a11.24,11.24,0,0,1-4.13-5.24A11.6,11.6,0,0,1,291,419l-.84-.91a9.42,9.42,0,0,0,4.41-7.33v-3.25h1.25v3.23a8.38,8.38,0,0,0,4.28,6.89Zm3.19,4.11v-9.54h-3.93v-1h3.93v-6h1.21v16.61Z"/><path class="cls-7" d="M318.43,422.65v-5.42h-6.86v-1h15v1h-6.91v5.42Zm6.76-7.75c-2.9-.54-5.41-2.06-6.13-3.56-.63,1.5-3,3.12-6.08,3.61l-.55-1c2.66-.3,5.74-1.84,6-4h-5.3v-1H325v1h-5.27c.27,2.15,3.59,3.63,6,3.92Zm-8.83-7.45v-1h5.42v1Z"/><path class="cls-7" d="M337.14,416.3a7.7,7.7,0,0,1-4.16-3.53,7.28,7.28,0,0,1-4.25,4l-.65-.95c2.15-.61,4.29-2.83,4.29-4.83v-.36h-3.82v-1h8.82v1h-3.76v.34c0,2,2.22,3.94,4.18,4.37Zm-6.4-8.53v-1h4.43v1Zm.17,14.27v-4.9h1.22V421h9.76v1Zm10.62-3.88h-1.22v-5.37H337.1v-1h3.21V406h1.22Z"/><path class="cls-7" d="M344.38,409.58v-1h9.48v1Zm4.69,6.28c-2.13,0-3.72-1-3.72-2.73s1.57-2.74,3.72-2.74,3.72,1,3.72,2.74S351.22,415.86,349.07,415.86Zm0-4.44c-1.35,0-2.53.63-2.53,1.71s1.2,1.73,2.53,1.73,2.53-.65,2.53-1.73S350.42,411.42,349.07,411.42Zm-2.32-4.05v-1.08h4.73v1.08Zm0,15v-5.93H348v1.79h7.9v-1.79h1.22v5.93Zm9.12-3.1H348v2.07h7.9Zm1.22-7.33v3.72h-1.22V406h1.22v4.92h2.58v1Z"/><path class="cls-7" d="M362,418.45V407.73h1.21v9.63a49.53,49.53,0,0,0,8.15-.77l.18,1A53.63,53.63,0,0,1,362,418.45ZM373,422.63V406h1.21v16.61Z"/><path class="cls-7" d="M378.06,418.45v-10.7h7.73v1.05h-6.52v8.56a38.11,38.11,0,0,0,8-.53l.17,1.05A47.23,47.23,0,0,1,378.06,418.45ZM390,413.74v8.89h-1.22V406H390v6.69h2.77v1Z"/></svg>