<svg id="레이어_1" data-name="레이어 1" xmlns="http://www.w3.org/2000/svg" viewBox="0 0 480 480"><defs><style>.cls-1{fill:#3f3f3f;}.cls-2{fill:#e8e8e8;}.cls-3,.cls-8{fill:#fff;}.cls-4{fill:#020202;}.cls-12,.cls-13,.cls-5,.cls-6,.cls-7{fill:none;}.cls-12,.cls-13,.cls-5,.cls-6,.cls-7,.cls-8{stroke:#000;stroke-miterlimit:10;}.cls-5{stroke-width:0.25px;}.cls-12,.cls-13,.cls-7{stroke-linecap:round;}.cls-7{stroke-width:4px;}.cls-8{stroke-width:2px;}.cls-9{fill:#fff41f;}.cls-10{fill:#c6c6c6;}.cls-11{fill:#919191;}.cls-12{stroke-width:3px;}.cls-14{fill:#e0e0e0;}</style></defs><path d="M53.29,381.28H48.66V350.74h6.81V375.3h1.25A91.33,91.33,0,0,0,73,373.68c.31,1.83.57,3.7.83,5.42A103.65,103.65,0,0,1,53.29,381.28Zm30.13-17.74h6.76v5.67H83.42v23.36h-7V346.21h7Z"/><path d="M93.2,371.76V350h22v21.75ZM98,391.27V376.55h6.82v9.31h24.5v5.41Zm10.3-35.85H100v10.93h8.37Zm20.09,3.85h6.45v5.67h-6.45v14.88h-6.87V346.21h6.87Z"/><path d="M153,382.37c-5.1.26-10.77.47-14.93.42l-.78-6c5.36,0,10.14,0,14.77-.15,6.25-.16,11.92-.63,15.46-.94l.46,5.41C164.49,381.54,157.78,382.17,153,382.37Zm-.68-33.24c7.18,0,12.75,4.42,12.75,11.08s-5.57,11.08-12.75,11.08-12.54-4.37-12.54-11.08S145.18,349.13,152.31,349.13Zm0,16.7a5.63,5.63,0,1,0,0-11.24,5.63,5.63,0,1,0,0,11.24Zm24.2,26.74h-6.87V346.21h6.87Z"/><path d="M216.63,347.15c10.25,0,16.55,3.8,16.55,9,0,4.58-5,8.17-13.27,8.9v3.12H237.6v5.41H195.71v-5.41h17.38v-3.12c-8.12-.78-12.9-4.37-12.9-8.9C200.19,351,206.38,347.15,216.63,347.15Zm14.78,46.05c-6.92-1.15-12.28-4.43-14.83-8.48-2.19,4-8.85,7.7-15,8.43l-3-5.36c7.7-.63,14.73-4.9,14.73-11.45v-.57H220v.57c0,6.76,7,10.4,14.52,11.45Zm-14.78-33.1c5.77,0,9.36-1.61,9.36-3.9s-3.64-3.85-9.36-3.85-9.26,1.56-9.26,3.85S210.91,360.1,216.63,360.1Z"/><path d="M241.55,349.07H266v5.57h-8.53c.73,6.45,5.1,10.46,10.51,12.28l-3.7,5.41c-3.53-1.14-8.48-5.2-10.19-9.05-1.2,4.11-6.61,8.58-11.09,10l-3.48-5.46c6.5-2.19,10.4-6.66,10.87-13.17h-8.85Zm19.62,43.19c-10.2,0-16.34-3.59-16.34-9.31s6.14-9.53,16.34-9.53,16.44,3.7,16.44,9.53S271.42,392.26,261.17,392.26ZM251.8,383c0,2.34,3.49,3.9,9.37,3.9,6.09,0,9.42-1.56,9.42-3.9s-3.33-4-9.42-4C255.29,379,251.8,380.5,251.8,383Zm25.34-19.88v9.78h-6.81V346.21h6.81V357.5h6.46v5.57Z"/><path d="M300.61,371.76V350h22v21.75Zm4.84,19.51V376.55h6.82v9.31h24.51v5.41Zm10.31-35.85h-8.38v10.93h8.38Zm20.08,3.85h6.45v5.67h-6.45v14.88H329V346.21h6.87Z"/><path d="M344.43,369.94v-5.52h41.88v5.52Zm5.1,22.53V380.08h24.66V378H349.58v-5.41h31.48v12.28H356.34v2h26v5.62Zm.36-30.49v-15.2h31v5.52H356.76v4.21h24.4V362Z"/><path d="M393,384.56l-3.9-5.41c10.14-4.74,16.65-13.63,17.58-22.53H392V351h22C413.58,364.53,408.07,376.29,393,384.56Zm28,8V346.21H428v46.36Z"/><path class="cls-1" d="M61.08,417.3V406.61h7.73v1H62.29v8.57a38.76,38.76,0,0,0,8-.53l.17,1A46.47,46.47,0,0,1,61.08,417.3ZM73,412.59v8.89H71.79v-16.6H73v6.69h2.77v1Z"/><path class="cls-1" d="M85.32,409.65a4.18,4.18,0,1,1-4.17-3.82A3.91,3.91,0,0,1,85.32,409.65Zm-7.09,0a2.75,2.75,0,0,0,2.92,2.81,2.8,2.8,0,1,0,0-5.59A2.74,2.74,0,0,0,78.23,409.65Zm6,11.74c-3.61,0-5.42-1.26-5.42-3.1s1.81-3.1,5.42-3.1,5.45,1.28,5.45,3.1S87.78,421.39,84.18,421.39ZM80,418.29c0,1.27,1.54,2.07,4.17,2.07s4.19-.76,4.19-2.07-1.57-2.09-4.19-2.09S80,417,80,418.29Zm12-6.15H89.44V415H88.22V404.88h1.22v2.64H92v1H89.44v2.53H92Z"/><path class="cls-1" d="M93.12,409.11v-1h9.52v1Zm4.75,6.69c-2.17,0-3.8-1.12-3.8-2.89s1.62-2.86,3.8-2.86,3.8,1.06,3.8,2.86S100,415.8,97.87,415.8Zm0-4.73c-1.4,0-2.6.67-2.6,1.84s1.2,1.85,2.6,1.85,2.6-.69,2.6-1.85S99.26,411.07,97.87,411.07ZM95.5,406.7v-1h4.73v1Zm.09,14.19v-4.16h1.22v3.14h9.78v1Zm10.28-9.15V417h-1.22V404.88h1.22v5.83h2.58v1Z"/><path class="cls-1" d="M114.6,419v-1h6.05v-4.29h1.21V418h7.73v1Zm12.94-10.35a36.82,36.82,0,0,1-.62,7.22l-1.18-.17a28.52,28.52,0,0,0,.45-4.09l-9.84.55-.23-1.08,10.11-.45c0-.46,0-.92,0-1.35v-1.54h-9.73v-1.05h11Z"/><path class="cls-1" d="M132.1,417.25V406.57h7.75v1h-6.53v8.54a47.37,47.37,0,0,0,7.94-.55l.19,1.05A60.59,60.59,0,0,1,132.1,417.25Zm11.19,4.23v-16.6h1.21v16.6Z"/><path class="cls-1" d="M147.47,413.71v-1h15v1Zm1.88,7.41v-3.55h10v-1.43h-10v-1h11.24v3.32h-10v1.58h10.57v1Zm.13-9.88v-3.36h9.76v-1.42h-9.78v-1h11v3.4H150.7v1.4h10.05v1Z"/><path class="cls-1" d="M170,414.64l-.83-.91A8.51,8.51,0,0,0,174,410l-4.69.49-.3-1.12,5.45-.36a7.39,7.39,0,0,0,.36-1.95h-4.92v-1h6.21C176.11,410.12,174.27,412.82,170,414.64Zm2,6.61V415h1.21v2h8.38v-2h1.22v6.28Zm9.59-3.23h-8.38v2.23h8.38Zm0-3.95v-4h-2.32v3.86h-1.18v-8.76h1.18V409h2.32v-4.16h1.22v9.19Z"/><path class="cls-1" d="M194.33,418.18a9.47,9.47,0,0,1-4.24-4.6,10,10,0,0,1-4.2,5l-.85-.92c1.86-.85,4.43-3.51,4.43-6.47v-1.35h-3.79v-1.05h8.76v1.05H190.7v1.35c0,2.88,2.66,5.49,4.39,6ZM187.6,407.1V406h5v1.08Zm6.69,3.48h3.32v-5.7h1.22v16.6h-1.22v-6.27h-3.32v-1h3.32v-2.63h-3.32Z"/><path class="cls-1" d="M201.7,409.93v-1h9.7v1Zm5,8c-2.3,0-3.83-1.48-3.83-3.36s1.53-3.4,3.83-3.4,3.82,1.48,3.82,3.4S209,417.89,206.69,417.89Zm-2.6-10.71v-1.09h4.81v1.09Zm2.6,5a2.37,2.37,0,1,0,2.61,2.36A2.41,2.41,0,0,0,206.69,412.17Zm7.75.82v8.49h-1.21v-16.6h1.21V412h2.78v1Z"/><path class="cls-1" d="M227.61,417.3c-1.56-1.06-3.65-3-4.26-5.13a10.83,10.83,0,0,1-4.25,5.61l-.8-.93a9,9,0,0,0,4.41-7.24v-1.94h-3.92v-1H228v1h-4v1.9c0,3,2.22,5.64,4.45,6.82Zm4.1-12.42v16.6H230.5v-16.6Z"/><path class="cls-1" d="M240.28,412.55v-6.63H248v6.63Zm6.48-5.6h-5.27v4.58h5.27ZM242,421.37v-4.14h9.1v-1.85h-9.18v-1H252.3v3.86h-9.1v2.12H253v1.05Zm10.31-11.68v3.74h-1.21v-8.55h1.21v3.78h2.59v1Z"/><path class="cls-1" d="M256,419v-1H262V412.1h1.22V418H271v1Zm12.88-10.08a31.11,31.11,0,0,1-.64,6.95l-1.2-.21a28.73,28.73,0,0,0,.57-6.1v-1.82h-10v-1.05h11.32Z"/><path class="cls-1" d="M285.54,411.38v2h6.92v1h-15v-1h6.86v-2c-3.14-.12-5-1.14-5-3s2.15-3,5.66-3,5.65,1,5.65,3S288.71,411.28,285.54,411.38Zm5.3,10.05c-2.43-.44-5-2.08-5.91-3.65-.64,1.46-3,3.09-5.77,3.59l-.61-1c3.08-.3,5.78-2.41,5.78-4.29v-.65h1.25v.65c0,1.88,3,4.06,5.85,4.33Zm-5.89-15c-2.64,0-4.39.64-4.39,2s1.75,2,4.39,2,4.43-.65,4.43-2S287.61,406.4,285,406.4Z"/><path class="cls-1" d="M294.15,406.17h8.68v1H299.1v.93c0,2.2,2.06,4.2,4,4.86l-.66,1a8.13,8.13,0,0,1-4-3.8c-.42,1.54-2.36,3.4-4.2,4.23l-.68-.93c2.11-.83,4.31-3.11,4.31-5.37v-.93h-3.74Zm7.14,15.29c-3.44,0-5.53-1.17-5.53-3.11s2.09-3.14,5.53-3.14,5.55,1.18,5.55,3.14S304.73,421.46,301.29,421.46ZM297,418.35c0,1.33,1.67,2.07,4.27,2.07s4.29-.74,4.29-2.07-1.67-2.09-4.29-2.09S297,417,297,418.35Zm9.59-7.64V415h-1.22V404.88h1.22v4.79h2.62v1Z"/><path class="cls-1" d="M317.68,411.51h2.19V405.2h1.21v15.47h-1.21v-8.14h-2.19c-.13,3.12-1.37,5-3.47,5-2.26,0-3.52-2.15-3.52-5.59s1.26-5.56,3.52-5.56S317.57,408.37,317.68,411.51Zm-3.47-4c-1.41,0-2.28,1.69-2.28,4.5s.87,4.52,2.28,4.52,2.26-1.69,2.26-4.52S315.59,407.48,314.21,407.48Zm8.89,14v-16.6h1.21v16.6Z"/><path class="cls-1" d="M340.91,417.64a11.6,11.6,0,0,1-4.21-5.28,12,12,0,0,1-4.35,5.65l-.78-.94c2.33-1.42,4.5-4.44,4.5-7.27v-2.13h-3.78v-1h8.81v1h-3.78v2.09a8.54,8.54,0,0,0,4.33,6.93Zm-.36-5.69V410.9h3.5v-6h1.21v16.6h-1.21V412Z"/><path class="cls-1" d="M348.43,406.17h8.69v1h-3.73v.93c0,2.2,2.05,4.2,4.05,4.86l-.67,1a8.11,8.11,0,0,1-4-3.8c-.42,1.54-2.36,3.4-4.2,4.23l-.69-.93c2.11-.83,4.32-3.11,4.32-5.37v-.93h-3.75Zm7.15,15.29c-3.44,0-5.53-1.17-5.53-3.11s2.09-3.14,5.53-3.14,5.54,1.18,5.54,3.14S359,421.46,355.58,421.46Zm-4.28-3.11c0,1.33,1.67,2.07,4.28,2.07s4.29-.74,4.29-2.07-1.67-2.09-4.29-2.09S351.3,417,351.3,418.35Zm9.6-7.64V415h-1.22V404.88h1.22v4.79h2.62v1Z"/><path class="cls-1" d="M364.56,409.93v-1h9.71v1Zm5,8c-2.3,0-3.84-1.48-3.84-3.36s1.54-3.4,3.84-3.4,3.82,1.48,3.82,3.4S371.86,417.89,369.56,417.89ZM367,407.18v-1.09h4.8v1.09Zm2.6,5a2.37,2.37,0,1,0,2.6,2.36A2.41,2.41,0,0,0,369.56,412.17Zm7.75.82v8.49h-1.22v-16.6h1.22V412h2.77v1Z"/><path class="cls-1" d="M388.55,417.21a10.4,10.4,0,0,1-3.42-5,9.69,9.69,0,0,1-3.57,5.43l-.83-.89a9,9,0,0,0,3.78-7.2v-3h1.21v3a8.18,8.18,0,0,0,3.69,6.78Zm2,3.4V412H387.6v-1h2.95V405.3h1.19v15.31Zm3.27.87v-16.6H395v16.6Z"/><path class="cls-1" d="M397.48,419.35v-1h3.84v-3.38h1.21v3.38h4.85v-3.38h1.21v3.38h3.88v1Zm7.47-4.82c-3.48,0-5.78-1.67-5.78-4.24S401.47,406,405,406s5.81,1.69,5.81,4.25S408.44,414.53,405,414.53Zm0-7.41c-2.76,0-4.58,1.25-4.58,3.17s1.82,3.18,4.58,3.18,4.61-1.24,4.61-3.18S407.74,407.12,405,407.12Z"/><path class="cls-2" d="M153.94,63.69s-8.75-1-9.28,10.2l4.12,1.89-.68,6.65s16.42,1.59,17.78-1.54c-.59-3.17-1.91-8.84-1.91-8.84l1.55,2,4.14-5.47S163.81,60.5,153.94,63.69Z"/><path class="cls-3" d="M166,89.72a5.26,5.26,0,0,0,1.26,1.58.17.17,0,0,1-.07.31c-.83.17-1.34-1-1.34-1,.19,1.21.52,1.49.52,1.49-.81.58-1.4-2.32-1.47-2.65v0l-.12-1.23a3.47,3.47,0,0,0,1.67-3.2c1.68-2.49,4.18-5.57,5.32-7a.94.94,0,0,0-.14-1.33l-3.17-3.23c.48-.66,1-1.36,1.37-1.93,0,0,5,4.44,3.75,7s-5.31,6.87-7,9.66l-.22.38c.5.35,1.56.8,1.34,1s-1.44-.24-1.44-.24c.71,1,2.35.91,1.67,1.4S166.06,89.8,166,89.72Z"/><path d="M150.88,53.77c-.92.33-1.92.32-2.36-1-.89-2.53,1.35-3.48,2.53-3.86a2.24,2.24,0,0,1-1.22-2.59c.41-1,1.87-1.39,3.25-.83a3.16,3.16,0,0,1,1.61,1.37h0a2.61,2.61,0,0,1-.17-2.26c.59-1.48,2.53-2.09,4.32-1.36a3.24,3.24,0,0,1,2.16,4h0a3.63,3.63,0,0,1,4.47-1.15,3.53,3.53,0,0,1,2.26,4.44,2.85,2.85,0,0,1-.89,1.18,4.73,4.73,0,0,1,3.36.14c2.15.86,3.33,2.92,2.65,4.6a3.29,3.29,0,0,1-3.23,1.84,4.49,4.49,0,0,1,3.29,4.23A4.56,4.56,0,0,1,168.25,67a4.18,4.18,0,0,1-.51,0,4.88,4.88,0,0,1-1.9-.61,2.94,2.94,0,0,1-5.74-.17,2.41,2.41,0,0,1-1.81-1.26A2.43,2.43,0,0,1,158,63.8a2.49,2.49,0,0,1,.4-1.35A3.18,3.18,0,0,1,157.5,61a3.29,3.29,0,0,1-.14-.94,3.14,3.14,0,0,1,1.84-2.9,3.25,3.25,0,0,1-2.83-3,4.08,4.08,0,0,1,0-.61,2.62,2.62,0,0,1,0-.28,4,4,0,0,1,.89-2.31,4,4,0,0,1-3.2,1.12c-1.05-.21-1.28,0-1.31.28a1,1,0,0,1-.43.67A6.19,6.19,0,0,1,150.88,53.77Z"/><path class="cls-3" d="M157.39,123.11l-2.79.25-3.13.28s-1.08-19.43-1.24-22.92c-.16-3.26,1.58-15.4,1.81-17a62.24,62.24,0,0,0,7.3.32l1,2.49h0l-.78.35s2.14,3,4.47,1.73a5.34,5.34,0,0,0,.71-.43l.12,1.23v0l1,10.39,5.24,21.28-2.92.44-2.68.41-3.41.52-3.9-21.31-.48-9.46-1.38,9.59,3.16,21.66Z"/><path d="M169.77,128.93l-.92.22s.29-1.73-1.28-1.84-1.47,2.23-1.47,2.23-6.24,2-6.58.62c0-.12-.05-.23-.07-.33a1.77,1.77,0,0,1,.55-1.63l2.17-.5c3.52-.35,3.44-4.89,3.39-5.78l2.68-.41C168.88,124.26,169.77,128.93,169.77,128.93Z"/><path d="M166.45,84.93a3.47,3.47,0,0,1-1.67,3.2h0A10.14,10.14,0,0,1,166.45,84.93Z"/><path d="M166.24,83.9a4.71,4.71,0,0,1,.21,1,10.14,10.14,0,0,0-1.67,3.19l-.34-3.43,1-.45Z"/><path d="M165.91,83.07l.33.83-.78.34-.41-.93c.3-.07.58-.15.86-.24Z"/><path d="M164.78,88.12h0a5.34,5.34,0,0,1-.71.43c-2.33,1.22-4.47-1.73-4.47-1.73l.78-.35,1.11-.49,2.95-1.3Z"/><path d="M161.47,86l0,0-1.11.49h0l-1-2.49c.44,0,.87,0,1.3-.06Z"/><path d="M152.68,64.64l8,19.29c-.43,0-.86,0-1.3.06l-7.87-19A9.31,9.31,0,0,1,152.68,64.64Z"/><path d="M158.94,130.63l-.94.23s.29-1.79-1.32-1.9-1.52,2.3-1.52,2.3-6.41,2-6.76.63a1.87,1.87,0,0,1,.5-2l2.22-.52c3.72-.37,3.53-5.27,3.48-6l2.79-.25c.5,2.15,1.14,5.39,1.41,6.81C158.89,130.36,158.94,130.63,158.94,130.63Z"/><path class="cls-3" d="M158.41,62.45a2.49,2.49,0,0,0-.4,1.35,2.43,2.43,0,0,0,.28,1.14,2.18,2.18,0,0,1-3.42-.5V61.72h0a6.32,6.32,0,0,0,1.65-.36l1-.35A3.18,3.18,0,0,0,158.41,62.45Z"/><path class="cls-3" d="M153.31,55.36a2.53,2.53,0,0,0-.13-.89c-.29-.62-2-.21-2-.21l-.36,0c0-.19,0-.35,0-.46a6.19,6.19,0,0,0,1.41-.75,1,1,0,0,0,.43-.67c0-.24.26-.49,1.31-.28a4,4,0,0,0,3.2-1.12,4,4,0,0,0-.89,2.31l-.54,0a1.48,1.48,0,0,0-1.52.62l.42.62a1.07,1.07,0,0,0-.21.22s-.08.85.55.8.65-1.17.34-1.28a1.57,1.57,0,0,1,.42,0l.57-.09a3.25,3.25,0,0,0,2.83,3,3.14,3.14,0,0,0-1.84,2.9,3.29,3.29,0,0,0,.14.94l-1,.35a6.32,6.32,0,0,1-1.65.36c-3.5.29-4.1-3.39-4.11-5.92h.7c0,.34.26.73.64.55s.3-.77.22-1.07h.36Z"/><path class="cls-4" d="M155.38,54.21c.31.11.29,1.23-.34,1.28s-.55-.8-.55-.8a1.07,1.07,0,0,1,.21-.22A1.33,1.33,0,0,1,155.38,54.21Z"/><path class="cls-3" d="M152.32,55.26c-.29,0-.67.07-.79.27a.43.43,0,0,0-.07.25h-.7c0-.61,0-1.16.07-1.56l.36,0s1.7-.41,2,.21a2.53,2.53,0,0,1,.13.89l-.63-.1Z"/><path class="cls-4" d="M152.32,55.26c.08.3.16.89-.22,1.07s-.64-.21-.64-.55a.43.43,0,0,1,.07-.25C151.65,55.33,152,55.28,152.32,55.26Z"/><path class="cls-3" d="M147.33,97.56c-.55,3.35-.53,2.41-.75,2.41s.08-2.49.08-2.49l-.12.33c-.18.63-.68,1.79-.85,1.57s.74-3.24.74-3.24c-.8,1.26-2.44.9-1.62.54s1.81-2.23,1.81-2.23c.41-3.19,0-19.34,0-19.34l2.08,1s0,3.46-.06,7.42c-.06,5.22-.16,11.32-.33,11.43l.51,1.85s.05,2.21-.39,2.6-.32-2.36-.31-2.73a17.14,17.14,0,0,1-.36,3.06C147.63,99.6,147.35,99.1,147.33,97.56Z"/><path class="cls-5" d="M150.92,53.51s0,.09,0,.26,0,.27,0,.46c0,.4-.07,1-.07,1.56,0,2.53.61,6.21,4.11,5.92a6.32,6.32,0,0,0,1.65-.36l1-.35"/><path class="cls-5" d="M151.19,54.26s1.7-.41,2,.21a2.53,2.53,0,0,1,.13.89c0,.83,0,1.84.22,1.8s.83,0,.85-.41"/><path class="cls-5" d="M154.28,53.85a1.48,1.48,0,0,1,1.52-.62"/><path class="cls-5" d="M154.38,54.85a1.52,1.52,0,0,1,.11-.16,1.07,1.07,0,0,1,.21-.22,1.33,1.33,0,0,1,.68-.26,1.57,1.57,0,0,1,.42,0"/><path class="cls-5" d="M154.49,54.69s-.08.85.55.8.65-1.17.34-1.28"/><path class="cls-5" d="M152.68,55.26h-.36c-.29,0-.67.07-.79.27a.43.43,0,0,0-.07.25c0,.34.26.73.64.55s.3-.77.22-1.07a.46.46,0,0,0-.06-.17"/><path class="cls-5" d="M156.33,58a6.43,6.43,0,0,1-3.14,1.29,1.1,1.1,0,0,1,1-.75c.76,0,.41-.55.8-.38"/><path class="cls-5" d="M154,59.63a2.19,2.19,0,0,0,1.95-.55"/><path class="cls-5" d="M154.87,64.44a8.52,8.52,0,0,0-2.19.2,9.31,9.31,0,0,0-1.21.34c-2.57.92-5.69,3.34-5.87,9.66l1,.47,2.08,1,1,.47"/><path class="cls-5" d="M158.39,64.85l-.1.09a2.18,2.18,0,0,1-3.42-.5V61.72"/><path class="cls-5" d="M161,47.28a3.24,3.24,0,0,0-2.16-4c-1.79-.73-3.73-.12-4.32,1.36a2.61,2.61,0,0,0,.17,2.26,3.51,3.51,0,0,0,1,1.15"/><path class="cls-5" d="M157.24,50.94a0,0,0,0,1,0,0,4,4,0,0,0-.89,2.31,2.62,2.62,0,0,0,0,.28,4.08,4.08,0,0,0,0,.61,3.25,3.25,0,0,0,2.83,3,3.14,3.14,0,0,0-1.84,2.9,3.29,3.29,0,0,0,.14.94,3.18,3.18,0,0,0,.91,1.45,2.49,2.49,0,0,0-.4,1.35,2.43,2.43,0,0,0,.28,1.14,2.41,2.41,0,0,0,1.81,1.26,2.94,2.94,0,0,0,5.74.17,4.88,4.88,0,0,0,1.9.61,4.18,4.18,0,0,0,.51,0,4.56,4.56,0,0,0,4.69-4.43,4.49,4.49,0,0,0-3.29-4.23,3.29,3.29,0,0,0,3.23-1.84c.68-1.68-.5-3.74-2.65-4.6a4.73,4.73,0,0,0-3.36-.14,2.85,2.85,0,0,0,.89-1.18,3.53,3.53,0,0,0-2.26-4.44A3.63,3.63,0,0,0,161,47.29a2.38,2.38,0,0,0-.2.39"/><path class="cls-5" d="M154.93,48a1.84,1.84,0,0,0-.24-1.1,3.16,3.16,0,0,0-1.61-1.37c-1.38-.56-2.84-.19-3.25.83A2.24,2.24,0,0,0,151.05,49c-1.18.38-3.42,1.33-2.53,3.86.44,1.27,1.44,1.28,2.36,1a6.19,6.19,0,0,0,1.41-.75,1,1,0,0,0,.43-.67c0-.24.26-.49,1.31-.28a4,4,0,0,0,3.2-1.12"/><path class="cls-5" d="M164.78,73.84a6.36,6.36,0,0,0-1.08-1.32"/><path class="cls-5" d="M167.74,67s3.18,2.94,2.94,3.28c-.06.09-.39.58-.85,1.23s-.89,1.27-1.37,1.93c-.93,1.25-1.84,2.39-2.08,2.32a8.41,8.41,0,0,1-1.6-1.89"/><path class="cls-5" d="M149.34,71s.55-.26.38,5.52c-.05,1.69-.17,3.91-.37,6.81,0,0,0,.1,0,.14"/><path class="cls-5" d="M149.35,83.34s1.06.17,2.69.33a62.24,62.24,0,0,0,7.3.32c.44,0,.87,0,1.3-.06a24.85,24.85,0,0,0,3.68-.45c.25,0,.5-.1.73-.17s.58-.15.86-.24l.47-.17c.18-.07-1.54-8.76-1.6-9.05h0"/><path class="cls-5" d="M152.07,83.48l0,.19c-.23,1.65-2,13.79-1.81,17,.16,3.49,1.24,22.92,1.24,22.92l3.13-.28,2.79-.25,2.16-.19-3.16-21.66,1.38-9.59.48,9.46,3.9,21.31,3.41-.52,2.68-.41,2.92-.44"/><polyline class="cls-5" points="164.9 89.39 165.92 99.79 171.16 121.07"/><polyline class="cls-5" points="164.32 83.48 164.44 84.69 164.78 88.12 164.78 88.13 164.9 89.36"/><path class="cls-5" d="M154.6,123.27v.09c.05.73.24,5.63-3.48,6l-2.22.52a1.87,1.87,0,0,0-.5,2c.35,1.38,6.76-.63,6.76-.63s-.09-2.41,1.52-2.3,1.32,1.9,1.32,1.9l.94-.23s-.05-.27-.14-.71c-.27-1.42-.91-4.66-1.41-6.81l0-.13"/><path class="cls-5" d="M165.55,121.77s0,0,0,.15c.05.89.13,5.43-3.39,5.78l-2.17.5a1.77,1.77,0,0,0-.55,1.63c0,.1,0,.21.07.33.34,1.34,6.58-.62,6.58-.62s-.1-2.35,1.47-2.23,1.28,1.84,1.28,1.84l.92-.22s-.89-4.67-1.53-7.42v0"/><path class="cls-5" d="M168.46,73.42l3.17,3.23a.94.94,0,0,1,.14,1.33c-1.14,1.38-3.64,4.46-5.32,7a10.14,10.14,0,0,0-1.67,3.19h0"/><path class="cls-5" d="M166,89.72c.06.08,1.31,1.46,2,1s-1-.37-1.67-1.4c0,0,1.22.49,1.44.24s-.84-.69-1.34-1l.22-.38c1.65-2.79,5.73-7.13,7-9.66s-3.75-7-3.75-7"/><path class="cls-5" d="M164.9,89.36v0c.07.33.66,3.23,1.47,2.65,0,0-.33-.28-.52-1.49,0,0,.51,1.22,1.34,1a.17.17,0,0,0,.07-.31A5.26,5.26,0,0,1,166,89.72h0"/><path class="cls-5" d="M146.62,75.11s.41,16.15,0,19.34c0,0-1,1.88-1.81,2.23s.82.72,1.62-.54c0,0-1,3-.74,3.24s.67-.94.85-1.57l.12-.33.09-.27"/><path class="cls-5" d="M148.12,96.58v0h0a17.14,17.14,0,0,1-.36,3.06c-.13-.09-.41-.59-.43-2.13,0-.26,0-.55,0-.88"/><path class="cls-5" d="M148.7,76.06s0,3.46-.06,7.42c-.06,5.22-.16,11.32-.33,11.43l.51,1.85s.05,2.21-.39,2.6-.32-2.36-.31-2.73"/><path class="cls-5" d="M146.66,97.48s-.29,2.48-.08,2.49.2.94.75-2.41"/><polyline class="cls-5" points="152.68 64.64 160.64 83.93 161.47 85.95"/><polyline class="cls-5" points="151.47 64.98 159.34 83.99 160.38 86.48"/><path class="cls-5" d="M165.91,83.07l.33.83-.78.34-1,.45L161.49,86l-1.11.49-.78.35s2.14,3,4.47,1.73a5.34,5.34,0,0,0,.71-.43,3.47,3.47,0,0,0,1.67-3.2,4.71,4.71,0,0,0-.21-1"/><line class="cls-5" x1="165.05" y1="83.31" x2="165.46" y2="84.24"/><path d="M196.93,145.5c.2,9.7-7.89,10.14-7.89,10.14s-40.58,2.26-53.44,4.52-13.42-16.69-13.42-16.69V32.53s.62-21,56.13-18.14a16.84,16.84,0,0,1,7.6,2.29C207.28,29.21,194.37,44.24,196.93,145.5Zm-5.41-7.22s4.28-101.46,0-107.1c-3.59-4.72-46.6-.42-60.45,1.1A4.78,4.78,0,0,0,126.81,37v99.43a4.83,4.83,0,0,0,5.08,4.83ZM167.29,149a6,6,0,1,0-6,6A6,6,0,0,0,167.29,149Z"/><path class="cls-6" d="M196.93,145.5c-2.56-101.26,10.35-116.29-11-128.82a16.84,16.84,0,0,0-7.6-2.29c-55.51-2.9-56.13,18.14-56.13,18.14V143.47s.57,18.94,13.42,16.69S189,155.64,189,155.64,197.13,155.2,196.93,145.5Z"/><path class="cls-6" d="M126.81,37v99.43a4.83,4.83,0,0,0,5.08,4.83l59.63-3s4.28-101.46,0-107.1c-3.59-4.72-46.6-.42-60.45,1.1A4.78,4.78,0,0,0,126.81,37Z"/><circle class="cls-6" cx="161.31" cy="148.99" r="5.98"/><path class="cls-3" d="M114.46,131.36c0,1.07-.47,5.49,3.17,5.76,5.42.41,1.72-7.58,1.72-7.58A7.07,7.07,0,0,0,114.46,131.36Zm25.78,14c3.8,4,7.62,9.07,7.22,12.15-.49,3.84-1.34,9.94-16.62,13.89-6.34,10.21-4.6,21.72-4,24.48-3.56-6.28-11.48-15.09-28-15.56l-1,0h0c5.78-2.95,4.47-15.48,4.47-15.48a16,16,0,0,1,1.87-.49h0a1.14,1.14,0,0,0,.33,0c3-.87-1.24-15.17-1.24-15.17l0-.08c-5,.8-16.67-4.61-18.53-9.71-2.19-6,5.4-5.25,5.4-5.25,8.18,7.21,19.73,13,13.15,8.48-7.82-5.42-6-18.57-6-18.57h0a35.13,35.13,0,0,1,17.16-12.28c.94,5.25,5.54,22,25.48,15,0,0,2.53-.66,2.26.93s-9.07,10.82-4.67,15c.51.49,1.06,1,1.61,1.58C139.46,144.54,139.85,144.94,140.24,145.36Zm-39.35-.59c.3-.07-3.43-.81-5.23-2.13a5.14,5.14,0,0,1-2-3.33,4.5,4.5,0,0,0-3.63-1S94.81,146.24,100.89,144.77Z"/><path d="M74,112.66c-1.4-8.44,4-17.91,10.36-19.33,8.49-1.9,6.44-7.91,13.48-9.51S106.72,90,106.72,90c9.37-11.42,10.54,2.79,10.54,2.79s.73,2.49,7.18,1.46,16.83,12.89-3.67,16a38.62,38.62,0,0,0-6.37,1.5A35.13,35.13,0,0,0,97.24,124h0s-1.77,13.15,6,18.57c6.58,4.56-5-1.27-13.15-8.48,0,0-7.59-.76-5.4,5.25,1.86,5.1,13.52,10.51,18.53,9.71l0,.08s4.22,14.3,1.24,15.17a2,2,0,0,0-.33,0h0a16,16,0,0,0-1.87.49c-3.14,1-8.11,2.5-15.38-1.19-10.4-5.27-10.1-11-21.38-27.38S74,112.66,74,112.66Z"/><path d="M119.35,129.54s3.7,8-1.72,7.58c-3.64-.27-3.18-4.69-3.17-5.76A7.07,7.07,0,0,1,119.35,129.54Z"/><path d="M95.66,142.64c1.8,1.32,5.53,2.06,5.23,2.13C94.81,146.24,90,138.29,90,138.29a4.5,4.5,0,0,1,3.63,1A5.14,5.14,0,0,0,95.66,142.64Z"/><path class="cls-6" d="M126.79,195.89c.08.39.13.61.13.61"/><path class="cls-6" d="M114.18,110.18s.06.56.22,1.5c.94,5.25,5.54,22,25.48,15,0,0,2.53-.66,2.26.93s-9.07,10.82-4.67,15c.51.49,1.06,1,1.61,1.58.38.39.77.79,1.16,1.21,3.8,4,7.62,9.07,7.22,12.15-.49,3.84-1.34,9.94-16.62,13.89-6.34,10.21-4.6,21.72-4,24.48"/><path class="cls-6" d="M129.41,202.13a25.56,25.56,0,0,0-2.62-6.24h0c-3.56-6.28-11.48-15.09-28-15.56l-1,0c-25-.26-31.56,17.88-31.56,17.88"/><path class="cls-6" d="M93.68,130a28.85,28.85,0,0,1,3.56-6,35.13,35.13,0,0,1,17.16-12.28,38.62,38.62,0,0,1,6.37-1.5c20.5-3.08,10.11-17,3.67-16s-7.18-1.46-7.18-1.46S116.09,78.54,106.72,90c0,0-1.9-7.75-8.93-6.14s-5,7.61-13.48,9.51C78,94.75,72.55,104.22,74,112.66A14.06,14.06,0,0,0,78,120.57"/><path class="cls-6" d="M104.21,164.32a2,2,0,0,1,.33,0,2,2,0,0,1,.86.08"/><path class="cls-6" d="M74,112.66s-19.66,7.18-8.38,23.58,11,22.11,21.38,27.38c7.27,3.69,12.24,2.15,15.38,1.19a16,16,0,0,1,1.87-.49"/><path class="cls-6" d="M97.25,124s-1.77,13.15,6,18.57c6.58,4.56-5-1.27-13.15-8.48A40.42,40.42,0,0,1,86.07,130"/><path class="cls-6" d="M90.15,134.06s-7.59-.76-5.4,5.25c1.86,5.1,13.52,10.51,18.53,9.71a2.75,2.75,0,0,0,2-1.06"/><path class="cls-6" d="M103.3,149.1s4.22,14.3,1.24,15.17a1.14,1.14,0,0,1-.33,0h0"/><path class="cls-6" d="M102.33,164.81s1.31,12.53-4.47,15.48"/><path class="cls-6" d="M100.89,144.77C94.81,146.24,90,138.29,90,138.29a4.5,4.5,0,0,1,3.63,1,5.14,5.14,0,0,0,2,3.33C97.46,144,101.19,144.7,100.89,144.77Z"/><path class="cls-7" d="M105.4,133.42s4.17-11.06,9-11.06"/><path class="cls-6" d="M114.46,131.36c0-.21,0-.29-.09-.17"/><path class="cls-6" d="M114.46,131.36a7.07,7.07,0,0,1,4.89-1.82s3.7,8-1.72,7.58C114,136.85,114.45,132.43,114.46,131.36Z"/><path class="cls-6" d="M107.6,140c.12-.84,3.22-5.87,6.86-8.65"/><path class="cls-6" d="M131.37,136.31s2.25-1.54,3.36-1"/><path class="cls-6" d="M140.24,145.36s.3,5.12-10.46,8"/><path class="cls-6" d="M140.24,149.14s-1.57,4.33-4.86,4.2"/><path class="cls-6" d="M139.08,144.15A19.36,19.36,0,0,0,134,149.1"/><path class="cls-8" d="M83.74,182.47s17.61,12.42,38.45,7.26"/><path class="cls-8" d="M70.73,191.21s30.29,17.22,56.19,5.29"/><path d="M301.52,220.34a6.76,6.76,0,0,1-5.23-2.06s-3-5.45,3.63-7.49c-.6.17-12.27,3.29-7.46-6.49,5-10,42-9.92,64.49,7.3s26.54,61.37,3.45,65.73c-3.76.7-7,1.28-9.8,1.71-14.45,2.27-17.71,1.22-23.62-1-8.79-3.31,6.74-61.18.81-59.14-22.39,7.68-12.25-5.64-11.77-6.26C315.55,213.08,308,220.18,301.52,220.34Z"/><path class="cls-3" d="M292.47,261a80.87,80.87,0,0,1,1.3-12.51c-8.21,1.83-7.45-4.41-7.45-4.41s12.61-4.55,12.16-12.3a19.23,19.23,0,0,1,3-11.46c6.44-.16,14-7.26,14.5-7.71-.48.62-10.62,13.94,11.77,6.26,5.93-2-9.6,55.83-.81,59.14,5.91,2.23,9.17,3.28,23.62,1-.16.42-5,13.17,4.29,21.26-32.71,25.51-40.07.92-40.07.92,12.06-14.68,3.55-21.26,3.55-21.26-22.61,11.65-26.15-5.5-25.9-18.68V261Zm18.07-23.16,2.79-3.65h-4.59l-2.6-3.78-1.42,4.36-4.39,1.31,3.71,2.7-.12,4.59,3.72-2.7,4.32,1.52Z"/><polygon class="cls-9" points="313.33 234.21 310.54 237.86 311.96 242.22 307.63 240.7 303.92 243.4 304.04 238.81 300.33 236.11 304.72 234.8 306.14 230.44 308.74 234.22 313.33 234.21"/><path class="cls-10" d="M281.11,207.33v10.81a4.62,4.62,0,0,1-4.63,4.62h-4.64v5.69l-6.61-5.69h-4.65a4.62,4.62,0,0,1-4.62-4.62V207.33a4.62,4.62,0,0,1,4.62-4.62h15.9A4.62,4.62,0,0,1,281.11,207.33Zm-6.86,7.89c2.2-3.11,3-6.29,1.89-7.1s-3.87,1-6.06,4.15A16,16,0,0,0,269,214a17.27,17.27,0,0,0-1.1-1.75c-2.21-3.1-4.93-4.94-6.08-4.13s-.29,4,1.92,7.1a12.4,12.4,0,0,0,4.36,4.06.39.39,0,0,1,.1.08,1.95,1.95,0,0,0,1.62,0l0-.05A12.23,12.23,0,0,0,274.25,215.22Z"/><path class="cls-11" d="M276.14,208.12c1.15.81.31,4-1.89,7.1a12.23,12.23,0,0,1-4.41,4.09l0,.05a1.95,1.95,0,0,1-1.62,0,.39.39,0,0,0-.1-.08,12.4,12.4,0,0,1-4.36-4.06c-2.21-3.1-3.07-6.27-1.92-7.1s3.87,1,6.08,4.13A17.27,17.27,0,0,1,269,214a16,16,0,0,1,1.09-1.74C272.27,209.16,275,207.31,276.14,208.12Z"/><path class="cls-6" d="M260.58,202.71h15.9a4.62,4.62,0,0,1,4.63,4.62v10.81a4.62,4.62,0,0,1-4.63,4.62h-4.64v5.69l-6.61-5.69h-4.65a4.62,4.62,0,0,1-4.62-4.62V207.33A4.62,4.62,0,0,1,260.58,202.71Z"/><path class="cls-6" d="M261.81,208.13c1.15-.81,3.87,1,6.08,4.13A17.27,17.27,0,0,1,269,214a16,16,0,0,1,1.09-1.74c2.19-3.11,4.91-5,6.06-4.15s.31,4-1.89,7.1a12.23,12.23,0,0,1-4.41,4.09l0,.05a1.95,1.95,0,0,1-1.62,0,.39.39,0,0,0-.1-.08,12.4,12.4,0,0,1-4.36-4.06C261.52,212.13,260.66,209,261.81,208.13Z"/><path class="cls-6" d="M292.47,261v.26c-.25,13.18,3.29,30.33,25.9,18.68,0,0,8.51,6.58-3.55,21.26,0,0,7.36,24.59,40.07-.92l.24-.19"/><path class="cls-6" d="M302.57,218.89a14.57,14.57,0,0,0-1.05,1.45,19.23,19.23,0,0,0-3,11.46c.45,7.75-12.16,12.3-12.16,12.3s-.76,6.24,7.45,4.41a80.87,80.87,0,0,0-1.3,12.51"/><path class="cls-6" d="M312.14,258.54c-14.91,8.94-19.51,3-19.67,2.74h0a.7.7,0,0,1,0-.25h0c.16-.68,1.5-2.44,11.32-1.88"/><path class="cls-6" d="M293.53,266.51s7.94,2.56,10.57-1.29"/><path class="cls-12" d="M301.15,227.5s5.27-5,14.89,0"/><path class="cls-13" d="M316,212.61h0c-.48.62-10.62,13.94,11.77,6.26,5.93-2-9.6,55.83-.81,59.14,5.91,2.23,9.17,3.28,23.62,1,2.81-.43,6-1,9.8-1.71,23.09-4.36,19-48.52-3.45-65.73s-59.54-17.32-64.49-7.3c-4.81,9.78,6.86,6.66,7.46,6.49"/><path class="cls-13" d="M299.94,210.79h0c-6.66,2-3.63,7.49-3.63,7.49a6.76,6.76,0,0,0,5.23,2.06c6.44-.16,14-7.26,14.5-7.71"/><polygon class="cls-13" points="311.96 242.22 307.63 240.7 303.92 243.4 304.04 238.81 300.33 236.11 304.72 234.8 306.14 230.44 308.74 234.22 313.33 234.21 310.54 237.86 311.96 242.22"/><path class="cls-6" d="M355.13,300.51l-.24-.21c-9.24-8.09-4.45-20.84-4.29-21.26h0"/><path class="cls-6" d="M355.13,300.11s26.59-1.47,34.64,24.05"/><path class="cls-6" d="M314.82,301.22s-28.5,1.52-36.4,22"/><path class="cls-6" d="M375.89,226.4s9.22-7.41,15.1-5.58"/><path class="cls-6" d="M352.17,198.74s.73-8.11,3.77-9.32"/><path class="cls-6" d="M377.82,261s8.91,5,11.95,3.57"/><path d="M274.91,302l-7.68,2.05s1.3,7.14-8.73,6.69-2.05,6.15-2.05,6.15H270.5l.49-4.4,2.25,4.4h1.67Z"/><path d="M251.87,302l-7.67,2.05s1.29,7.14-8.74,6.69-2.05,6.15-2.05,6.15h14.05l.49-4.4,2.25,4.4h1.67Z"/><rect class="cls-6" x="229.26" y="297.24" width="47.39" height="19.67"/><path class="cls-14" d="M391.59,276.58s9.9,2.92,10.39-7.47a13.73,13.73,0,0,1,15.91,2s-4.5,6.4-5.27,6.47a16.45,16.45,0,0,1-2.85-.3s9.37,10.8,10.88,10.94c0,0-11.77,10.69-22,11.39l-3.89-12.65-1,5.42-7.26,1.25S383.83,279.69,391.59,276.58Z"/><path class="cls-6" d="M389.68,277.09s10.53,3.1,11-7.94a14.58,14.58,0,0,1,16.91,2.1s-4.78,6.8-5.6,6.88a18,18,0,0,1-3-.32s9.95,11.47,11.56,11.62c0,0-12.5,11.36-23.38,12.11l-4.13-13.45L392,293.85l-7.7,1.33S381.44,280.39,389.68,277.09Z"/><path d="M215.53,183.09a5.59,5.59,0,0,1-3-.85,6.44,6.44,0,0,1-2.19-2.24,5.87,5.87,0,0,1-.83-3.09l0-9.73a6,6,0,0,1,.81-3.08,6.29,6.29,0,0,1,2.2-2.21,5.76,5.76,0,0,1,3-.83,5.68,5.68,0,0,1,3,.83,6.35,6.35,0,0,1,2.16,2.21,5.92,5.92,0,0,1,.82,3.08l0,9.73a6,6,0,0,1-.82,3.09,6.32,6.32,0,0,1-2.18,2.24A5.58,5.58,0,0,1,215.53,183.09Zm0-3.72a2.13,2.13,0,0,0,1.61-.75,2.46,2.46,0,0,0,.69-1.71l0-9.73a2.45,2.45,0,0,0-.64-1.72,2.13,2.13,0,0,0-1.63-.71,2.19,2.19,0,0,0-1.63.69,2.39,2.39,0,0,0-.68,1.74v9.73a2.46,2.46,0,0,0,.68,1.74A2.15,2.15,0,0,0,215.53,179.37Z"/><path d="M224,182.78c-.09,0-.13-.05-.13-.15l0-21.1c0-.09.05-.13.16-.13h3.41c.1,0,.15,0,.15.13l0,8.35h4.61v-8.35c0-.09,0-.13.12-.13h3.41c.1,0,.15,0,.15.13l.06,21.1a.13.13,0,0,1-.15.15h-3.44a.13.13,0,0,1-.15-.15v-9H227.6v9q0,.15-.12.15Z"/><path d="M248.67,183.09a5.67,5.67,0,0,1-3.06-.85,6.14,6.14,0,0,1-2.16-2.25,6.38,6.38,0,0,1-.8-3.17l0-9.58a6.22,6.22,0,0,1,.78-3.09,6.16,6.16,0,0,1,2.15-2.24,6,6,0,0,1,6.1,0,6.19,6.19,0,0,1,2.95,5.35v1.41a.11.11,0,0,1-.12.12H251.1a.11.11,0,0,1-.12-.12v-1.41a2.53,2.53,0,0,0-.67-1.75,2.11,2.11,0,0,0-1.64-.74,2,2,0,0,0-1.69.75,2.74,2.74,0,0,0-.58,1.74v9.58a2.62,2.62,0,0,0,.66,1.85,2.12,2.12,0,0,0,1.61.7,2.05,2.05,0,0,0,1.64-.78,2.68,2.68,0,0,0,.67-1.77v-1.41a.11.11,0,0,1,.12-.12h3.47a.11.11,0,0,1,.12.12v1.41a6.28,6.28,0,0,1-.81,3.17,6.41,6.41,0,0,1-2.17,2.25A5.55,5.55,0,0,1,248.67,183.09Z"/><path d="M262.62,183.09a5.59,5.59,0,0,1-3-.85,6.55,6.55,0,0,1-2.2-2.24,6,6,0,0,1-.82-3.09l0-9.73a6,6,0,0,1,.81-3.08,6.21,6.21,0,0,1,2.2-2.21,5.76,5.76,0,0,1,3-.83,5.68,5.68,0,0,1,3,.83,6.35,6.35,0,0,1,2.16,2.21,6,6,0,0,1,.82,3.08l0,9.73a6,6,0,0,1-.82,3.09,6.32,6.32,0,0,1-2.18,2.24A5.58,5.58,0,0,1,262.62,183.09Zm0-3.72a2.13,2.13,0,0,0,1.61-.75,2.46,2.46,0,0,0,.69-1.71l0-9.73a2.45,2.45,0,0,0-.65-1.72,2.11,2.11,0,0,0-1.62-.71,2.19,2.19,0,0,0-1.63.69,2.39,2.39,0,0,0-.68,1.74v9.73a2.46,2.46,0,0,0,.68,1.74A2.15,2.15,0,0,0,262.62,179.37Z"/><path d="M271.77,177.13q-.12,0-.15-.15l-.65-7.07v-8.35c0-.11,0-.16.12-.16h3.44a.14.14,0,0,1,.16.16l0,8.35L274,177q0,.15-.15.15Zm-.68,5.65q-.12,0-.12-.15v-3.35a.11.11,0,0,1,.12-.12h3.44c.09,0,.13,0,.13.12v3.35c0,.1,0,.15-.13.15Z"/><path class="cls-6" d="M220.62,84c7.7-6.38,107-29.43,125.24,73.84"/><path class="cls-6" d="M142.33,199.16c-9.84,16.91,13.19,113,107.53,82.56"/><path class="cls-6" d="M206.17,85.78l7.14-8a3.13,3.13,0,0,1,5.32,1.11L222,89.09a3.14,3.14,0,0,1-3.62,4.06L207.87,91A3.14,3.14,0,0,1,206.17,85.78Z"/><path class="cls-6" d="M263.44,279l-7,8.11a3.13,3.13,0,0,1-5.34-1L247.58,276a3.14,3.14,0,0,1,3.55-4.12l10.52,2A3.13,3.13,0,0,1,263.44,279Z"/></svg>