<svg id="레이어_1" data-name="레이어 1" xmlns="http://www.w3.org/2000/svg" viewBox="0 0 480 480"><defs><style>.cls-1{fill:#fff;}.cls-2{fill:#eaeaea;}.cls-3{fill:none;stroke:#000;stroke-miterlimit:10;}.cls-4{fill:#c6c6c6;}.cls-5{fill:#919191;}.cls-6{fill:#3f3f3f;}</style></defs><path class="cls-1" d="M183.56,254.8c-8.31-1.4-22.61-4.24-30.42-8.25l-.16-.08-.18,0a77.8,77.8,0,0,1-14.75,1.25c-16.19,0-46.85-4.25-70.3-32.69A50.72,50.72,0,0,1,60.41,162c8.07-18.18,25.37-42.21,61.94-53.43.31-.09,31.16-9.52,61.2-9.52,29.17,0,47.67,8.57,55,25.47,9.93,23,4.16,45.15-2.43,59.7-10.74,23.74-31.4,44-51.4,50.5-9.75,3.15-14.43,6.47-14.32,10.13C170.51,249.2,177.92,252.74,183.56,254.8Z"/><path d="M183.55,99.51c28.95,0,47.29,8.47,54.51,25.17,9.86,22.81,4.12,44.84-2.42,59.3-10.69,23.61-31.23,43.8-51.1,50.22-10,3.23-14.79,6.71-14.67,10.63.11,3.55,4.46,6.5,9.07,8.64-8.25-1.56-19.14-4.06-25.58-7.36l-.31-.16-.35.07a77.36,77.36,0,0,1-14.65,1.24,95,95,0,0,1-32.91-5.84,87.07,87.07,0,0,1-37-26.67,50.21,50.21,0,0,1-7.28-52.58c8-18.09,25.24-42,61.64-53.16.31-.09,31.08-9.5,61.05-9.5m0-1c-30.47,0-61.34,9.54-61.34,9.54C86,119.16,68.44,142.64,60,161.76a51.49,51.49,0,0,0,7.41,53.62c23.18,28.11,53.07,32.88,70.69,32.88A77.23,77.23,0,0,0,152.91,247c11.61,5.95,37,9.29,37,9.29s-39.28-10.08-5.09-21.14S258.92,170.43,239,124.28c-8.69-20.1-31.94-25.77-55.43-25.77Z"/><path class="cls-2" d="M256.53,225.58c-.1-1.13-.66-7.58-1.65-15.33-.37-14.29,34-29.36,34-29.36,5.27,13.68,16.16,39.83,22.08,39,8-1.14,28.26-35.9,20.64-36.84-3.24-.4-6-6.59-7.81-12.34h0s25.5-14.25,62.68,22.21c0,0,29,48.75,34.23,80.48-30.05,33.38-127.44,49.11-127,46.29.54-3.19-11.34-31.64-11.34-31.64l.13-.4A224.41,224.41,0,0,1,239.64,266s-16.08-28.49-6.53-33.81a28.6,28.6,0,0,1,3.31-1.55A96.14,96.14,0,0,1,256.53,225.58Z"/><path d="M308.42,125.11c-.63,1.55-4.88,11.9-6.48,16.55.64-5,1.1-16.75,1.1-16.75,3.37-2.15-15.88-26.71-24.19-16.83s-22.26-2-22.26-2-12,11.65-21.54,7.34-4.93,8.11-4.93,8.11A123.38,123.38,0,0,0,229,134.93c-1.51-5.67-9.35-35.62-8-46.61,1.43-12,17.91-7.55,18.36-7.44-1.08-2.86-2.19-9.78,8.57-15.83,14-7.88,21.61.09,21.17,6.49s9.78-16.66,9.78-16.66,10.47-8,26.12,7.16c10.87,10.51,12.91,16.66,9.26,23.08.34-.39,18.2-4.89,24.19,5.22s5.05,31.41-3.85,37.36-12.76,23.42-11.31,27.47c.46,1.3-.5,3.37-2.12,5.58h0c-3.42,4.68-9.78,10-11.78,9.94,0,0-5.24-2.66-7.76-12.92s4.81-12.44,4.81-12.44c7.16-1.6,15.95-16.81,11.79-25.63-3.5-7.45-8.29,2.07-9.7,5.21A1.67,1.67,0,0,0,308.42,125.11Z"/><path class="cls-1" d="M244.79,128.24a13,13,0,0,0-6.58,1s-.27,8.07,4.3,6.36C242.51,135.62,248.16,134.22,244.79,128.24ZM229,134.93a123.38,123.38,0,0,1,1.11-13.43s-4.57-12.41,4.93-8.11,21.54-7.34,21.54-7.34,14,11.9,22.26,2,27.56,14.68,24.19,16.83c0,0-.46,11.72-1.1,16.75-.49,1.44-.72,2.33-.52,2.24s.36-.93.52-2.24c1.6-4.65,5.85-15,6.48-16.55a1.67,1.67,0,0,1,.08-.2c1.41-3.14,6.2-12.66,9.7-5.21,4.16,8.82-4.63,24-11.79,25.63,0,0-7.34,2.18-4.81,12.44s7.76,12.92,7.76,12.92c2,0,8.36-5.26,11.78-9.94a100.82,100.82,0,0,0,2.61,9.94c1.85,5.75,4.57,11.94,7.81,12.34,7.62.94-12.64,35.7-20.64,36.84-5.92.85-16.81-25.3-22.08-39-1.85-4.82-3-8.08-3-8.08a50.3,50.3,0,0,1-26.47,12.07,24.37,24.37,0,0,1-10-1.29c-1.71-4.28-3.71-6-6-2.83C230.23,171.89,228.56,149.51,229,134.93Zm25.41-9.07c-6-10.54-21.66-4.36-21.66-4.36l1.33,3.41C248.89,120,254.42,125.86,254.42,125.86ZM279.94,128c-3.88-.81-6.55-.06-8.29,1,0,0-1.22,7.81,7.2,6C283.07,132.16,279.94,128,279.94,128Zm28,10s6.68-7.41,6-11.21-2.89.89-2.89.89ZM295.82,123.4l2.17-1.9c-1.69-11.4-27.68-4.81-30.33-1.8s1.2,5.21,1.2,5.21S282,116.43,295.82,123.4Z"/><path d="M313.87,126.81c.72,3.8-6,11.21-6,11.21L311,127.7S313.15,123,313.87,126.81Z"/><path d="M298,121.5l-2.17,1.9c-13.84-7-27,1.51-27,1.51s-3.85-2.2-1.2-5.21S296.3,110.1,298,121.5Z"/><path d="M279.94,128s3.13,4.12-1.09,7c-8.42,1.78-7.2-6-7.2-6C273.39,128,276.06,127.23,279.94,128Z"/><path class="cls-1" d="M254.88,210.25c1,7.75,1.55,14.2,1.65,15.33a96.14,96.14,0,0,0-20.11,5l0-.19a28.24,28.24,0,0,1,.36-5.63c-.62-2-1.35-4.28-2.22-6.75-5.8-16.44-17.64-18-14.12-22.82s17.71,14.63,17.71,14.63c-3.06-13.28-12.72-16.63-12.89-21.77,3.83-11,17.92,18.55,18.3,19.34-4-26-15.22-27.32-8.1-30.21s12.93,30,12.93,30c1.32-6.08-5.3-22.86-4.94-26.51,2.28-3.2,4.28-1.45,6,2.83C251.84,189.69,253.68,200.92,254.88,210.25Z"/><path d="M254.42,125.86s-5.53-5.89-20.33-1l-1.33-3.41S248.45,115.32,254.42,125.86Z"/><path d="M244.79,128.24c3.37,6-2.28,7.38-2.28,7.38-4.57,1.71-4.3-6.36-4.3-6.36A13,13,0,0,1,244.79,128.24Z"/><path class="cls-3" d="M254.42,125.86c-6-10.54-21.66-4.36-21.66-4.36l1.33,3.41C248.89,120,254.42,125.86,254.42,125.86Z"/><path class="cls-3" d="M263,149.1c-7.76,3.54-11.24,5.31-6.43-9.88.42-6.11-.49-10.39-2.17-13.36"/><path class="cls-3" d="M298,121.5c-1.69-11.4-27.68-4.81-30.33-1.8s1.2,5.21,1.2,5.21,13.12-8.48,27-1.51Z"/><path class="cls-3" d="M268.86,131.75a7.54,7.54,0,0,1,2.79-2.74c1.74-1,4.41-1.78,8.29-1a29.57,29.57,0,0,1,8.9,3.71"/><path class="cls-3" d="M253,134s-2.55-5.07-8.19-5.79a13,13,0,0,0-6.58,1,22.38,22.38,0,0,0-3.16,1.6"/><path class="cls-3" d="M271.65,129s-1.22,7.81,7.2,6c4.22-2.88,1.09-7,1.09-7"/><path class="cls-3" d="M238.21,129.26s-.27,8.07,4.3,6.36c0,0,5.65-1.4,2.28-7.38"/><path class="cls-3" d="M264.66,149.85s5.53.26,4.2-2.91"/><path class="cls-3" d="M254.91,168.34s7.94,5.32,19-7.59"/><path class="cls-3" d="M276.32,153.21c-8.67,11.46-24.3,11.87-24.3,11.87s3.13-5.41,13.71-8.64"/><path class="cls-3" d="M301.94,141.66c1.6-4.65,5.85-15,6.48-16.55"/><path class="cls-3" d="M301.94,141.66c-.16,1.31-.34,2.17-.52,2.24S301.45,143.1,301.94,141.66Z"/><path class="cls-3" d="M243.42,180.76c-13.19-8.87-14.86-31.25-14.41-45.83a123.38,123.38,0,0,1,1.11-13.43s-4.57-12.41,4.93-8.11,21.54-7.34,21.54-7.34,14,11.9,22.26,2,27.56,14.68,24.19,16.83c0,0-.46,11.72-1.1,16.75"/><path class="cls-3" d="M296.78,157.45a43.82,43.82,0,0,1-10.95,15.36,50.3,50.3,0,0,1-26.47,12.07,24.37,24.37,0,0,1-10-1.29"/><path class="cls-3" d="M311,127.7,307.91,138s6.68-7.41,6-11.21S311,127.7,311,127.7Z"/><path class="cls-3" d="M314.23,85.12c-1.6,2.82-4.3,5.7-7.82,9"/><path class="cls-3" d="M240,82.25a8.11,8.11,0,0,1-.65-1.37c-1.08-2.86-2.19-9.78,8.57-15.83,14-7.88,21.61.09,21.17,6.49s9.78-16.66,9.78-16.66,10.47-8,26.12,7.16c10.87,10.51,12.91,16.66,9.26,23.08"/><path class="cls-3" d="M321.14,160.75c-3.42,4.68-9.78,10-11.78,9.94,0,0-5.24-2.66-7.76-12.92s4.81-12.44,4.81-12.44c7.16-1.6,15.95-16.81,11.79-25.63-3.5-7.45-8.29,2.07-9.7,5.21a1.67,1.67,0,0,0-.08.2c-.21.46-.32.75-.32.75"/><path class="cls-3" d="M314.23,85.12h0c.34-.39,18.2-4.89,24.19,5.22s5.05,31.41-3.85,37.36-12.76,23.42-11.31,27.47c.46,1.3-.5,3.37-2.12,5.58"/><path class="cls-3" d="M239.34,80.89a0,0,0,0,1,0,0c-.45-.11-16.93-4.55-18.36,7.44-1.31,11,6.53,40.94,8,46.61l.26.93"/><path class="cls-3" d="M321.14,160.75h0a100.82,100.82,0,0,0,2.61,9.94c1.85,5.75,4.57,11.94,7.81,12.34,7.62.94-12.64,35.7-20.64,36.84-5.92.85-16.81-25.3-22.08-39-1.85-4.82-3-8.08-3-8.08"/><path class="cls-3" d="M288.84,180.89s-34.33,15.07-34,29.36a4.36,4.36,0,0,0,0,.51"/><path class="cls-3" d="M323.75,170.69s25.5-14.25,62.68,22.21c0,0,29,48.75,34.23,80.48"/><path class="cls-3" d="M300.19,240.16c-13.24,3.41-31.53-12.92-32.5-14.82-.41-.82-5.15-.65-11.16.24a96.14,96.14,0,0,0-20.11,5,28.6,28.6,0,0,0-3.31,1.55c-9.55,5.32,6.53,33.81,6.53,33.81a224.41,224.41,0,0,0,42.85,21.64c21.58,7.86,46.26,11.63,61.21-3.05,0,0,35.74-30.33,41.16-54.14"/><path class="cls-3" d="M323,236.46s18.53-3,20.45-23.3"/><path class="cls-3" d="M243.53,207.46v0c-.38-.79-14.47-30.39-18.3-19.34.17,5.14,9.83,8.49,12.89,21.77,0,0-14.2-19.41-17.71-14.63s8.32,6.38,14.12,22.82c.87,2.47,1.6,4.72,2.22,6.75a28.24,28.24,0,0,0-.36,5.63"/><path class="cls-3" d="M243.42,180.76c-.36,3.65,6.26,20.43,4.94,26.51,0,0-5.8-32.93-12.93-30s4.11,4.22,8.1,30.21"/><path class="cls-3" d="M256.54,225.76v-.18c-.1-1.13-.66-7.58-1.65-15.33-1.2-9.33-3-20.56-5.47-26.66-1.71-4.28-3.71-6-6-2.83"/><path class="cls-3" d="M282.36,288s11.88,28.45,11.34,31.64c-.48,2.82,96.91-12.91,127-46.29"/><path d="M110.39,175.4A7.77,7.77,0,0,1,110,174a1.63,1.63,0,0,1,.72-1.8,7.74,7.74,0,0,1,1.41-.78,54.34,54.34,0,0,1,6.52-2.5,34.07,34.07,0,0,1,6.57-1.38,26.05,26.05,0,0,1,6.31.07,16.49,16.49,0,0,1,5.74,1.87,16.87,16.87,0,0,1,4.88,4.06,22.56,22.56,0,0,1,3.71,6.57q3.78,9.86-.64,17.76t-18,13.09a2.64,2.64,0,0,1-2,.17,3.64,3.64,0,0,1-1.35-1.88Zm18.44,27.66a24.14,24.14,0,0,0,5.36-3,17.58,17.58,0,0,0,4.25-4.53,14.28,14.28,0,0,0,2.12-5.87,14.6,14.6,0,0,0-1.05-7.12,15.07,15.07,0,0,0-3.44-5.53,10.68,10.68,0,0,0-4.82-2.74,15.23,15.23,0,0,0-6-.2,30.08,30.08,0,0,0-7.09,2.06Z"/><path d="M162.91,196.4a1.66,1.66,0,0,1,0,1.07c-.1.2-.41.36-.92.48l-4.29,1.16a1.41,1.41,0,0,1-1-.05,2,2,0,0,1-.56-1.14l-9.94-37.67a2.4,2.4,0,0,1-.1-1.67,3.19,3.19,0,0,1,1.5-.91l4.08-1.56a3.94,3.94,0,0,1,.86-.24,1,1,0,0,1,.61.1,2.41,2.41,0,0,1,.57.47c.2.22.46.53.77.93l18.88,24-2-30.44c0-.51-.05-.91-.05-1.21a2.34,2.34,0,0,1,.11-.73,1,1,0,0,1,.39-.48,4.21,4.21,0,0,1,.8-.4l4.07-1.56a3.14,3.14,0,0,1,1.73-.33c.32.1.67.53,1,1.31l17.78,34.67a2,2,0,0,1,.34,1.22c-.06.24-.31.49-.73.73l-4,2c-.46.25-.79.34-1,.26a1.71,1.71,0,0,1-.7-.81l-13.08-25.7L180,189.19a2.25,2.25,0,0,1-.15,1.4,2.79,2.79,0,0,1-1.29.77l-2.4.92a2.85,2.85,0,0,1-1.47.29,2.27,2.27,0,0,1-1.05-.94l-18.39-23.31Z"/><path d="M125.86,145.37a7.86,7.86,0,0,1-.81.68c-.29.21-.59.41-.88.59a9.94,9.94,0,0,1-.86.5c-.27.15-.52.27-.75.37a7.71,7.71,0,0,1-2.71.72,5.76,5.76,0,0,1-2.41-.33,5.64,5.64,0,0,1-2-1.26,6.75,6.75,0,0,1-1.44-2.1,6.34,6.34,0,0,1-.59-2.52,5.82,5.82,0,0,1,.44-2.35,6.23,6.23,0,0,1,1.39-2,7.57,7.57,0,0,1,2.23-1.49,7.81,7.81,0,0,1,2.63-.7,6.34,6.34,0,0,1,2.37.24,5.36,5.36,0,0,1,1.92,1.08,5.19,5.19,0,0,1,1.32,1.8,4.84,4.84,0,0,1,.45,1.71,2.86,2.86,0,0,1-.32,1.46,4.19,4.19,0,0,1-1.13,1.3,11.82,11.82,0,0,1-1.95,1.23c-.37.19-.79.39-1.26.59a5.73,5.73,0,0,1-1.39.4,2.75,2.75,0,0,1-1.26-.1,1.55,1.55,0,0,1-.89-.89,1.67,1.67,0,0,1-.1-1.25,2.88,2.88,0,0,1,.66-1.09,6.57,6.57,0,0,1,1.09-.91c.42-.27.82-.52,1.2-.74a.76.76,0,0,0-.53-.32,1.76,1.76,0,0,0-.77.07,5,5,0,0,0-.93.39c-.32.18-.66.38-1,.62a.3.3,0,0,1-.22.09c-.06,0-.11,0-.16-.12l-.47-.89a.36.36,0,0,1-.06-.26c0-.06.07-.12.16-.19a13.67,13.67,0,0,1,1.42-.85,4.55,4.55,0,0,1,1.53-.49,2.52,2.52,0,0,1,1.44.21,2.56,2.56,0,0,1,1.15,1.29l1.11,2.29a2.58,2.58,0,0,0,.57-.45,1.42,1.42,0,0,0,.33-.6,2.13,2.13,0,0,0,0-.77,3.79,3.79,0,0,0-.31-1,4.1,4.1,0,0,0-.76-1.08,3.49,3.49,0,0,0-1.25-.8,4.25,4.25,0,0,0-1.72-.24,6.83,6.83,0,0,0-4,1.77,4.39,4.39,0,0,0-1,1.48,3.72,3.72,0,0,0-.22,1.66,5.3,5.3,0,0,0,.45,1.7,4.85,4.85,0,0,0,1.07,1.56,4,4,0,0,0,1.45.9,4.3,4.3,0,0,0,1.74.19,6.35,6.35,0,0,0,2-.54,12.29,12.29,0,0,0,1.63-.9c.52-.35,1-.66,1.32-1a.54.54,0,0,1,.28-.16s.13.05.22.18l.59.81c.1.12.15.2.14.24S126,145.26,125.86,145.37Zm-6.33-1.92q.19.44.87.24a8.08,8.08,0,0,0,1.72-.81l-.65-1.28a8.1,8.1,0,0,0-1.58,1Q119.38,143.1,119.53,143.45Z"/><path d="M128.1,139.93a5.44,5.44,0,0,1-.48-1.78,4.39,4.39,0,0,1,.17-1.67,3.78,3.78,0,0,1,.8-1.4,4.08,4.08,0,0,1,1.42-1,4.43,4.43,0,0,1,1.72-.4,3.68,3.68,0,0,1,1.58.34,4.48,4.48,0,0,1,1.35,1,5.44,5.44,0,0,1,1,1.54,5.75,5.75,0,0,1,.48,1.79A4.32,4.32,0,0,1,136,140a3.86,3.86,0,0,1-.8,1.4,4.26,4.26,0,0,1-1.44,1,4.16,4.16,0,0,1-1.71.39,4,4,0,0,1-1.57-.32,4.24,4.24,0,0,1-1.36-1A5.49,5.49,0,0,1,128.1,139.93Zm1.71-.77a3.79,3.79,0,0,0,.6.94,2.45,2.45,0,0,0,.77.57,2.06,2.06,0,0,0,.87.21,2.15,2.15,0,0,0,.94-.2,2.32,2.32,0,0,0,.78-.57,2.08,2.08,0,0,0,.43-.8,2.68,2.68,0,0,0,.08-.95,3.67,3.67,0,0,0-.3-1.07,3.38,3.38,0,0,0-.6-.93,2.78,2.78,0,0,0-.77-.59,2.06,2.06,0,0,0-.88-.2,2.2,2.2,0,0,0-.95.2,2.38,2.38,0,0,0-.77.57,2.18,2.18,0,0,0-.43.79,2.39,2.39,0,0,0-.07,1A3.61,3.61,0,0,0,129.81,139.16Z"/><path d="M142.57,133.39a7.38,7.38,0,0,0-.59-1.14,1.93,1.93,0,0,0-.64-.61,1.28,1.28,0,0,0-.78-.12,3.05,3.05,0,0,0-1,.32,9.92,9.92,0,0,0-1,.57,8.52,8.52,0,0,0-.83.58l2.65,5.87a.52.52,0,0,1,0,.37.65.65,0,0,1-.3.24l-1,.43a.51.51,0,0,1-.37.07.56.56,0,0,1-.23-.28l-4.6-10.23a.52.52,0,0,1-.06-.36q0-.12.3-.24l1-.44a.56.56,0,0,1,.38-.06.47.47,0,0,1,.24.27l1.18,2.65c.36-.25.76-.49,1.21-.75s.95-.5,1.5-.75a3.52,3.52,0,0,1,1.46-.35,2.79,2.79,0,0,1,1.25.32,3.12,3.12,0,0,1,1,.85,5.27,5.27,0,0,1,.75,1.3l1.84,4.44a.66.66,0,0,1,0,.37.51.51,0,0,1-.29.23l-1,.44a.51.51,0,0,1-.37.07.56.56,0,0,1-.23-.28Z"/><path d="M150.13,126.58a.43.43,0,0,1,.08.29c0,.06-.1.12-.23.18a5.13,5.13,0,0,0-2.44,1.91,2.51,2.51,0,0,0,0,2.41,2.28,2.28,0,0,0,.78,1,2.09,2.09,0,0,0,1.11.36,4,4,0,0,0,1.39-.21,10.45,10.45,0,0,0,1.61-.67.24.24,0,0,1,.2-.05.37.37,0,0,1,.14.14l.61,1.16a.22.22,0,0,1-.12.33,10.15,10.15,0,0,1-2.22,1,5.51,5.51,0,0,1-2.13.23,3.73,3.73,0,0,1-1.86-.71,4.42,4.42,0,0,1-1.4-1.85,4.61,4.61,0,0,1-.44-2.13,4.09,4.09,0,0,1,.56-1.86,5.18,5.18,0,0,1,1.41-1.52,7.63,7.63,0,0,1,2.06-1.1.37.37,0,0,1,.28,0,.57.57,0,0,1,.2.24Z"/><path d="M152.45,129a5.49,5.49,0,0,1-.48-1.79,4.36,4.36,0,0,1,.17-1.66,3.68,3.68,0,0,1,.79-1.4,4.22,4.22,0,0,1,1.43-1,4.35,4.35,0,0,1,1.72-.4,3.68,3.68,0,0,1,1.58.34,4.31,4.31,0,0,1,1.35,1,5.63,5.63,0,0,1,1,1.54,5.49,5.49,0,0,1,.48,1.79,4.15,4.15,0,0,1-.16,1.66,3.72,3.72,0,0,1-.8,1.4,4.47,4.47,0,0,1-3.14,1.41,3.86,3.86,0,0,1-1.58-.33,4.16,4.16,0,0,1-1.35-1A5.44,5.44,0,0,1,152.45,129Zm1.71-.77a3.46,3.46,0,0,0,.6.93,2.3,2.3,0,0,0,.76.58,2.23,2.23,0,0,0,.88.21,2.15,2.15,0,0,0,.94-.2,2.12,2.12,0,0,0,1.21-1.37,2.51,2.51,0,0,0,.07-1,3.27,3.27,0,0,0-.3-1.07,3.33,3.33,0,0,0-.6-.92,2.37,2.37,0,0,0-.77-.59,2.14,2.14,0,0,0-.87-.21,2.37,2.37,0,0,0-1,.21,2,2,0,0,0-.77.57,2.18,2.18,0,0,0-.43.79,2.39,2.39,0,0,0-.07,1A3.61,3.61,0,0,0,154.16,128.21Z"/><path d="M164,129.12a1.29,1.29,0,0,1-1,.06,1.21,1.21,0,0,1-.7-.65,1.17,1.17,0,0,1,0-1,1.3,1.3,0,0,1,.7-.7,1.26,1.26,0,0,1,1,0,1.14,1.14,0,0,1,.69.65,1.18,1.18,0,0,1,0,.94A1.28,1.28,0,0,1,164,129.12Z"/><path d="M161.81,117.65a1.22,1.22,0,0,1,0-1,1.28,1.28,0,0,1,.7-.71,1.39,1.39,0,0,1,1-.06,1.23,1.23,0,0,1,.74.67,1.18,1.18,0,0,1,0,1,1.41,1.41,0,0,1-.72.72,1.34,1.34,0,0,1-1,.06A1.26,1.26,0,0,1,161.81,117.65Zm1.59,2.63a.51.51,0,0,1-.06-.36c0-.09.13-.17.29-.25l1-.44a.45.45,0,0,1,.37-.06.52.52,0,0,1,.24.29l3.07,6.83a.52.52,0,0,1,.06.36q0,.12-.3.24l-1,.44a.53.53,0,0,1-.38.07.55.55,0,0,1-.23-.29Z"/><path d="M177,117.4a5.62,5.62,0,0,0-.5-.91,1.6,1.6,0,0,0-.51-.5,1,1,0,0,0-.59-.11,3.06,3.06,0,0,0-.74.23,2.9,2.9,0,0,0-.48.27,5.36,5.36,0,0,0-.49.34,3.42,3.42,0,0,1,.38.58c.11.22.22.44.31.67l2,4.69a.37.37,0,0,1-.24.6l-1,.44a.54.54,0,0,1-.38.07.45.45,0,0,1-.23-.28l-1.74-4.18a5.4,5.4,0,0,0-.51-1,1.28,1.28,0,0,0-.53-.49,1,1,0,0,0-.67,0,4.61,4.61,0,0,0-.91.42l-.33.19-.36.23,2.66,5.9a.45.45,0,0,1,0,.36c0,.09-.13.16-.29.24l-1,.44a.51.51,0,0,1-.37.07.56.56,0,0,1-.23-.28l-3.17-6.74a1,1,0,0,1-.16-.57c0-.11.16-.24.4-.38.49-.31,1-.61,1.46-.88s1-.53,1.44-.77a3,3,0,0,1,1.82-.38l.44-.39c.14-.11.29-.23.46-.34a4.15,4.15,0,0,1,.56-.34c.21-.11.47-.24.77-.37a3.66,3.66,0,0,1,1.28-.35,2.65,2.65,0,0,1,1.19.15,2.74,2.74,0,0,1,1,.71,4.23,4.23,0,0,1,.8,1.31l2,4.71a.51.51,0,0,1,0,.37.56.56,0,0,1-.29.24l-1,.43a.53.53,0,0,1-.38.07.56.56,0,0,1-.23-.28Z"/><path class="cls-4" d="M209.67,93v10.89a4.65,4.65,0,0,1-4.66,4.65h-4.68l-6.65,5.75v-5.75H189a4.66,4.66,0,0,1-4.66-4.65V93A4.66,4.66,0,0,1,189,88.33h16A4.66,4.66,0,0,1,209.67,93Zm-7.83,8c2.23-3.12,3.09-6.33,1.94-7.15s-3.9,1-6.12,4.16a16.6,16.6,0,0,0-1.12,1.76A16.7,16.7,0,0,0,195.45,98c-2.21-3.13-4.95-5-6.11-4.19s-.31,4,1.9,7.16a12.3,12.3,0,0,0,4.44,4.12l0,0a1.12,1.12,0,0,0,.74.18,1.26,1.26,0,0,0,.88-.17l.09-.08A12.41,12.41,0,0,0,201.84,101Z"/><path class="cls-5" d="M203.78,93.8c1.15.82.29,4-1.94,7.15a12.41,12.41,0,0,1-4.4,4.09l-.09.08a1.26,1.26,0,0,1-.88.17,1.12,1.12,0,0,1-.74-.18l0,0a12.3,12.3,0,0,1-4.44-4.12c-2.21-3.13-3.06-6.33-1.9-7.16s3.9,1.06,6.11,4.19a16.7,16.7,0,0,1,1.09,1.75A16.6,16.6,0,0,1,197.66,98C199.88,94.84,202.62,93,203.78,93.8Z"/><path class="cls-3" d="M205,88.33H189A4.66,4.66,0,0,0,184.33,93v10.89a4.66,4.66,0,0,0,4.66,4.65h4.69v5.75l6.65-5.75H205a4.65,4.65,0,0,0,4.66-4.65V93A4.66,4.66,0,0,0,205,88.33Z"/><path class="cls-3" d="M203.78,93.8c-1.16-.82-3.9,1-6.12,4.16a16.6,16.6,0,0,0-1.12,1.76A16.7,16.7,0,0,0,195.45,98c-2.21-3.13-4.95-5-6.11-4.19s-.31,4,1.9,7.16a12.3,12.3,0,0,0,4.44,4.12l0,0a1.12,1.12,0,0,0,.74.18,1.26,1.26,0,0,0,.88-.17l.09-.08a12.41,12.41,0,0,0,4.4-4.09C204.07,97.83,204.93,94.62,203.78,93.8Z"/><path class="cls-4" d="M110.44,266.76l3.71,7.06a3.41,3.41,0,0,0,4.61,1.43l3-1.6,6.27,1.45-1.95-3.72,3-1.6a3.41,3.41,0,0,0,1.43-4.61l-3.72-7.06a3.41,3.41,0,0,0-4.61-1.43l-10.38,5.47A3.41,3.41,0,0,0,110.44,266.76Zm7.79,2.49c-2.51-1.27-4.17-3.05-3.7-4s2.89-.66,5.39.61a11.74,11.74,0,0,1,1.32.76,13.51,13.51,0,0,1,.12-1.51c.36-2.78,1.5-4.93,2.53-4.8s1.57,2.51,1.2,5.29a9,9,0,0,1-1.46,4.19l0,0a.85.85,0,0,1-.41.38,1,1,0,0,1-.64.19l-.09,0A8.92,8.92,0,0,1,118.23,269.25Z"/><path class="cls-5" d="M114.53,265.27c-.47.93,1.19,2.71,3.7,4a8.92,8.92,0,0,0,4.24,1.14l.09,0a1,1,0,0,0,.64-.19.85.85,0,0,0,.41-.38l0,0a9,9,0,0,0,1.46-4.19c.37-2.78-.17-5.15-1.2-5.29s-2.17,2-2.53,4.8a13.51,13.51,0,0,0-.12,1.51,11.74,11.74,0,0,0-1.32-.76C117.42,264.61,115,264.34,114.53,265.27Z"/><path class="cls-3" d="M111.87,262.15l10.38-5.47a3.41,3.41,0,0,1,4.61,1.43l3.72,7.06a3.41,3.41,0,0,1-1.43,4.61l-3,1.6,1.95,3.72-6.27-1.45-3,1.6a3.41,3.41,0,0,1-4.61-1.43l-3.71-7.06A3.41,3.41,0,0,1,111.87,262.15Z"/><path class="cls-3" d="M114.53,265.27c.47-.93,2.89-.66,5.39.61a11.74,11.74,0,0,1,1.32.76,13.51,13.51,0,0,1,.12-1.51c.36-2.78,1.5-4.93,2.53-4.8s1.57,2.51,1.2,5.29a9,9,0,0,1-1.46,4.19l0,0a.85.85,0,0,1-.41.38,1,1,0,0,1-.64.19l-.09,0a8.92,8.92,0,0,1-4.24-1.14C115.72,268,114.06,266.2,114.53,265.27Z"/><path d="M40,387.78v-5.41H57.36V371.86h6.82v10.51H81.87v5.41Zm37.73-14.73C72,372,63.45,367.44,60.85,360.67,58.4,367.44,50,371.91,44.1,373.05L41,367.33c7.6-.88,16.19-6.66,16.19-15.14v-2.45H64.6v2.45c0,8.53,8.48,14.2,16.18,15.09Z"/><path d="M109.19,368.53V371h17.69v5.57H85V371h17.38v-2.44H90.25V349h31.37v5.41H97.07v1.87h23.52v5.15H97.07v1.93H122v5.15ZM106,393.76c-11.81,0-16.6-3.48-16.6-8.11s4.79-8.12,16.55-8.12,16.65,3.49,16.65,8.12S117.77,393.76,106,393.76Zm0-11c-5.57,0-9.31,1.15-9.31,2.92s3.74,2.81,9.31,2.81c5.78,0,9.42-1.1,9.42-2.81S111.69,382.73,105.91,382.73Z"/><path d="M146.92,385.49l-3.85-5.41c10.09-4.74,16.59-13.63,17.53-22.48H145.87v-5.67h22C167.52,365.51,162,377.22,146.92,385.49Zm33-15.19v23.2H173V347.14h6.86v17.49h6.66v5.67Z"/><path d="M188.7,373v-5.36h41.89V373Zm21,20.24c-10.2,0-16.18-3.54-16.18-8.84s6-8.9,16.08-8.9,16.23,3.48,16.23,8.9S219.71,393.19,209.67,393.19Zm-15.45-29.08V348.18h7v10.57h24.19v5.36Zm15.35,16.8c-5.41,0-9,1.46-9,3.49s3.59,3.43,9,3.43c5.56,0,9.15-1.46,9.15-3.43S215.13,380.91,209.57,380.91Z"/><path d="M233.61,359V354h26.95V359Zm13.63,15.29C240.58,374.3,236,371,236,367s4.53-7.29,11.24-7.29c6.56,0,11.19,3.23,11.19,7.29S253.8,374.3,247.24,374.3Zm-7.86,19.31V382.68h23.89v-1.77H239.38v-5h30.75v11.13H246.3v1.46H271v5.1Zm1.05-46.26h13.68V352H240.43Zm6.81,22.22c2.55,0,4.37-1,4.37-2.6s-1.82-2.61-4.37-2.61-4.32,1.05-4.32,2.61S244.69,369.57,247.24,369.57Zm22.89-4.37v9h-6.81V347.14h6.81v12.39h6.3v5.67Z"/><path d="M282.89,383.2l-5.26-3.9c6.35-5.93,8.17-15,8.12-21.6H280v-5.82h12.39C292.67,365.61,290.07,375.55,282.89,383.2Zm13.21,3.28-5.51-3.7c5.88-6.86,8.06-17.22,8-25.08h-3.9v-5.82H305.1C305.42,365.72,303.49,376.8,296.1,386.48Zm19.15-21.23h6.45v5.67h-6.45V393.5h-6.71V347.14h6.71Z"/><path d="M323.73,387.78v-5.46h8.9V375l7,.31v7h9.93v-7l7-.31v7.29h9v5.46Zm20.92-14c-10.41,0-17.22-4.94-17.22-12.07s6.81-12,17.22-12,17.28,4.89,17.28,12S355.11,373.73,344.65,373.73Zm0-18.73c-6.24,0-10.25,2.86-10.25,6.71s4,6.82,10.25,6.82,10.25-2.86,10.25-6.82S350.89,355,344.65,355Z"/><path d="M373.11,373c0-3.59,1.67-5.05,5-7.7,2.08-1.61,3-2.81,3-5.36,0-3-1.93-4.16-5.78-4.16a17.91,17.91,0,0,0-6.66,1.19v-5.09a21,21,0,0,1,8.69-1.57c6.19,0,11,2.55,11,9,0,4.52-1.51,6.19-5.2,9-2.81,2.08-4,2.91-4,5.2V377h-6.09Zm-.36,8.69h7v6.61h-7Z"/><path d="M399.76,350.84h5.72L413,363.58h-5.61l-4.79-7.12-4.74,7.12h-5.67Z"/><path d="M424.63,350.84h5.72l7.55,12.74h-5.62l-4.79-7.12-4.73,7.12h-5.67Z"/><path class="cls-6" d="M93.38,414.85v3.46h6.92v1h-15v-1h6.86v-3.46C89,414.68,87,413,87,410.52c0-2.66,2.3-4.39,5.78-4.39s5.81,1.73,5.81,4.39C98.59,413,96.54,414.68,93.38,414.85Zm-.6-7.63c-2.76,0-4.58,1.34-4.58,3.3s1.82,3.29,4.58,3.29,4.61-1.33,4.61-3.29S95.57,407.22,92.78,407.22Z"/><path class="cls-6" d="M101.74,419.09v-1h6v-4.29H109V418h7.73v1Zm12.94-10.35a36.78,36.78,0,0,1-.63,7.21l-1.18-.17a29.56,29.56,0,0,0,.46-4.08l-9.84.55-.23-1.08,10.11-.46c0-.46,0-.91,0-1.35v-1.54h-9.73v-1h11Z"/><path class="cls-6" d="M118.17,414.7v-1h15v1Zm2.09,6.46v-4.83h1.2v3.78h10v1.05Zm0-9.86v-5.76h1.2v4.71h9.88v1.05Z"/><path class="cls-6" d="M148.79,414.62a7.59,7.59,0,0,1-4.08-3.4,7.2,7.2,0,0,1-4.24,3.88l-.64-1c2.14-.59,4.27-2.71,4.27-4.73v-.09h-3.7v-1.05H149v1.05h-3.7v.09c0,1.94,2.14,3.8,4.1,4.24Zm-1,6.86c-3.55,0-5.52-1.14-5.52-3s2-3,5.52-3,5.53,1.14,5.53,3S151.38,421.48,147.82,421.48Zm-5.31-14.8v-1h4.4v1Zm5.31,9.88c-2.64,0-4.21.71-4.21,1.94s1.57,1.92,4.21,1.92,4.22-.69,4.22-1.92S150.48,416.56,147.82,416.56Zm4.09-1.21V405h1.21v10.38Z"/><path class="cls-6" d="M164.77,415.23a7.38,7.38,0,0,1-4.05-3.51,7.4,7.4,0,0,1-4.25,4l-.67-.95c2.15-.61,4.29-2.83,4.29-4.83v-.26h-3.74v-1h8.7v1h-3.72v.24c0,2,2.16,3.94,4.1,4.37ZM158.44,421v-5h1.22V420h9.78v1Zm0-14.19v-1h4.41v1Zm10.24,4.48V417H167.5V405h1.22v5.28h2.58v1Z"/><path class="cls-6" d="M172.76,418.21h1.54l-1.38,3.71H172Z"/><path class="cls-6" d="M183.44,421.35v-3.67h9.86v-1.5h-10v-1h5V413.5h-6.86v-1h15v1h-6.91v1.64h4.95v3.57h-9.86v1.61h10.51v1Zm.07-10.28v-5.55h1.22v1.73h8.51v-1.73h1.22v5.55Zm9.73-2.79h-8.51V410h8.51Z"/><path class="cls-6" d="M198.29,415l-.19-1.12c.72,0,1.47,0,2.19,0l-.52-5.24,1.22-.17.4,5.39,2.53-.05.49-5.38,1.22.15-.59,5.19c.93-.06,1.71-.13,2.3-.23l.11,1A82.44,82.44,0,0,1,198.29,415Zm.23-7.52v-1h8.61v1Zm2.3,13.51v-4.9H202V420h9.74v1Zm6.44-12.79h3V405h1.22V417h-1.22v-4.45h-3v-1h3v-2.3h-3Z"/><path class="cls-6" d="M214.29,409.21v-1h9.51v1ZM219,415.9c-2.17,0-3.8-1.12-3.8-2.89s1.61-2.87,3.8-2.87,3.8,1.07,3.8,2.87S221.2,415.9,219,415.9Zm0-4.73c-1.41,0-2.61.66-2.61,1.84s1.2,1.84,2.61,1.84,2.6-.68,2.6-1.84S220.42,411.17,219,411.17Zm-2.38-4.37v-1.05h4.73v1.05Zm.1,14.19v-4.16H218V420h9.79v1ZM227,411.83v5.28h-1.21V405H227v5.84h2.59v1Z"/><path class="cls-6" d="M236.36,406.27h8.7v1h-3.74v1c0,2.2,2.11,4.2,4.12,4.86l-.7,1a8.22,8.22,0,0,1-4.07-3.78c-.42,1.54-2.37,3.42-4.22,4.24l-.68-.94c2.11-.83,4.33-3.13,4.33-5.37v-1h-3.74Zm2.45,15.06v-5.77h10.5v5.77Zm9.29-4.75H240v3.72h8.07Zm-3.33-6.21v-1h3.31V405h1.22v9.71h-1.22v-4.31Z"/><path class="cls-6" d="M252.5,418.21H254l-1.38,3.71h-.9Z"/><path class="cls-6" d="M261.49,417.44l-.21-1.11h2.53l-.63-7.05,1.25-.15.5,7.16c.93,0,1.88-.06,2.77-.1l.51-7.06,1.26.15-.63,6.86c1.31-.1,2.45-.19,3.23-.29l.11,1C269.6,417.15,264.36,417.4,261.49,417.44Zm.23-9.58v-1H271v1Zm11.76,13.72V405h1.21v16.61Z"/><path class="cls-6" d="M278.72,418.48l-.8-1a11.25,11.25,0,0,0,6.06-5.72l-5.76.63-.3-1.14,6.44-.49a11.12,11.12,0,0,0,.48-3h-6v-1h7.34C286.07,413,283.22,416.13,278.72,418.48Zm11.62-6.55h2.8v1h-2.8v8.63h-1.21V405h1.21Z"/><path class="cls-6" d="M298.09,421.6v-5.47h-4v-1.05h15v1.05h-4v5.47h-1.22v-5.47h-4.5v5.47Zm9.62-7.87c-2.91-.53-5.42-2.05-6.14-3.55-.63,1.5-3.06,3.1-6.08,3.61l-.55-1c2.6-.3,5.64-1.78,6-3.84h-5.3v-1H307.5v1h-5.25c.38,2.08,3.63,3.52,6,3.78Zm-8.84-7.27v-1h5.42v1Z"/><path class="cls-6" d="M315.51,419.26v-1h15v1Zm13.66-4.71c-2.94-.95-5.6-3.36-6.19-4.9-.5,1.52-3,4-6.14,4.86l-.66-1c2.71-.57,6.19-3.23,6.19-5.87v-1.18h1.25v1.18c0,2.64,3.67,5.3,6.23,5.91Z"/><path class="cls-6" d="M333,417.47V406.59h7.58v1h-6.36v3.61h5.85v1h-5.85v4.16a41.32,41.32,0,0,0,7.85-.59l.15,1.05A57.82,57.82,0,0,1,333,417.47Zm12.43,4.11h-1.22V405h1.22Z"/><path class="cls-6" d="M349.28,418.48l-.81-1a11.17,11.17,0,0,0,6-5.72l-5.74.63-.3-1.14,6.4-.49a11.53,11.53,0,0,0,.48-3h-6.07v-1h7.36C356.58,413,353.77,416.13,349.28,418.48Zm7.45-5.77v-1h3.93V405h1.22v16.61h-1.22v-8.87Z"/><path class="cls-6" d="M369.8,414.13v-1h15v1Zm7.48,7.41c-3.6,0-5.68-1.08-5.68-2.91s2.08-2.9,5.68-2.9,5.7,1,5.7,2.9S380.91,421.54,377.28,421.54Zm-5.52-10.37v-5.38h11v1H373v3.32h9.92v1Zm1.1,7.46c0,1.18,1.69,1.85,4.42,1.85s4.45-.67,4.45-1.85-1.67-1.84-4.45-1.84S372.86,417.47,372.86,418.63Z"/><path class="cls-6" d="M158.32,429c2.45,0,3.87,2,4,5.25h4v-6.46h1.21v16.6H166.3v-9.1h-4c-.12,3.27-1.54,5.34-4,5.34s-4-2.28-4-5.81S155.72,429,158.32,429Zm0,1.09c-1.73,0-2.85,2-2.85,4.75s1.12,4.73,2.85,4.73,2.87-2,2.87-4.73S160.05,430.07,158.32,430.07Z"/><path class="cls-6" d="M171,440.14v-10.6h4v1h-2.76V439a11.69,11.69,0,0,0,3.12-.36l.17,1A18.2,18.2,0,0,1,171,440.14Zm5,0v-10.6h4.41v1h-3.19V439a18.56,18.56,0,0,0,4-.4l.19,1A25.91,25.91,0,0,1,176,440.14Zm3.74-5v-1h3.12v-6.32h1.21v16.6H182.9v-9.25Z"/><path class="cls-6" d="M186.79,432v-1h9.52v1Zm4.75,6.69c-2.17,0-3.8-1.12-3.8-2.89s1.62-2.86,3.8-2.86,3.8,1.06,3.8,2.86S193.71,438.69,191.54,438.69Zm0-4.73c-1.4,0-2.6.67-2.6,1.84s1.2,1.85,2.6,1.85,2.6-.69,2.6-1.85S192.93,434,191.54,434Zm-2.37-4.37v-1h4.73v1Zm.09,14.19v-4.16h1.22v3.14h9.78v1Zm10.28-9.15v5.28h-1.22V427.77h1.22v5.83h2.58v1Z"/><path class="cls-6" d="M209.19,429.5h3.61c3.95,0,6.06,1.95,6.06,6.1v.3c0,4.08-1.9,6.34-6,6.34h-3.64Zm3.66,11.68c3.21,0,4.68-1.56,4.68-5.11v-.47c0-3.69-1.68-5-4.83-5h-2.3v10.62Z"/><path class="cls-6" d="M221.4,429.5h1.84l3.95,11.09h.06l3.95-11.09H233v12.74h-1.24V431.09h0l-4,11.15h-1.16l-4-11.15h0v11.15H221.4Z"/><path class="cls-6" d="M235.4,442.24v-1h6.86v-4.39h-4.87v-7.6h11v1.05h-9.82v5.51h9.9v1h-5v4.39h6.92v1Z"/><path class="cls-6" d="M257.47,436.34V428.7h1.22v2.7h5.2v-2.7h1.22v7.64Zm6.42-3.9h-5.2v2.87h5.2Zm-4.69,11.69v-5.82h10.35v1h-9.13v3.78h9.29v1Zm10.32-10.74v3.86H268.3v-9.48h1.22v4.6h2.58v1Z"/><path class="cls-6" d="M273.26,436.49v-1.05h15v1.05ZM286.75,434c-2.55-.51-5.23-2.2-6-3.86-.7,1.66-3.44,3.35-6,3.86l-.59-1c2.55-.28,5.95-2.26,5.95-4.52V428h1.25v.53c0,2.26,3.42,4.24,6,4.52Zm-11.46,10.14v-6.28h1.22v2.05H285v-2.05h1.21v6.28ZM285,441h-8.51v2.17H285Z"/><path class="cls-6" d="M290.77,440.19V429.48H292v9.63a48.48,48.48,0,0,0,8.15-.78l.17,1A54.56,54.56,0,0,1,290.77,440.19Zm11.06,4.18v-16.6H303v16.6Z"/><path class="cls-6" d="M306.88,440.19V429.5h7.73v1h-6.52v8.57a38.76,38.76,0,0,0,8-.53l.17,1A46.47,46.47,0,0,1,306.88,440.19Zm11.93-4.71v8.89h-1.22v-16.6h1.22v6.69h2.77v1Z"/></svg>