<svg xmlns="http://www.w3.org/2000/svg" viewBox="0 0 679 497.55"><defs><style>.cls-1{fill:#fff;}.cls-2{fill:#eaeaea;}.cls-3{fill:none;stroke:#000;stroke-miterlimit:10;}.cls-4{fill:#c6c6c6;}.cls-5{fill:#919191;}</style></defs><g id="레이어_2" data-name="레이어 2"><g id="레이어_1-2" data-name="레이어 1"><path class="cls-1" d="M242.77,377.13c-14-2.2-45.33-7.82-61.61-16.16l-.16-.08-.18,0c-.11,0-10.95,2.33-27.51,2.33-30.16,0-87.27-7.91-131-60.91A94.65,94.65,0,0,1,8.64,203.21c15-33.87,47.26-78.63,115.38-99.53.58-.17,58-17.7,113.84-17.7,54.41,0,88.91,16,102.55,47.58,18.52,42.85,7.77,84.18-4.51,111.3-20,44.21-58.5,82-95.77,94.06-17.67,5.72-26.52,11.91-26.32,18.41C214.09,366.56,232.43,373.79,242.77,377.13Z"/><path d="M237.86,86.48c24.4,0,45.07,3.32,61.46,9.86,19.62,7.84,33.29,20.43,40.63,37.41A121.68,121.68,0,0,1,349.54,190c-1.1,18-5.85,36.42-14.09,54.63a197.24,197.24,0,0,1-42.06,59.59c-16.88,16.38-35.85,28.53-53.42,34.21-18.15,5.87-26.87,12.05-26.66,18.9.25,8,13.45,14.49,23.85,18.36-15.53-2.64-41.49-7.86-55.78-15.19l-.31-.16-.35.08a145.21,145.21,0,0,1-27.41,2.31,177.61,177.61,0,0,1-61.45-10.9C65,341.78,41.69,325,22.73,302A94.63,94.63,0,0,1,9.1,203.42a174.8,174.8,0,0,1,38.31-55.18c20.64-20,46.46-34.78,76.76-44.08.58-.17,57.89-17.68,113.69-17.68m0-1c-56.61,0-114,17.73-114,17.73C56.59,123.84,24,167.47,8.18,203A95.66,95.66,0,0,0,22,302.66c43.06,52.23,98.61,61.09,131.35,61.09,16.82,0,27.62-2.34,27.62-2.34,21.58,11.07,68.81,17.26,68.81,17.26s-73-18.73-9.46-39.27,137.65-120.28,100.59-206c-16.14-37.35-59.34-47.88-103-47.88Z"/><path class="cls-2" d="M421.74,436.92c-43.17-15.71-79.64-40.23-79.64-40.23S312.22,343.75,330,333.87a56.57,56.57,0,0,1,6.15-2.89c10.48-4.24,25.31-7.58,37.36-9.36-.17-2.08-1.21-14.08-3.06-28.5-.68-26.55,63.1-54.57,63.1-54.57,9.79,25.42,30,74,41,72.45,14.89-2.11,52.53-66.71,38.36-68.47-6-.74-11.08-12.25-14.51-22.94,0,0,47.39-26.47,116.49,41.3,0,0,53.87,90.57,63.6,149.55h0c-55.84,62-236.82,91.26-235.93,86,1-5.92-21.08-58.79-21.08-58.79Z"/><path d="M341.53,52.72c-2-5.33-4.09-18.18,15.91-29.44,26-14.63,40.18.18,39.35,12.07S415,4.4,415,4.4s19.46-14.82,48.53,13.31c20.2,19.53,24,30.95,17.22,42.88.37-.67,33.77-9.15,44.95,9.69s9.4,58.37-7.16,69.43-23.7,43.53-21,51.06c.85,2.41-.92,6.25-3.93,10.35h0c-6.37,8.69-18.19,18.54-21.9,18.46,0,0-9.74-4.94-14.43-24s8.95-23.1,8.95-23.1c13.31-3,29.63-31.25,21.91-47.65-6.5-13.83-15.4,3.83-18,9.69-.07.17-.13.32-.2.47-1.31,3.2-9,22.08-12,30.63,1.18-9.37,2-31.1,2-31.1,6.26-4-29.52-49.64-45-31.29s-41.37-3.77-41.37-3.77-22.36,21.65-40,13.65-9.17,15.06-9.17,15.06a227.43,227.43,0,0,0-2.05,25C319.54,142.62,305,87,307.41,66.53,310.07,44.19,340.87,52.54,341.53,52.72Z"/><path class="cls-1" d="M369.56,136.28c-11.09-19.56-40.23-8.1-40.23-8.1l2.45,6.35C358.69,125.56,369.12,135.83,369.56,136.28Zm-30.11,6.33s-.51,15,8,11.82c0,0,10.5-2.6,4.25-13.72A24,24,0,0,0,339.45,142.61Zm88.49,80.92c-22.2,20-49.19,22.43-49.19,22.43a44.86,44.86,0,0,1-18.48-2.37h0c-3.18-8-6.89-11.22-11.13-5.27-24.52-16.48-27.61-58.09-26.77-85.18a227.43,227.43,0,0,1,2.05-25s-8.5-23.06,9.17-15.06,40-13.65,40-13.65,25.95,22.12,41.37,3.77,51.22,27.29,45,31.29c0,0-.85,21.73-2,31.1-.92,2.69-1.36,4.36-1,4.2s.68-1.75,1-4.2c2.93-8.55,10.66-27.43,12-30.63.07-.15.13-.3.2-.47,2.63-5.86,11.53-23.52,18-9.69,7.72,16.4-8.6,44.66-21.91,47.65,0,0-13.65,4-8.95,23.1s14.43,24,14.43,24c3.71.08,15.53-9.77,21.9-18.46a190,190,0,0,0,4.84,18.46c3.43,10.69,8.49,22.2,14.51,22.94,14.17,1.76-23.47,66.36-38.36,68.47-11,1.57-31.24-47-41-72.45C430.09,229.6,427.94,223.53,427.94,223.53Zm-26.36-81.38s-2.26,14.5,13.39,11.21c7.83-5.36,2-13,2-13h0C409.77,138.85,404.82,140.24,401.58,142.15ZM469,158.89s12.41-13.77,11.06-20.83-5.36,1.65-5.36,1.65Zm-22.48-27.18,4-3.53c-3.13-21.18-51.43-8.94-56.35-3.34s2.23,9.69,2.23,9.69S420.79,118.77,446.51,131.71Z"/><path d="M480.05,138.06c1.35,7.06-11.06,20.83-11.06,20.83l5.7-19.18S478.71,131,480.05,138.06Z"/><path d="M450.53,128.18l-4,3.53c-25.72-12.94-50.1,2.82-50.1,2.82s-7.16-4.08-2.23-9.69S447.4,107,450.53,128.18Z"/><path d="M417,140.35s5.8,7.65-2,13c-15.65,3.29-13.39-11.21-13.39-11.21,3.24-1.91,8.19-3.3,15.42-1.81Z"/><path class="cls-1" d="M349.34,287.89c-7.43-48.29-28.3-50.75-15.06-56.12s24,55.82,24,55.82c2.45-11.3-9.84-42.48-9.18-49.27,4.24-5.95,7.95-2.69,11.13,5.27,4.52,11.33,7.93,32.19,10.17,49.53,1.85,14.42,2.89,26.42,3.06,28.5-12.05,1.78-26.88,5.12-37.36,9.36l-.06-.35a52.24,52.24,0,0,1,.66-10.45c-1.14-3.79-2.5-8-4.12-12.56-10.79-30.55-32.77-33.51-26.24-42.4s32.91,27.2,32.91,27.2c-5.69-24.69-23.63-30.91-23.95-40.46C322.45,231.41,348.64,286.43,349.34,287.89Z"/><path d="M369.56,136.28c-.44-.45-10.87-10.72-37.78-1.75l-2.45-6.35S358.47,116.72,369.56,136.28Z"/><path d="M351.69,140.71c6.25,11.12-4.25,13.72-4.25,13.72-8.5,3.18-8-11.82-8-11.82A24,24,0,0,1,351.69,140.71Z"/><path class="cls-3" d="M369.56,136.28c-11.09-19.56-40.23-8.1-40.23-8.1l2.45,6.35C358.69,125.56,369.12,135.83,369.56,136.28Z"/><path class="cls-3" d="M369.56,136.28l0,0"/><path class="cls-3" d="M385.56,179.47c-14.43,6.59-20.9,9.89-12-18.35.79-11.36-.9-19.31-4-24.82"/><path class="cls-3" d="M450.53,128.18c-3.13-21.18-51.43-8.94-56.35-3.34s2.23,9.69,2.23,9.69,24.38-15.76,50.1-2.82Z"/><path class="cls-3" d="M396.41,147.24a14.06,14.06,0,0,1,5.17-5.09c3.24-1.91,8.19-3.3,15.42-1.81a55.1,55.1,0,0,1,16.53,6.9"/><path class="cls-3" d="M366.9,151.47s-4.73-9.42-15.21-10.76a24,24,0,0,0-12.24,1.9,40.14,40.14,0,0,0-5.87,3"/><path class="cls-3" d="M401.58,142.15s-2.26,14.5,13.39,11.21c7.83-5.36,2-13,2-13"/><path class="cls-3" d="M339.45,142.61s-.51,15,8,11.82c0,0,10.5-2.6,4.25-13.72"/><path class="cls-3" d="M388.59,180.89s10.28.47,7.82-5.42"/><path class="cls-3" d="M370.47,215.24s14.76,9.88,35.34-14.12"/><path class="cls-3" d="M410.27,187.12c-16.11,21.3-45.17,22.07-45.17,22.07s5.83-10.07,25.5-16.07"/><path class="cls-3" d="M457.9,165.63c2.93-8.55,10.66-27.43,12-30.63"/><path class="cls-3" d="M457.9,165.63c-.31,2.45-.64,4.05-1,4.2S457,168.32,457.9,165.63Z"/><path class="cls-3" d="M349.13,238.32c-24.52-16.48-27.61-58.09-26.77-85.18a227.43,227.43,0,0,1,2.05-25s-8.5-23.06,9.17-15.06,40-13.65,40-13.65,25.95,22.12,41.37,3.77,51.22,27.29,45,31.29c0,0-.85,21.73-2,31.1"/><path class="cls-3" d="M448.29,195a81.31,81.31,0,0,1-20.35,28.53c-22.2,20-49.19,22.43-49.19,22.43a44.86,44.86,0,0,1-18.48-2.37"/><path class="cls-3" d="M474.69,139.71,469,158.89s12.41-13.77,11.06-20.83S474.69,139.71,474.69,139.71Z"/><path class="cls-3" d="M342.74,55.24a14.47,14.47,0,0,1-1.21-2.52c-2-5.33-4.09-18.18,15.91-29.44,26-14.63,40.18.18,39.35,12.07S415,4.4,415,4.4s19.46-14.82,48.53,13.31c20.2,19.53,24,30.95,17.22,42.88-3,5.24-8,10.59-14.53,16.77"/><path class="cls-3" d="M493.57,201.13c-6.37,8.69-18.19,18.54-21.9,18.46,0,0-9.74-4.94-14.43-24s8.95-23.1,8.95-23.1c13.31-3,29.63-31.25,21.91-47.65-6.5-13.83-15.4,3.83-18,9.69-.07.17-.13.32-.2.47-.35.81-.55,1.3-.55,1.3"/><path class="cls-3" d="M480.72,60.59c.37-.67,33.77-9.15,44.95,9.69s9.4,58.37-7.16,69.43-23.7,43.53-21,51.06c.85,2.41-.92,6.25-3.93,10.35"/><path class="cls-3" d="M341.54,52.73h0c-.66-.18-31.46-8.53-34.12,13.81C305,87,319.54,142.62,322.36,153.14c.3,1.12.47,1.73.47,1.73"/><path class="cls-3" d="M493.57,201.12h0a190,190,0,0,0,4.84,18.46c3.43,10.69,8.49,22.2,14.51,22.94,14.17,1.76-23.47,66.36-38.36,68.47-11,1.57-31.24-47-41-72.45-3.44-9-5.59-15-5.59-15"/><path class="cls-3" d="M433.53,238.55s-63.78,28-63.1,54.57c0,.32,0,.63,0,.94"/><path class="cls-3" d="M498.41,219.59s47.39-26.47,116.49,41.3c0,0,53.87,90.57,63.6,149.55"/><path class="cls-3" d="M454.62,348.69c-24.6,6.36-58.59-24-60.38-27.52-.77-1.53-9.58-1.21-20.75.45-12.05,1.78-26.88,5.12-37.36,9.36a56.57,56.57,0,0,0-6.15,2.89c-17.76,9.88,12.12,62.82,12.12,62.82s36.47,24.52,79.64,40.23c40.1,14.61,86,21.62,113.75-5.66,0,0,66.41-56.37,76.48-100.63"/><path class="cls-3" d="M497.05,341.83s34.43-5.65,38-43.3"/><path class="cls-3" d="M349.35,287.92a0,0,0,0,0,0,0c-.7-1.46-26.89-56.48-34-35.93.32,9.55,18.26,15.77,23.95,40.46,0,0-26.37-36.09-32.91-27.2s15.45,11.85,26.24,42.4c1.62,4.59,3,8.77,4.12,12.56a52.24,52.24,0,0,0-.66,10.45"/><path class="cls-3" d="M349.13,238.32c-.66,6.79,11.63,38,9.18,49.27,0,0-10.79-61.19-24-55.82s7.63,7.83,15.06,56.12"/><path class="cls-3" d="M373.52,321.94l0-.32c-.17-2.08-1.21-14.08-3.06-28.5-2.24-17.34-5.65-38.2-10.17-49.53-3.18-8-6.89-11.22-11.13-5.27"/><path class="cls-3" d="M421.49,437.66s22.09,52.87,21.08,58.79c-.89,5.25,180.09-24,235.93-86"/><path d="M101.91,228.36a14.42,14.42,0,0,1-.75-2.55,3.33,3.33,0,0,1,.11-1.88,3.47,3.47,0,0,1,1.22-1.46A13.43,13.43,0,0,1,105.1,221a102.24,102.24,0,0,1,12.13-4.65,64.59,64.59,0,0,1,12.2-2.56,48.84,48.84,0,0,1,11.73.12,31,31,0,0,1,10.68,3.48A31.64,31.64,0,0,1,160.9,225a42,42,0,0,1,6.9,12.21q7,18.33-1.2,33t-33.46,24.33c-1.61.62-2.85.72-3.71.31s-1.7-1.57-2.51-3.49Zm34.27,51.4a44.74,44.74,0,0,0,10-5.66,32.24,32.24,0,0,0,7.9-8.42A26.35,26.35,0,0,0,158,254.77,27,27,0,0,0,156,241.56a28.19,28.19,0,0,0-6.39-10.29,19.64,19.64,0,0,0-9-5.08,28.3,28.3,0,0,0-11.21-.38,56,56,0,0,0-13.17,3.82Z"/><path d="M199.52,267.39a3.23,3.23,0,0,1,0,2c-.19.37-.77.66-1.72.88l-8,2.16a2.63,2.63,0,0,1-1.93-.1,3.67,3.67,0,0,1-1-2.11l-18.48-70c-.44-1.54-.5-2.57-.19-3.1a5.93,5.93,0,0,1,2.8-1.69l7.57-2.89a6.91,6.91,0,0,1,1.61-.45,1.84,1.84,0,0,1,1.13.18,4.21,4.21,0,0,1,1,.87c.38.41.86,1,1.45,1.73l35.08,44.52-3.65-56.56c-.07-.94-.09-1.69-.09-2.25a4.17,4.17,0,0,1,.21-1.36,1.87,1.87,0,0,1,.71-.89,7.45,7.45,0,0,1,1.5-.74l7.57-2.9a5.9,5.9,0,0,1,3.21-.61c.59.18,1.23,1,1.93,2.43l33,64.44a3.63,3.63,0,0,1,.65,2.25,2.64,2.64,0,0,1-1.37,1.36l-7.37,3.72a2.6,2.6,0,0,1-1.87.49,3.26,3.26,0,0,1-1.3-1.51l-24.3-47.75L231.32,254a4.32,4.32,0,0,1-.28,2.61,5.28,5.28,0,0,1-2.4,1.42l-4.46,1.71a5.37,5.37,0,0,1-2.74.55,4.21,4.21,0,0,1-1.95-1.75l-34.18-43.31Z"/><path d="M130.66,172.55a13.49,13.49,0,0,1-1.5,1.26c-.54.4-1.09.76-1.64,1.11s-1.08.65-1.59.93-1,.5-1.39.69a14.82,14.82,0,0,1-5,1.33,11,11,0,0,1-4.49-.61,10.34,10.34,0,0,1-3.7-2.36,12.48,12.48,0,0,1-2.68-3.88,11.83,11.83,0,0,1-1.1-4.69,10.46,10.46,0,0,1,.83-4.36,11.26,11.26,0,0,1,2.57-3.72,14.17,14.17,0,0,1,4.13-2.77,14.74,14.74,0,0,1,4.9-1.31,11.73,11.73,0,0,1,4.4.45,9.76,9.76,0,0,1,6,5.35,8.67,8.67,0,0,1,.84,3.17,5.24,5.24,0,0,1-.59,2.72,7.8,7.8,0,0,1-2.09,2.41,23.33,23.33,0,0,1-3.64,2.3c-.68.35-1.46.71-2.33,1.08a10.22,10.22,0,0,1-2.59.74,4.9,4.9,0,0,1-2.34-.17,2.82,2.82,0,0,1-1.66-1.66,3.14,3.14,0,0,1-.19-2.33,5.47,5.47,0,0,1,1.24-2,10.66,10.66,0,0,1,2-1.69c.77-.51,1.51-1,2.22-1.37a1.42,1.42,0,0,0-1-.61,3.34,3.34,0,0,0-1.43.14,8.34,8.34,0,0,0-1.72.72c-.61.33-1.23.71-1.88,1.15a.65.65,0,0,1-.41.17c-.11,0-.21-.08-.3-.23l-.87-1.65a.64.64,0,0,1-.12-.49.75.75,0,0,1,.3-.34,23.93,23.93,0,0,1,2.64-1.58,8.7,8.7,0,0,1,2.85-.92,4.38,4.38,0,0,1,4.82,2.79l2,4.26a5,5,0,0,0,1.06-.85,2.56,2.56,0,0,0,.62-1.1,3.77,3.77,0,0,0,.06-1.44,7,7,0,0,0-2-3.87,6.31,6.31,0,0,0-2.32-1.49,8.11,8.11,0,0,0-3.21-.45,10.92,10.92,0,0,0-4,1.07,11.36,11.36,0,0,0-3.35,2.22,8.08,8.08,0,0,0-1.82,2.75,7,7,0,0,0-.42,3.08,9.69,9.69,0,0,0,.84,3.17,9.26,9.26,0,0,0,2,2.9,7.29,7.29,0,0,0,2.69,1.66,7.87,7.87,0,0,0,3.24.35,11.07,11.07,0,0,0,3.63-1,20.85,20.85,0,0,0,3-1.68,28,28,0,0,0,2.45-1.76,1.26,1.26,0,0,1,.52-.3c.1,0,.24.11.41.34l1.1,1.51a1,1,0,0,1,.27.45Q131,172.25,130.66,172.55ZM118.91,169c.24.54.78.68,1.61.44a15.07,15.07,0,0,0,3.19-1.5l-1.2-2.38a14.92,14.92,0,0,0-2.94,1.92C118.93,168.05,118.71,168.56,118.91,169Z"/><path d="M134.83,162.44a10.09,10.09,0,0,1-.89-3.31,8.07,8.07,0,0,1,.31-3.09,7.07,7.07,0,0,1,1.48-2.61,7.62,7.62,0,0,1,2.66-1.89,7.79,7.79,0,0,1,3.18-.74,6.78,6.78,0,0,1,2.94.62,8.2,8.2,0,0,1,2.51,1.83,10.88,10.88,0,0,1,2.78,6.18,7.86,7.86,0,0,1-.3,3.09,6.88,6.88,0,0,1-1.49,2.6,8.38,8.38,0,0,1-5.83,2.62,7,7,0,0,1-2.94-.61,7.75,7.75,0,0,1-2.52-1.81A10.28,10.28,0,0,1,134.83,162.44ZM138,161a6.83,6.83,0,0,0,1.11,1.74,4.51,4.51,0,0,0,1.42,1.08,4,4,0,0,0,1.63.38,3.91,3.91,0,0,0,1.75-.38,4.16,4.16,0,0,0,1.45-1.06,3.89,3.89,0,0,0,.79-1.47,4.54,4.54,0,0,0,.14-1.78,6.14,6.14,0,0,0-.55-2,6.37,6.37,0,0,0-1.11-1.72,4.69,4.69,0,0,0-1.44-1.09,3.8,3.8,0,0,0-1.63-.39,4,4,0,0,0-1.75.39,3.74,3.74,0,0,0-1.44,1.05,4.18,4.18,0,0,0-.8,1.48,4.39,4.39,0,0,0-.13,1.79A6.51,6.51,0,0,0,138,161Z"/><path d="M161.71,150.28a12.54,12.54,0,0,0-1.09-2.1,3.28,3.28,0,0,0-1.19-1.14,2.43,2.43,0,0,0-1.45-.23,5.83,5.83,0,0,0-1.84.6,18,18,0,0,0-1.91,1.05c-.58.37-1.09.73-1.54,1.08l4.92,10.92a.9.9,0,0,1,.09.67,1.08,1.08,0,0,1-.56.45l-1.81.81a1,1,0,0,1-.69.12.9.9,0,0,1-.43-.52l-8.55-19a.93.93,0,0,1-.11-.67,1,1,0,0,1,.55-.44l1.81-.81a1,1,0,0,1,.7-.12c.17.05.31.22.44.51l2.21,4.91q1-.68,2.25-1.38c.83-.48,1.76-.94,2.79-1.41a6.52,6.52,0,0,1,2.71-.63,5,5,0,0,1,2.32.58,6,6,0,0,1,1.88,1.58,9.34,9.34,0,0,1,1.38,2.43l3.42,8.25a1,1,0,0,1,.1.67c-.05.15-.23.3-.54.44l-1.83.82a1,1,0,0,1-.69.12.94.94,0,0,1-.43-.52Z"/><path d="M175.77,137.64a.75.75,0,0,1,.14.53c0,.11-.18.23-.43.34a9.43,9.43,0,0,0-4.53,3.55,4.72,4.72,0,0,0-.06,4.48,4.3,4.3,0,0,0,1.46,1.87,3.8,3.8,0,0,0,2.07.66,7.51,7.51,0,0,0,2.58-.38,19,19,0,0,0,3-1.25.41.41,0,0,1,.36-.08.57.57,0,0,1,.27.25l1.12,2.15a.41.41,0,0,1-.21.62,18.72,18.72,0,0,1-4.13,1.79,10.21,10.21,0,0,1-4,.42,6.85,6.85,0,0,1-3.45-1.32,8.3,8.3,0,0,1-2.6-3.44,8.41,8.41,0,0,1-.83-4,7.58,7.58,0,0,1,1.06-3.46,9.85,9.85,0,0,1,2.6-2.82,14.75,14.75,0,0,1,3.84-2,.77.77,0,0,1,.52-.05c.11,0,.23.19.36.43Z"/><path d="M180.07,142.09a10.4,10.4,0,0,1-.89-3.32,8.11,8.11,0,0,1,.32-3.09,7.09,7.09,0,0,1,1.48-2.61,8.33,8.33,0,0,1,5.84-2.62,6.84,6.84,0,0,1,2.94.62,8.3,8.3,0,0,1,2.5,1.82,10.17,10.17,0,0,1,1.89,2.86,10.48,10.48,0,0,1,.9,3.33,8.2,8.2,0,0,1-.3,3.08,6.86,6.86,0,0,1-1.49,2.6,7.92,7.92,0,0,1-2.67,1.9,7.77,7.77,0,0,1-3.17.73,7.09,7.09,0,0,1-2.93-.61A7.78,7.78,0,0,1,182,145,10.25,10.25,0,0,1,180.07,142.09Zm3.19-1.43a6.33,6.33,0,0,0,1.1,1.73,4.4,4.4,0,0,0,1.43,1.08,4.19,4.19,0,0,0,1.63.39,4.12,4.12,0,0,0,1.74-.38,4.07,4.07,0,0,0,1.45-1.06,3.88,3.88,0,0,0,.8-1.48,4.93,4.93,0,0,0,.14-1.78,6.3,6.3,0,0,0-.56-2,6.69,6.69,0,0,0-1.11-1.72,4.82,4.82,0,0,0-1.43-1.09,3.94,3.94,0,0,0-1.63-.38,4.17,4.17,0,0,0-1.76.38,3.93,3.93,0,0,0-2.23,2.53,4.44,4.44,0,0,0-.14,1.8A6.94,6.94,0,0,0,183.26,140.66Z"/><path d="M201.62,142.35a2.39,2.39,0,0,1-1.83.11,2.28,2.28,0,0,1-1.33-3,2.52,2.52,0,0,1,3.1-1.39,2.29,2.29,0,0,1,1.33,3A2.39,2.39,0,0,1,201.62,142.35Z"/><path d="M197.48,121a2.23,2.23,0,0,1-.06-1.82,2.33,2.33,0,0,1,1.3-1.33,2.53,2.53,0,0,1,1.89-.11A2.18,2.18,0,0,1,202,119a2.2,2.2,0,0,1,0,1.86,2.53,2.53,0,0,1-1.34,1.33,2.39,2.39,0,0,1-1.85.1A2.2,2.2,0,0,1,197.48,121Zm3,4.9a1,1,0,0,1-.12-.68.94.94,0,0,1,.55-.46l1.83-.82a.9.9,0,0,1,.7-.1.93.93,0,0,1,.43.53l5.72,12.7a.91.91,0,0,1,.1.67,1,1,0,0,1-.55.44l-1.83.82a1,1,0,0,1-.69.12.94.94,0,0,1-.43-.52Z"/><path d="M225.74,120.57a10.93,10.93,0,0,0-.93-1.69,2.93,2.93,0,0,0-.95-.92,1.69,1.69,0,0,0-1.09-.2,5,5,0,0,0-1.38.42,8.11,8.11,0,0,0-.9.49,9.21,9.21,0,0,0-.9.64,6.18,6.18,0,0,1,.7,1.09q.32.6.57,1.23l3.67,8.72a.91.91,0,0,1,.1.67c-.06.16-.24.3-.54.44l-1.84.83a1.09,1.09,0,0,1-.7.12.79.79,0,0,1-.42-.53l-3.23-7.75a11.28,11.28,0,0,0-1-1.86,2.27,2.27,0,0,0-1-.91,1.7,1.7,0,0,0-1.24,0,9,9,0,0,0-1.7.79l-.6.35-.67.42,4.93,11a.93.93,0,0,1,.11.67c-.06.16-.24.3-.55.44l-1.83.83a1,1,0,0,1-.7.11.89.89,0,0,1-.42-.52l-5.9-12.52a1.86,1.86,0,0,1-.29-1c.05-.2.29-.44.73-.7q1.39-.89,2.73-1.65c.9-.51,1.79-1,2.67-1.43a5.64,5.64,0,0,1,3.38-.71c.29-.26.56-.5.82-.71s.55-.43.85-.64a9.7,9.7,0,0,1,1.05-.63c.39-.21.86-.44,1.42-.69a7.25,7.25,0,0,1,2.38-.65,4.81,4.81,0,0,1,2.21.29,5.12,5.12,0,0,1,1.9,1.31,7.9,7.9,0,0,1,1.48,2.43l3.66,8.76a1,1,0,0,1,.07.68.93.93,0,0,1-.54.44l-1.81.82a1,1,0,0,1-.69.11.9.9,0,0,1-.43-.52Z"/><path class="cls-4" d="M286.41,75.2V95.45a8.65,8.65,0,0,1-8.65,8.65h-8.7l-12.38,10.67V104.1H248a8.65,8.65,0,0,1-8.65-8.65V75.2A8.65,8.65,0,0,1,248,66.55h29.78A8.65,8.65,0,0,1,286.41,75.2ZM271.87,90c4.13-5.8,5.74-11.74,3.59-13.28s-7.25,1.93-11.38,7.73A34.4,34.4,0,0,0,262,87.71a34.62,34.62,0,0,0-2-3.25c-4.11-5.82-9.19-9.3-11.35-7.77s-.57,7.47,3.54,13.29c2.7,3.81,5.81,6.61,8.24,7.66a.6.6,0,0,0,.08.08,2.13,2.13,0,0,0,1.39.35,2.33,2.33,0,0,0,1.64-.32l.17-.16C266.11,96.52,269.19,93.75,271.87,90Z"/><path class="cls-5" d="M275.46,76.71c2.15,1.54.54,7.48-3.59,13.28-2.68,3.76-5.76,6.53-8.18,7.6l-.17.16a2.33,2.33,0,0,1-1.64.32,2.13,2.13,0,0,1-1.39-.35.6.6,0,0,1-.08-.08c-2.43-1-5.54-3.85-8.24-7.66-4.11-5.82-5.7-11.77-3.54-13.29s7.24,2,11.35,7.77a34.62,34.62,0,0,1,2,3.25,34.4,34.4,0,0,1,2.06-3.27C268.21,78.64,273.31,75.18,275.46,76.71Z"/><path class="cls-3" d="M277.76,66.55H248a8.65,8.65,0,0,0-8.65,8.65V95.45A8.65,8.65,0,0,0,248,104.1h8.7v10.67l12.38-10.67h8.7a8.65,8.65,0,0,0,8.65-8.65V75.2A8.65,8.65,0,0,0,277.76,66.55Z"/><path class="cls-3" d="M275.46,76.71c-2.15-1.53-7.25,1.93-11.38,7.73A34.4,34.4,0,0,0,262,87.71a34.62,34.62,0,0,0-2-3.25c-4.11-5.82-9.19-9.3-11.35-7.77s-.57,7.47,3.54,13.29c2.7,3.81,5.81,6.61,8.24,7.66a.6.6,0,0,0,.08.08,2.13,2.13,0,0,0,1.39.35,2.33,2.33,0,0,0,1.64-.32l.17-.16c2.42-1.07,5.5-3.84,8.18-7.6C276,84.19,277.61,78.25,275.46,76.71Z"/><path class="cls-4" d="M102,398.12l6.91,13.13a6.34,6.34,0,0,0,8.56,2.66l5.64-3,11.67,2.69-3.64-6.92,5.64-3a6.32,6.32,0,0,0,2.65-8.56l-6.91-13.13A6.33,6.33,0,0,0,124,379.4l-19.31,10.16A6.34,6.34,0,0,0,102,398.12Zm14.48,4.63c-4.66-2.35-7.73-5.65-6.86-7.38s5.36-1.22,10,1.13a24,24,0,0,1,2.46,1.41,23.29,23.29,0,0,1,.21-2.81c.68-5.17,2.78-9.16,4.7-8.91s2.92,4.66,2.24,9.83c-.44,3.39-1.5,6.27-2.72,7.78l0,.07a1.56,1.56,0,0,1-.78.71,1.67,1.67,0,0,1-1.17.35l-.17-.05A16.83,16.83,0,0,1,116.48,402.75Z"/><path class="cls-5" d="M109.62,395.37c-.87,1.73,2.2,5,6.86,7.38a16.83,16.83,0,0,0,7.89,2.13l.17.05a1.67,1.67,0,0,0,1.17-.35,1.56,1.56,0,0,0,.78-.71l0-.07c1.22-1.51,2.28-4.39,2.72-7.78.68-5.17-.32-9.57-2.24-9.83s-4,3.74-4.7,8.91a23.29,23.29,0,0,0-.21,2.81,24,24,0,0,0-2.46-1.41C115,394.15,110.49,393.64,109.62,395.37Z"/><path class="cls-3" d="M104.65,389.56,124,379.4a6.33,6.33,0,0,1,8.56,2.65l6.91,13.13a6.32,6.32,0,0,1-2.65,8.56l-5.64,3,3.64,6.92-11.67-2.69-5.64,3a6.34,6.34,0,0,1-8.56-2.66L102,398.12A6.34,6.34,0,0,1,104.65,389.56Z"/><path class="cls-3" d="M109.62,395.37c.87-1.73,5.36-1.22,10,1.13a24,24,0,0,1,2.46,1.41,23.29,23.29,0,0,1,.21-2.81c.68-5.17,2.78-9.16,4.7-8.91s2.92,4.66,2.24,9.83c-.44,3.39-1.5,6.27-2.72,7.78l0,.07a1.56,1.56,0,0,1-.78.71,1.67,1.67,0,0,1-1.17.35l-.17-.05a16.83,16.83,0,0,1-7.89-2.13C111.82,400.4,108.75,397.1,109.62,395.37Z"/></g></g></svg>