<svg id="레이어_1" data-name="레이어 1" xmlns="http://www.w3.org/2000/svg" viewBox="0 0 300 300"><defs><style>.cls-1,.cls-11,.cls-16,.cls-4,.cls-9{fill:#fff;}.cls-2{fill:#f4f4f4;}.cls-3{fill:#eaeaea;}.cls-13,.cls-16,.cls-4{stroke:#000;}.cls-13,.cls-4{stroke-miterlimit:10;}.cls-5,.cls-6,.cls-9{font-size:5.2px;}.cls-11,.cls-5,.cls-6,.cls-9{font-family:AppleSDGothicNeo-ExtraBold-KSCpc-EUC-H, Apple SD Gothic Neo;}.cls-6{letter-spacing:-0.01em;}.cls-7{letter-spacing:0em;}.cls-8{letter-spacing:-0.02em;}.cls-10{fill:#b7b7b7;}.cls-11{font-size:4.38px;}.cls-12{fill:#262626;}.cls-13{fill:none;}.cls-14{fill:#ff0;}.cls-15{fill:#4c4c4c;}.cls-16{stroke-linecap:round;stroke-linejoin:round;}.cls-17{fill:#111;}</style></defs><path class="cls-1" d="M162.4,51.12c-1.86-4.34-6.83-5-6.83-5S84.83,56.71,67.46,74.08A10.67,10.67,0,0,0,65,78.49c22.52-15.27,83.74-24.4,83.74-24.4s5,.62,6.83,5c0,0,56.74,116.86,59.54,138.19a53.51,53.51,0,0,0,6.2-4.65C229.64,189.61,162.4,51.12,162.4,51.12Z"/><path class="cls-2" d="M214.55,200.53c-18.92,16.82-74.46,31.65-98,34.75S43.29,99.39,60.67,82s88.11-27.93,88.11-27.93,5,.62,6.83,5c0,0,67.23,138.48,58.94,141.47,0,0-44.82,17-88.89,25a16.43,16.43,0,0,1-12.46-2.61C73.92,195.15,64.39,83.88,64.39,83.88"/><ellipse class="cls-3" cx="193.82" cy="71.04" rx="2.68" ry="12.93" transform="translate(60.35 228.51) rotate(-69.85)"/><path class="cls-4" d="M78.63,74.25s10.55,53.26,16.13,54.55,83.15-18.56,83.15-24.14S158.68,58.2,156.19,56.3,78.63,74.25,78.63,74.25Z"/><path d="M155.54,67.6l-68.79,21a1.83,1.83,0,0,1-2.32-1.37l-.36-1.73a1.86,1.86,0,0,1,1.29-2.19l68.87-21a1.4,1.4,0,0,1,1.75.93l.69,2.26A1.7,1.7,0,0,1,155.54,67.6Z"/><text class="cls-5" transform="translate(83.73 82.42) rotate(-16.76)">Music</text><text class="cls-5" transform="translate(88.34 98.66) rotate(-16.76)">Videos</text><text class="cls-6" transform="translate(89.93 103.75) rotate(-16.76)">E<tspan class="cls-7" x="2.89" y="0">xt</tspan><tspan class="cls-8" x="7.56" y="0">r</tspan><tspan class="cls-7" x="9.42" y="0">as</tspan></text><text class="cls-5" transform="translate(87.01 93.82) rotate(-16.76)">Photos</text><text class="cls-5" transform="translate(91.47 109.3) rotate(-16.76)">Now Playing</text><text class="cls-9" transform="translate(85.77 87.94) rotate(-16.76)">Playlists</text><path class="cls-10" d="M154.81,193.05c-18.71,0-33.93-14-33.93-31.27s15.22-31.26,33.93-31.26,33.93,14,33.93,31.26S173.52,193.05,154.81,193.05Z"/><path d="M154.81,131c18.43,0,33.43,13.8,33.43,30.76s-15,30.77-33.43,30.77-33.43-13.8-33.43-30.77,15-30.76,33.43-30.76m0-1c-19,0-34.43,14.22-34.43,31.76s15.42,31.77,34.43,31.77,34.43-14.22,34.43-31.77S173.82,130,154.81,130Z"/><path class="cls-2" d="M154.81,172.21c-6.85,0-12.42-5.13-12.42-11.42s5.57-11.42,12.42-11.42,12.42,5.12,12.42,11.42S161.66,172.21,154.81,172.21Z"/><path d="M154.81,149.87c6.57,0,11.92,4.9,11.92,10.92s-5.35,10.92-11.92,10.92-11.92-4.9-11.92-10.92,5.35-10.92,11.92-10.92m0-1c-7.13,0-12.92,5.34-12.92,11.92s5.79,11.92,12.92,11.92,12.92-5.34,12.92-11.92-5.79-11.92-12.92-11.92Z"/><polygon class="cls-1" points="160.13 184.52 158.54 180.9 162.47 181.33 160.13 184.52"/><polygon class="cls-1" points="175.57 155 173.98 151.38 177.91 151.81 175.57 155"/><polygon class="cls-1" points="178.67 153.76 177.09 150.14 181.01 150.57 178.67 153.76"/><rect class="cls-1" x="163.14" y="178.88" width="0.89" height="4.12" transform="translate(-58.93 81.01) rotate(-23.7)"/><rect class="cls-1" x="164.38" y="178.33" width="0.89" height="4.12" transform="translate(-58.6 81.46) rotate(-23.7)"/><polygon class="cls-1" points="133.71 166.86 135.3 170.48 131.37 170.04 133.71 166.86"/><polygon class="cls-1" points="130.61 168.1 132.2 171.72 128.27 171.28 130.61 168.1"/><text class="cls-11" transform="matrix(0.94, -0.34, 0.34, 0.94, 142.12, 144.59)">menu</text><path class="cls-12" d="M238.73,74.4c1.54,9.16-1.44,17.29-6.65,18.16-3.72.63-7.57-2.61-10-7.84l-.12,0a21.51,21.51,0,0,0,.13-2.29,18.26,18.26,0,0,0-2.61-9.54h0a22.4,22.4,0,0,1,1-6.93c1.17-3.58,3.28-6.06,6-6.52C231.71,58.54,237.18,65.25,238.73,74.4Z"/><path class="cls-12" d="M222.06,82.41a21.51,21.51,0,0,1-.13,2.29c-1,8-6.87,14.19-14,14.19a12.22,12.22,0,0,1-2.85-.34c-6.44-1.53-11.26-8.18-11.26-16.14a19.19,19.19,0,0,1,.93-5.94c.85.25,1.67.52,2.46.76l-.07.21a7.77,7.77,0,1,0,7.75-8.31,7.41,7.41,0,0,0-4.33,1.42l0,.11-2.07-.49a13,13,0,0,1,9.47-4.24,11.79,11.79,0,0,1,3.21.43,14.15,14.15,0,0,1,8.3,6.51A18.26,18.26,0,0,1,222.06,82.41Z"/><path class="cls-13" d="M205.09,98.55c-6.44-1.53-11.26-8.18-11.26-16.14a19.19,19.19,0,0,1,.93-5.94h0"/><path class="cls-13" d="M198.47,70.17a13,13,0,0,1,9.47-4.24,11.79,11.79,0,0,1,3.21.43,14.15,14.15,0,0,1,8.3,6.51,18.26,18.26,0,0,1,2.61,9.54,21.51,21.51,0,0,1-.13,2.29c-1,8-6.87,14.19-14,14.19a12.22,12.22,0,0,1-2.85-.34"/><path class="cls-13" d="M219.46,72.86a22.4,22.4,0,0,1,1-6.93c1.17-3.58,3.28-6.06,6-6.52,5.21-.87,10.68,5.84,12.23,15s-1.44,17.29-6.65,18.16c-3.72.63-7.57-2.61-10-7.84"/><path class="cls-13" d="M200.57,70.55a7.41,7.41,0,0,1,4.33-1.42,8.32,8.32,0,1,1-7.75,8.31"/><path class="cls-13" d="M210.18,80.46s1.28-7.56-5.28-8.84c-1.12-.22-2.63-.55-4.36-1l-2.07-.49c-8.29-2-19.74-4.92-20.56-4.92-1.08,0-4.81,1.4-2.95,3.88,1.08,1.44,11.31,4.67,19.8,7.34.85.25,1.67.52,2.46.76,2.9.92,5.43,1.71,7.08,2.3"/><path class="cls-13" d="M211.58,65.93l-.11-.76c-.4-3-1.71-13.66-.51-14.18,1.39-.62,5.11-2.64,7,0s2.55,14.94,2.55,14.94"/><path class="cls-13" d="M212.66,49.66s-1.24-31.41-30.41-28.15-28.52,25.11-28.52,25.11"/><path class="cls-13" d="M174.45,67s-5.08-1.15-6.16-3.41"/><path class="cls-13" d="M204.06,98.26c8.31,23.54,8.45,39.49,11.41,44.09"/><path class="cls-13" d="M177.23,22.31S166.9,53.93,217.47,37.8s-10.55-27.3-15.82-24.67c0,0-48.23-2.87-18.45,43.17q3.95,6.11,7.18,11.9"/><path class="cls-14" d="M219.79,161.79s.16,4.29-1.4,3-2-13.28-2-13.28l-.08-.34,1.45-.35Z"/><path class="cls-13" d="M216.31,151.15l-1.48.34-1.4-8.36s1.09-3.1,4.2-.78l1.08,8.23-1,.22Z"/><path class="cls-13" d="M216.39,151.49s.46,12,2,13.28,1.4-3,1.4-3l-2-11"/><ellipse class="cls-15" cx="234.55" cy="74.44" rx="2.88" ry="10.48" transform="translate(-11.02 58.57) rotate(-13.91)"/><circle class="cls-16" cx="246.84" cy="130.02" r="23.34"/><circle class="cls-16" cx="241.04" cy="122.68" r="3.62"/><circle class="cls-16" cx="255.76" cy="128.32" r="3.62"/><path class="cls-16" d="M260.08,138.26a15.87,15.87,0,0,1-28.88-9.76"/><path class="cls-13" d="M221.35,192.77c-18.93,16.82-74.46,31.65-98,34.75S50.09,91.63,67.46,74.25s88.11-27.92,88.11-27.92,5,.62,6.83,5c0,0,67.24,138.49,58.95,141.48,0,0-44.83,17-88.9,25A16.44,16.44,0,0,1,120,215.18C80.71,187.39,71.18,76.12,71.18,76.12"/><path class="cls-17" d="M22.15,255.34c4.52,0,6.53,3.94,6.53,9s-2,9-6.53,9-6.56-4-6.56-9S17.63,255.34,22.15,255.34Zm0,2.21c-2.6,0-3.94,2.86-3.94,6.8s1.34,6.76,3.94,6.76,4-2.83,4-6.76S24.77,257.55,22.15,257.55Zm11,21.35V253.41h2.6V278.9Z"/><path class="cls-17" d="M47.56,267.7v-2.1h23v2.1Zm11.49-3.93c-5.54,0-8.74-2-8.74-4.87s3.2-4.84,8.74-4.84,8.78,1.92,8.78,4.84S64.62,263.77,59.05,263.77Zm-8.69,14.78v-8.37H67.77v8.37Zm14.85-6.33H53v4.29H65.21Zm-6.16-16.09c-3.73,0-6,1.1-6,2.77s2.3,2.77,6,2.77,6.1-1.11,6.1-2.77S62.82,256.13,59.05,256.13Z"/><path class="cls-17" d="M86.2,261c0,3.68-2.92,6-6.59,6s-6.6-2.3-6.6-6,3-6.15,6.6-6.15S86.2,257.35,86.2,261Zm-10.62,0a3.83,3.83,0,0,0,4,3.93,3.78,3.78,0,0,0,4-3.91,3.83,3.83,0,0,0-4-4A3.89,3.89,0,0,0,75.58,261Zm14.32,18v-7.15H76v-2.07h16.5v9.22Zm2.56-16.8v6.24H89.87v-15h2.59V260h3.8v2.13Z"/><path class="cls-17" d="M105.46,255.34c4.52,0,6.54,3.94,6.54,9s-2,9-6.54,9-6.56-4-6.56-9S100.94,255.34,105.46,255.34Zm0,2.21c-2.59,0-3.93,2.86-3.93,6.8s1.34,6.76,3.93,6.76,4-2.83,4-6.76S108.09,257.55,105.46,257.55Zm11,21.35V253.41H119V278.9Z"/><path class="cls-17" d="M142.25,267.21a12,12,0,0,1-4.89-4.93,11.84,11.84,0,0,1-5.11,5.8l-1.54-1.87c2.8-1.51,5.36-4.54,5.36-8.28v-3.06h2.51v3a8.43,8.43,0,0,0,5,7.37Zm1.64,11.66c-5.46,0-8.72-1.87-8.72-4.84s3.26-4.84,8.72-4.84,8.77,1.87,8.77,4.84S149.4,278.87,143.89,278.87Zm-6-4.84c0,1.66,2.33,2.71,6,2.71S150,275.69,150,274s-2.36-2.74-6.09-2.74S137.88,272.37,137.88,274Zm12-4.67v-7.23h-2.85v5.92h-2.45V253.88h2.45V260h2.85v-6.62h2.48v16Z"/><path class="cls-17" d="M168.7,255.11c-.27,6.85-4.93,11.08-11.52,12.85l-1.31-2.1c4.72-.93,9.3-4.19,10-8.57h-8.75v-2.18Zm7.08,14.66V279h-2.56V271.9H158.69v-2.13Zm0-7.87v6.62h-2.59V253.41h2.59v6.33h3.79v2.16Z"/><path class="cls-17" d="M184.47,272.34c-.82,0-1.61,0-2.37,0V255.92h2.57v14.23A57.83,57.83,0,0,0,196.3,269c.12.73.24,1.43.38,2.13A66.15,66.15,0,0,1,184.47,272.34ZM201,263.39h4.05v2.18H201V278.9h-2.6V253.41H201Z"/><path class="cls-17" d="M206.53,268.49v-2.1h23v2.1Zm3.07,9.86v-7.56h2.56v5.43h15v2.13Zm.08-15v-8.93h2.57v6.83H227v2.1Z"/><path class="cls-17" d="M239.42,275.37V273.3h8.74v-6.5h2.6v6.5h11.66v2.07Zm20.23-16a53.6,53.6,0,0,1-1,10.94l-2.47-.29a42,42,0,0,0,.81-5.69l-15.1.79-.38-2.13,15.6-.67c0-.58,0-1.2,0-1.81v-2.39h-15V256h17.52Z"/><path class="cls-17" d="M280.15,269.54l.35,2.13a65.25,65.25,0,0,1-11.73.87h-2.85V255.89h12.19V258h-9.66v12.34A68.26,68.26,0,0,0,280.15,269.54Zm2.8,9.36V253.41h2.59V278.9Z"/></svg>