<svg id="레이어_1" data-name="레이어 1" xmlns="http://www.w3.org/2000/svg" viewBox="0 0 435.35 300"><defs><style>.cls-1,.cls-11,.cls-16,.cls-4,.cls-9{fill:#fff;}.cls-2{fill:#f4f4f4;}.cls-3{fill:#eaeaea;}.cls-13,.cls-16,.cls-4{stroke:#000;}.cls-13,.cls-4{stroke-miterlimit:10;}.cls-5,.cls-6,.cls-9{font-size:5.2px;}.cls-11,.cls-5,.cls-6,.cls-9{font-family:AppleSDGothicNeo-ExtraBold-KSCpc-EUC-H, Apple SD Gothic Neo;}.cls-6{letter-spacing:-0.01em;}.cls-7{letter-spacing:0em;}.cls-8{letter-spacing:-0.02em;}.cls-10{fill:#b7b7b7;}.cls-11{font-size:4.38px;}.cls-12{fill:#262626;}.cls-13{fill:none;}.cls-14{fill:#ff0;}.cls-15{fill:#4c4c4c;}.cls-16{stroke-linecap:round;stroke-linejoin:round;}</style></defs><path class="cls-1" d="M227.71,51.12c-1.86-4.34-6.83-5-6.83-5s-70.74,10.55-88.11,27.92a10.55,10.55,0,0,0-2.42,4.41c22.52-15.27,83.74-24.4,83.74-24.4s5,.62,6.82,5c0,0,56.75,116.86,59.55,138.19a52.51,52.51,0,0,0,6.19-4.65C294.94,189.61,227.71,51.12,227.71,51.12Z"/><path class="cls-2" d="M279.86,200.53c-18.92,16.82-74.46,31.65-98,34.75S108.6,99.39,126,82s88.11-27.93,88.11-27.93,5,.62,6.82,5c0,0,67.24,138.48,59,141.47,0,0-44.82,17-88.89,25a16.42,16.42,0,0,1-12.46-2.61C139.23,195.15,129.7,83.88,129.7,83.88"/><ellipse class="cls-3" cx="259.13" cy="71.04" rx="2.68" ry="12.93" transform="translate(103.16 289.82) rotate(-69.85)"/><path class="cls-4" d="M143.94,74.25s10.55,53.26,16.13,54.55,83.15-18.56,83.15-24.14S224,58.2,221.5,56.3,143.94,74.25,143.94,74.25Z"/><path d="M220.85,67.6l-68.79,21a1.83,1.83,0,0,1-2.32-1.37l-.37-1.73a1.88,1.88,0,0,1,1.3-2.19l68.87-21a1.4,1.4,0,0,1,1.75.93l.69,2.26A1.7,1.7,0,0,1,220.85,67.6Z"/><text class="cls-5" transform="translate(149.03 82.4) rotate(-16.76)">Music</text><text class="cls-5" transform="translate(153.63 98.64) rotate(-16.76)">Videos</text><text class="cls-6" transform="translate(155.23 103.73) rotate(-16.76)">E<tspan class="cls-7" x="2.89" y="0">xt</tspan><tspan class="cls-8" x="7.56" y="0">r</tspan><tspan class="cls-7" x="9.42" y="0">as</tspan></text><text class="cls-5" transform="translate(152.3 93.8) rotate(-16.76)">Photos</text><text class="cls-5" transform="translate(156.76 109.28) rotate(-16.76)">Now Playing</text><text class="cls-9" transform="translate(151.07 87.92) rotate(-16.76)">Playlists</text><path class="cls-10" d="M220.12,193.05c-18.71,0-33.93-14-33.93-31.27s15.22-31.26,33.93-31.26,33.92,14,33.92,31.26S238.82,193.05,220.12,193.05Z"/><path d="M220.12,131c18.43,0,33.42,13.8,33.42,30.76s-15,30.77-33.42,30.77-33.43-13.8-33.43-30.77,15-30.76,33.43-30.76m0-1c-19,0-34.43,14.22-34.43,31.76s15.42,31.77,34.43,31.77,34.42-14.22,34.42-31.77S239.13,130,220.12,130Z"/><path class="cls-2" d="M220.12,172.21c-6.85,0-12.42-5.13-12.42-11.42s5.57-11.42,12.42-11.42,12.42,5.12,12.42,11.42S227,172.21,220.12,172.21Z"/><path d="M220.12,149.87c6.57,0,11.92,4.9,11.92,10.92s-5.35,10.92-11.92,10.92-11.92-4.9-11.92-10.92,5.35-10.92,11.92-10.92m0-1c-7.14,0-12.92,5.34-12.92,11.92s5.78,11.92,12.92,11.92S233,167.37,233,160.79s-5.79-11.92-12.92-11.92Z"/><polygon class="cls-1" points="225.44 184.52 223.85 180.9 227.78 181.33 225.44 184.52"/><polygon class="cls-1" points="240.88 155 239.29 151.38 243.22 151.81 240.88 155"/><polygon class="cls-1" points="243.98 153.76 242.39 150.14 246.32 150.57 243.98 153.76"/><rect class="cls-1" x="228.45" y="178.88" width="0.89" height="4.12" transform="translate(-53.42 107.26) rotate(-23.7)"/><rect class="cls-1" x="229.69" y="178.33" width="0.89" height="4.12" transform="translate(-53.1 107.71) rotate(-23.7)"/><polygon class="cls-1" points="199.02 166.86 200.61 170.48 196.68 170.04 199.02 166.86"/><polygon class="cls-1" points="195.92 168.1 197.51 171.72 193.58 171.28 195.92 168.1"/><text class="cls-11" transform="matrix(0.94, -0.34, 0.34, 0.94, 207.4, 144.56)">menu</text><path class="cls-12" d="M304,74.4c1.55,9.16-1.43,17.29-6.64,18.16-3.72.63-7.57-2.61-10-7.84l-.11,0c.07-.75.13-1.51.13-2.29a18.35,18.35,0,0,0-2.61-9.54h0a22.71,22.71,0,0,1,1-6.93c1.18-3.58,3.29-6.06,6-6.52C297,58.54,302.49,65.25,304,74.4Z"/><path class="cls-12" d="M287.37,82.41c0,.78-.06,1.54-.13,2.29-1,8-6.87,14.19-14,14.19a12.2,12.2,0,0,1-2.84-.34C264,97,259.14,90.37,259.14,82.41a19.19,19.19,0,0,1,.93-5.94c.85.25,1.66.52,2.45.76l-.06.21a7.77,7.77,0,1,0,7.75-8.31,7.41,7.41,0,0,0-4.34,1.42l0,.11-2.07-.49a13,13,0,0,1,9.46-4.24,11.86,11.86,0,0,1,3.22.43,14.21,14.21,0,0,1,8.3,6.51A18.35,18.35,0,0,1,287.37,82.41Z"/><path class="cls-13" d="M270.4,98.55C264,97,259.14,90.37,259.14,82.41a19.19,19.19,0,0,1,.93-5.94h0"/><path class="cls-13" d="M263.78,70.17a13,13,0,0,1,9.46-4.24,11.86,11.86,0,0,1,3.22.43,14.21,14.21,0,0,1,8.3,6.51,18.35,18.35,0,0,1,2.61,9.54c0,.78-.06,1.54-.13,2.29-1,8-6.87,14.19-14,14.19a12.2,12.2,0,0,1-2.84-.34"/><path class="cls-13" d="M284.77,72.86a22.71,22.71,0,0,1,1-6.93c1.18-3.58,3.29-6.06,6-6.52,5.21-.87,10.68,5.84,12.22,15s-1.43,17.29-6.64,18.16c-3.72.63-7.57-2.61-10-7.84"/><path class="cls-13" d="M265.87,70.55a7.41,7.41,0,0,1,4.34-1.42,8.32,8.32,0,1,1-7.75,8.31"/><path class="cls-13" d="M275.49,80.46s1.28-7.56-5.28-8.84c-1.12-.22-2.63-.55-4.36-1l-2.07-.49c-8.3-2-19.74-4.92-20.56-4.92-1.08,0-4.81,1.4-2.95,3.88,1.08,1.44,11.31,4.67,19.8,7.34.85.25,1.66.52,2.45.76,2.91.92,5.44,1.71,7.09,2.3"/><path class="cls-13" d="M276.88,65.93s0-.28-.1-.76c-.4-3-1.72-13.66-.52-14.18,1.4-.62,5.12-2.64,7,0s2.54,14.94,2.54,14.94"/><path class="cls-13" d="M278,49.66s-1.24-31.41-30.41-28.15S219,46.62,219,46.62"/><path class="cls-13" d="M239.76,67s-5.08-1.15-6.16-3.41"/><path class="cls-13" d="M269.37,98.26c8.31,23.54,8.45,39.49,11.41,44.09"/><path class="cls-13" d="M242.54,22.31S232.21,53.93,282.78,37.8,272.23,10.5,267,13.13c0,0-48.22-2.87-18.45,43.17,2.64,4.07,5,8,7.19,11.9"/><path class="cls-14" d="M285.1,161.79s.16,4.29-1.4,3-2-13.28-2-13.28l-.08-.34,1.45-.35Z"/><path class="cls-13" d="M281.62,151.15l-1.48.34-1.4-8.36s1.08-3.1,4.2-.78l1.08,8.23-.95.22Z"/><path class="cls-13" d="M281.7,151.49s.46,12,2,13.28,1.4-3,1.4-3l-2-11"/><ellipse class="cls-15" cx="299.86" cy="74.44" rx="2.88" ry="10.48" transform="translate(-9.1 74.27) rotate(-13.91)"/><circle class="cls-16" cx="312.15" cy="130.02" r="23.34"/><circle class="cls-16" cx="306.35" cy="122.68" r="3.62"/><circle class="cls-16" cx="321.06" cy="128.32" r="3.62"/><path class="cls-16" d="M325.38,138.26a15.87,15.87,0,0,1-28.87-9.76"/><path class="cls-13" d="M286.65,192.77c-18.92,16.82-74.46,31.65-98,34.75S115.4,91.63,132.77,74.25s88.11-27.92,88.11-27.92,5,.62,6.83,5c0,0,67.23,138.49,58.94,141.48,0,0-44.82,17-88.89,25a16.44,16.44,0,0,1-12.46-2.61C146,187.39,136.49,76.12,136.49,76.12"/><path d="M41.85,264.48v-2.12H65v2.12Zm11.54-4c-5.56,0-8.79-2-8.79-4.9s3.23-4.86,8.79-4.86,8.83,1.93,8.83,4.86S59,260.52,53.39,260.52Zm-8.73,14.86V267h17.5v8.41ZM59.58,269H47.27v4.31H59.58Zm-6.19-16.18c-3.75,0-6.06,1.11-6.06,2.78s2.31,2.79,6.06,2.79,6.13-1.12,6.13-2.79S57.18,252.84,53.39,252.84Z"/><path d="M80.68,257.73c0,3.7-2.93,6-6.62,6s-6.63-2.31-6.63-6,3-6.18,6.63-6.18S80.68,254.07,80.68,257.73ZM70,257.7a3.86,3.86,0,0,0,4,4,3.8,3.8,0,0,0,4-3.93,3.84,3.84,0,0,0-4-4A3.91,3.91,0,0,0,70,257.7ZM84.4,275.76v-7.18h-14V266.5H87v9.26ZM87,258.88v6.27h-2.6v-15H87v6.63h3.81v2.14Z"/><path d="M92.55,272.27v-2.11h23.13v2.11Zm11.55-6.68c-5.54,0-9.2-2.7-9.2-6.65s3.66-6.66,9.2-6.66,9.26,2.73,9.26,6.66S109.67,265.59,104.1,265.59Zm0-11c-4,0-6.57,1.79-6.57,4.37s2.61,4.36,6.57,4.36,6.63-1.76,6.63-4.36S108.12,254.57,104.1,254.57Z"/><path d="M117.9,272.48v-2.11h10.21v-4.05h-7.42v-8.23h14.89v-3.76h-15v-2.11h17.53v8H123.27v4h15.59v2.11h-8.15v4.05H141v2.11Z"/><path d="M157.68,251.93c4.16,0,6.18,3.37,6.51,7.89h5.18v-9.71H172v25.62h-2.61V262h-5.18c-.3,4.58-2.29,8-6.51,8-4.55,0-6.6-4-6.6-9.05S153.13,251.93,157.68,251.93Zm0,2.23c-2.61,0-3.93,2.87-3.93,6.86s1.32,6.8,3.93,6.8,4-2.88,4-6.8S160.26,254.16,157.68,254.16Z"/><path d="M179,275.56v-6h15v-1.88H179v-2.11h7.56v-2.4h-10.2V261h23.13v2.11H189.13v2.4h7.5v5.92h-15v2h16v2.14Zm8.88-15.89c-5.66,0-9.12-1.61-9.12-4.52s3.46-4.51,9.12-4.51,9.14,1.64,9.14,4.51S193.64,259.67,187.9,259.67Zm-6.39-4.52c0,1.53,2.49,2.5,6.39,2.5s6.45-1,6.45-2.5-2.5-2.46-6.45-2.46S181.51,253.66,181.51,255.15Z"/><path d="M218.23,268.84a85.28,85.28,0,0,1-12,.85H203V259.61h9.59v-5.07h-9.71v-2.11h12.29v9.26h-9.59v5.8h.76A73.18,73.18,0,0,0,218,266.7Zm4.58-18.73v25.62H220.2V250.11Z"/><path d="M227,265.27v-2.11h23.12v2.11Zm3.07,9.9v-7.59h2.58V273h15v2.14Zm.09-15v-9h2.58V258H247.6v2.11Z"/><path d="M270.46,270.31v-4.72H260.09v-2.11h23.12v2.11H273v4.72Zm-7.5-9.47v-9.91h2.61v3h12.16v-3h2.58v9.94ZM263,275v-7h2.61v4.93h14.95V275Zm14.77-19H265.57v2.73h12.16Z"/><path d="M292.36,275v-8.59c-2.47.09-4.69.12-6.89.15l-.38-2.26c3,0,5.89,0,8.7-.15,3.4-.14,6.33-.32,8.74-.58l.29,2c-2,.29-5.07.47-7.88.64V275Zm1.32-12.61c-4,0-6.78-2.28-6.78-5.48s2.76-5.54,6.78-5.54,6.77,2.26,6.77,5.54S297.6,262.36,293.68,262.36Zm0-8.82c-2.32,0-4.11,1.32-4.11,3.31s1.79,3.26,4.11,3.26,4.1-1.29,4.1-3.26S296,253.54,293.68,253.54Zm10.37,22.19V250.11h2.58v25.62Z"/><path d="M312.4,270.78l-1.58-2c6-2.9,10.2-8.26,10.67-13.77H312v-2.2h12.34C324.16,261,319.41,267,312.4,270.78Zm16.8,5V250.11h2.61v25.62Z"/><path d="M357.1,264.59a11.06,11.06,0,0,1-6-4.95,10.74,10.74,0,0,1-6.3,5.66l-1.41-2c3.2-1,5.84-3.37,6.28-6.42h-5.57V254.8h13.95v2.08h-5.54c.5,3,3.23,5,5.92,5.66Zm7,11.29c-3.55-.5-7.51-3.17-8.44-5.16-.91,2-4.55,4.63-8.47,5.13l-1.32-2c4-.24,7.76-2.82,8.38-5.4h-7v-2.08h16.83v2.08h-6.92c.62,2.49,4.43,5.16,8.27,5.4Zm-16.56-23.13v-2.11h7.12v2.11Zm16.09,6.19v6.12h-2.58V250.11h2.58v6.69h3.81v2.14Z"/><path d="M370.82,270.78l-1.58-2c6-2.9,10.2-8.26,10.67-13.77h-9.53v-2.2h12.34C382.57,261,377.82,267,370.82,270.78Zm16.79,5V250.11h2.61v25.62Z"/></svg>