<svg id="레이어_1" data-name="레이어 1" xmlns="http://www.w3.org/2000/svg" viewBox="0 0 435.35 300"><defs><style>.cls-1{fill:#ddd;}.cls-2,.cls-6{fill:#fff;}.cls-3{fill:#efefef;}.cls-4{fill:none;}.cls-4,.cls-6{stroke:#000;}.cls-4,.cls-6,.cls-7{stroke-miterlimit:10;}.cls-5{fill:#f7f7f7;}.cls-7{stroke:#fff;}.cls-8{fill:#e5e5e3;}.cls-9{fill:#fffde3;opacity:0.27;}.cls-10{fill:#fcfcfc;}.cls-11{fill:#111;}</style></defs><path class="cls-1" d="M296.2,45.09A6,6,0,0,1,290,39.37c0-3,2.62-5.2,6.23-5.2s6.24,2.19,6.24,5.2A6,6,0,0,1,296.2,45.09Z"/><path d="M296.2,34.67c3.33,0,5.74,2,5.74,4.7a5.76,5.76,0,0,1-11.47,0c0-2.72,2.41-4.7,5.73-4.7m0-1c-3.71,0-6.73,2.27-6.73,5.7a6.76,6.76,0,0,0,13.47,0c0-3.43-3-5.7-6.74-5.7Z"/><path class="cls-1" d="M285.44,45.09c-2.94,0-5.68-2.22-5.75-4.66a4.27,4.27,0,0,1,1.18-3.18,5.06,5.06,0,0,1,3.63-1.45,6.11,6.11,0,0,1,.86.07c2.38.37,5.17,1.8,5.17,4.61A4.88,4.88,0,0,1,285.44,45.09Z"/><path d="M284.5,36.3h0a5.25,5.25,0,0,1,.79.06c2.18.34,4.74,1.62,4.74,4.12a4.38,4.38,0,0,1-4.59,4.11c-2.69,0-5.19-2-5.25-4.17a3.74,3.74,0,0,1,1-2.82,4.57,4.57,0,0,1,3.27-1.3m0-1a5,5,0,0,0-5.31,5.15c.08,2.81,3.16,5.14,6.25,5.14A5.37,5.37,0,0,0,291,40.48c0-2.82-2.54-4.63-5.59-5.1a6.07,6.07,0,0,0-.94-.08Z"/><path class="cls-1" d="M276.71,54.47c-3.28-.06-5.56-3.17-5.63-6a6.38,6.38,0,0,1,1.56-4.69,4.64,4.64,0,0,1,3.41-1.35c.19,0,.4,0,.6,0a6,6,0,0,1,5.67,6,5.8,5.8,0,0,1-5.52,6Z"/><path d="M276.05,42.89h0l.56,0a5.56,5.56,0,0,1,5.21,5.53,5.3,5.3,0,0,1-5,5.53h-.08c-3,0-5.08-2.91-5.14-5.55A5.87,5.87,0,0,1,273,44.09a4.07,4.07,0,0,1,3.05-1.2m0-1c-3.51,0-5.57,2.79-5.47,6.55.08,3.23,2.67,6.47,6.12,6.53h.1a6.31,6.31,0,0,0,6-6.53,6.54,6.54,0,0,0-6.12-6.52l-.65,0Z"/><path class="cls-1" d="M274.75,66.41a5.62,5.62,0,1,1,5.62-5.62A5.62,5.62,0,0,1,274.75,66.41Z"/><path d="M274.75,55.67a5.12,5.12,0,1,1-5.13,5.12,5.13,5.13,0,0,1,5.13-5.12m0-1a6.12,6.12,0,1,0,6.12,6.12,6.13,6.13,0,0,0-6.12-6.12Z"/><path class="cls-2" d="M283.7,75.83c-3.22,0-6.5-3-6.5-6,0-3.21,3.19-5.19,6.15-5.19A5.62,5.62,0,0,1,289,70.21,5.33,5.33,0,0,1,283.7,75.83Z"/><path d="M283.35,65.09a5.12,5.12,0,0,1,5.12,5.12,4.84,4.84,0,0,1-4.77,5.12c-2.92,0-6-2.85-6-5.55,0-2.9,2.93-4.69,5.65-4.69m0-1c-3.38,0-6.65,2.31-6.65,5.69s3.62,6.55,7,6.55a5.83,5.83,0,0,0,5.77-6.12,6.12,6.12,0,0,0-6.12-6.12Z"/><path class="cls-2" d="M295.76,78.75a6.32,6.32,0,0,1-6.12-5.88,6.15,6.15,0,0,1,6.1-6.38,6.32,6.32,0,0,1,6.11,6.4,6,6,0,0,1-5.92,5.86Z"/><path d="M295.74,67a5.82,5.82,0,0,1,5.61,5.91,5.3,5.3,0,0,1-1.59,3.71,5.38,5.38,0,0,1-3.83,1.64h-.16a5.81,5.81,0,0,1-5.63-5.4,5.65,5.65,0,0,1,5.6-5.86m0-1a6.67,6.67,0,0,0-6.6,6.89,6.81,6.81,0,0,0,6.6,6.37h.19a6.52,6.52,0,0,0,6.42-6.37A6.78,6.78,0,0,0,295.74,66Z"/><path class="cls-2" d="M306.41,74.09a6.09,6.09,0,0,1,0-12.16,6.08,6.08,0,1,1,0,12.16Z"/><path d="M306.41,62.43a5.58,5.58,0,1,1,0,11.16,5.59,5.59,0,0,1,0-11.16m0-1a6.59,6.59,0,0,0,0,13.16,6.58,6.58,0,1,0,0-13.16Z"/><path class="cls-2" d="M311,63.07A6.09,6.09,0,1,1,317.43,57a5.62,5.62,0,0,1-1.6,4.13,6.7,6.7,0,0,1-4.78,1.94Z"/><path d="M311,51.41A5.79,5.79,0,0,1,316.93,57a5.08,5.08,0,0,1-1.46,3.76A6.17,6.17,0,0,1,311,62.57a5.59,5.59,0,1,1,0-11.16m0-1a6.59,6.59,0,1,0,0,13.16h0c3.8,0,7-2.79,6.88-6.58A6.8,6.8,0,0,0,311,50.41Z"/><path class="cls-2" d="M306.41,52a6.09,6.09,0,1,1,0-12.16c3.61,0,6.9,3,6.9,6.38S309.75,52,306.41,52Z"/><path d="M306.41,40.37c3.29,0,6.4,2.86,6.4,5.88s-3.31,5.28-6.4,5.28a5.59,5.59,0,1,1,0-11.16m0-1a6.59,6.59,0,1,0,0,13.16c3.81,0,7.4-2.64,7.4-6.28s-3.59-6.88-7.4-6.88Z"/><ellipse class="cls-2" cx="293.1" cy="55.94" rx="17.85" ry="17.17"/><path d="M293.1,39.26c9.56,0,17.35,7.48,17.35,16.68s-7.79,16.67-17.35,16.67-17.35-7.48-17.35-16.67,7.78-16.68,17.35-16.68m0-1c-10.14,0-18.35,7.91-18.35,17.68S283,73.61,293.1,73.61s18.35-7.91,18.35-17.67-8.22-17.68-18.35-17.68Z"/><ellipse class="cls-3" cx="292.23" cy="53.62" rx="16.03" ry="14.39"/><path class="cls-4" d="M286.29,52.17s5.4-1,6.36,3.77"/><path class="cls-4" d="M291.91,65.46s4.85-1.63,4.24,3.18"/><path class="cls-4" d="M302.94,51.34s4.31.17,4.53,3.78"/><path class="cls-4" d="M286.44,42.48s4.73-1.41,4.59,2.81"/><path class="cls-4" d="M277.86,61a2.94,2.94,0,0,1,3.55,2.69"/><path class="cls-5" d="M356.19,192.11l-5.53,9.11a91.28,91.28,0,0,0-21.78,2.12c-49.84,10.67-66-1.1-66-1.1s-26.67-12.87-51.12-4.09-24.13,6.83-67.94.81c-16.29-2.24-27.93.44-36.12,4.69l-25.15-38.1,26,8.49,6.67-17.52,13.33,17,4.13-10.13s16.19,10.18,17.14,11.8,13.34-3.86,13.34-3.86l3.17,5.48,4.77-11.5,7,17.8,12.38-11.5,11.11,10.15,3.5-9.33.76-.88,18.29,11.83L240,158.71l10.16,18.34,18.1-6,5.08,6.3,14-18.62,5.08,9.31,22.86-14.24,10.16,24.91,17.46-6,1.27,17.25Z"/><path class="cls-4" d="M108.58,200.24,83.42,156.06l26,9.84,6.67-20.32,13.34,19.69,4.12-11.75s16.2,11.8,17.15,13.68,13.33-4.47,13.33-4.47l3.18,6.35L172,155.74l7,20.64,12.38-13.33,11.11,11.77L206,164"/><polyline class="cls-4" points="205.97 162.41 225.02 176.7 240.9 148.12 251.06 169.4 269.15 162.41 274.23 169.71 288.2 148.12 293.28 158.92 316.14 142.41 326.3 171.3 343.76 164.31 345.04 184.32 357.1 186.86 351.58 197.42"/><path class="cls-4" d="M90.72,222.1s10.16-34.29,54-27.31,43.49,9.24,67.94-.93,51.12,4.74,51.12,4.74,16.19,13.66,66,1.27c17-4.22,30.87-2.6,41.76,1.36"/><path class="cls-2" d="M142.53,155.07l-1.43.06v0c0-1.69-.09-3.31-.15-4.88.9-.47,4.75-12.08,17.18-11.15C158.13,139.07,159,152.14,142.53,155.07Z"/><path class="cls-2" d="M141.1,155.1l-.16-4.87h0C141,151.79,141.07,153.41,141.1,155.1Z"/><path class="cls-3" d="M136.18,118.24c1.95-1,1.91-3.75,1.18-7l.53-.15c.82,3.55.83,6.56-1.64,7.32C136.22,118.34,136.19,118.28,136.18,118.24Z"/><path class="cls-2" d="M137.59,138.45c-6.77,4.13-18.87-7.94-12.08-7.07a25.94,25.94,0,0,1,11.84,5v0l.19,1.65Z"/><path d="M136.1,93.53A1.61,1.61,0,1,1,134.43,92,1.6,1.6,0,0,1,136.1,93.53Z"/><path class="cls-2" d="M136.25,118.42a3.06,3.06,0,0,1-.56.13,2.18,2.18,0,0,1-.57,0,3.22,3.22,0,0,0,1.06-.33S136.22,118.34,136.25,118.42Z"/><path class="cls-2" d="M136.18,118.24a3.22,3.22,0,0,1-1.06.33h0a1.31,1.31,0,0,1-.34,0l1.39-.36Z"/><path class="cls-2" d="M134.77,118.54a1.31,1.31,0,0,0,.34,0,2.8,2.8,0,0,1-.57,0Z"/><path class="cls-3" d="M134.77,118.54c-2.11-.35-3.49-3.08-4.32-5.36a10.2,10.2,0,0,0,2.46-.18,11,11,0,0,0,4.07-1.65l.38-.1c.73,3.24.77,6-1.18,7l0-.06Z"/><path class="cls-2" d="M140.94,150.23l.16,4.87v0a293,293,0,0,1-2,39.68l-5.67.24c6.71-17.14,6-40.28,4.19-56.6l0-.38c-.06-.56-.13-1.11-.19-1.65v0c-1.25-10.54-2.84-17.76-2.84-17.76h0a2.8,2.8,0,0,0,.57,0h0a2.18,2.18,0,0,0,.57,0,3.06,3.06,0,0,0,.56-.13c.56,1.64,3.81,11.9,4.7,31.8Z"/><path class="cls-3" d="M130.45,113.18l0-.05,6.55-1.78a11,11,0,0,1-4.07,1.65A10.2,10.2,0,0,1,130.45,113.18Z"/><path class="cls-2" d="M126.84,96.49a1.61,1.61,0,1,0-1.54,1.67A1.61,1.61,0,0,0,126.84,96.49ZM115.9,93.9c0-2.27,1-16.57,3.64-15.73a7,7,0,0,1,2.26,1.57,37.56,37.56,0,0,1,5.53,6.93v0a2.71,2.71,0,0,1,.28.61,65.21,65.21,0,0,1-.29-9.08h0c.19-2.91.77-5.6,2.22-6.4,3.65-2,11.35,15.3,11.57,15.81a20.79,20.79,0,0,1,2.08,6c1.41,7.47-1.27,14.53-6.22,17.76l-6.55,1.78,0,.05a4,4,0,0,1-.59,0c-6.32-.55-12.09-6.42-13.61-14.47A21,21,0,0,1,115.9,93.9Zm18.66,1.3a1.61,1.61,0,1,0-1.68-1.54A1.6,1.6,0,0,0,134.56,95.2Z"/><path d="M126.84,96.49A1.61,1.61,0,1,1,125.17,95,1.6,1.6,0,0,1,126.84,96.49Z"/><path class="cls-2" d="M124.56,72a.64.64,0,0,1,.61-.66.62.62,0,0,1,.66.6.63.63,0,0,1-.55.66h-.06A.64.64,0,0,1,124.56,72Z"/><path class="cls-2" d="M125.09,77.6a.6.6,0,0,1-.07.3.62.62,0,0,1-.54.37.64.64,0,1,1,0-1.27A.62.62,0,0,1,125.09,77.6Z"/><path class="cls-2" d="M119.63,74.42a.64.64,0,1,1,1.27,0,.64.64,0,0,1-1.27,0Z"/><path class="cls-4" d="M141,150.22c-.89-19.9-4.14-30.16-4.7-31.8,0-.08-.06-.14-.07-.18l0-.06"/><path class="cls-4" d="M137.59,138.45c1.78,16.32,2.52,39.46-4.19,56.6l5.67-.24a293,293,0,0,0,2-39.68"/><path class="cls-4" d="M137.36,136.42c.06.54.13,1.09.19,1.65"/><path class="cls-4" d="M134.51,118.61s1.59,7.22,2.84,17.76"/><path class="cls-4" d="M135.12,118.57a3.22,3.22,0,0,0,1.06-.33c1.95-1,1.91-3.75,1.18-7l0-.13"/><path class="cls-4" d="M129.86,113.15c.87,2.4,2.36,5.34,4.68,5.45a2.8,2.8,0,0,0,.57,0"/><path class="cls-4" d="M140.26,86.16c.31.47.59,1,.86,1.46a20.79,20.79,0,0,1,2.08,6c1.41,7.47-1.27,14.53-6.22,17.76a11,11,0,0,1-4.07,1.65,10.2,10.2,0,0,1-2.46.18,4,4,0,0,1-.59,0c-6.32-.55-12.09-6.42-13.61-14.47a21,21,0,0,1-.35-4.77"/><path class="cls-4" d="M127.33,86.67a37.56,37.56,0,0,0-5.53-6.93,7,7,0,0,0-2.26-1.57c-2.6-.84-3.67,13.46-3.64,15.73"/><path class="cls-4" d="M127.63,87.34a.16.16,0,0,0,0,0,2.71,2.71,0,0,0-.28-.61"/><path class="cls-4" d="M127.33,78.22a65.21,65.21,0,0,0,.29,9.08"/><path class="cls-4" d="M141.13,87.63h0c-.22-.51-7.92-17.82-11.57-15.81-1.45.8-2,3.49-2.22,6.4"/><path class="cls-4" d="M119.5,90.34s9.35-2.78,10.72,7.62a3.37,3.37,0,0,1-2.72,2.86c-2.6.71,3.43,1.27,3.43,1.27"/><path class="cls-4" d="M132.25,88c-.75-.63,2.05-1.49,3.62-.15"/><path class="cls-4" d="M128.15,106.06s8.4,0,8.29-4.2"/><path class="cls-4" d="M140.94,150.23h0c.9-.47,4.75-12.08,17.18-11.15,0,0,.85,13.07-15.6,16l-1.43.06"/><path class="cls-4" d="M137.35,136.37a25.94,25.94,0,0,0-11.84-5c-6.79-.87,5.31,11.2,12.08,7.07"/><path class="cls-4" d="M127.34,78.26a.16.16,0,0,0,0,0h0c0-.48-.54-4.31-2-5.6"/><path class="cls-4" d="M127.34,86.69v0c-.08-.46-1.37-7.22-2.31-8.77"/><path class="cls-4" d="M121.8,79.74c-.32-.29-.89-4.53-1.51-4.71"/><path class="cls-4" d="M125.83,72a.63.63,0,0,1-.55.66h-.06a.64.64,0,1,1,0-1.27A.62.62,0,0,1,125.83,72Z"/><path class="cls-4" d="M120.9,74.37a.64.64,0,0,1-1.27,0,.64.64,0,1,1,1.27,0Z"/><path class="cls-4" d="M125.09,77.6a.6.6,0,0,1-.07.3.62.62,0,0,1-.54.37.64.64,0,1,1,0-1.27A.62.62,0,0,1,125.09,77.6Z"/><path class="cls-2" d="M305.55,205c-1.28-1-1.4-7.23-1.06-11.44l.06-.82-.75.31a9.91,9.91,0,0,1-3.81.73c-6.86,0-14.79-6.1-17.61-11.57-1.18-2.29-1.38-4.3-.59-5.72C298.4,182,302.57,186.92,302.62,187l.31.38.38-.31c.14-.11,13.91-10.92,27.19-10.92a20.79,20.79,0,0,1,7.19,1.22c-1.4,2.71-8.92,16-22.44,16a23.62,23.62,0,0,1-7.44-1.26,1.12,1.12,0,0,0-.31-.05.84.84,0,0,0-.71.4c-1,1.48.64,8.69,2,12.6Z"/><path d="M330.49,175.62v1a20.59,20.59,0,0,1,6.47,1c-1.89,3.49-9.19,15.23-21.72,15.23a23.22,23.22,0,0,1-7.28-1.23,1.55,1.55,0,0,0-.47-.08,1.36,1.36,0,0,0-1.13.61c-1.17,1.69.52,8.66,1.71,12.39h-2.34c-.79-1-1.15-5.93-.75-10.91l.12-1.62-1.5.62a9.34,9.34,0,0,1-3.62.69c-6.68,0-14.41-6-17.17-11.3-.6-1.17-1.42-3.23-.77-4.87,16.05,5.32,20.14,10.08,20.17,10.13l.63.77.77-.62c.14-.11,13.78-10.81,26.87-10.81v-1m0,0c-13.62,0-27.5,11-27.5,11s-4.09-5.07-21.42-10.71c-4,5.58,8.22,18.38,18.41,18.38a10.46,10.46,0,0,0,4-.76s-.85,10.71,1.41,12h4.09c-1.64-4.38-3.47-13-2-13l.15,0a24.35,24.35,0,0,0,7.6,1.28c15.48,0,23.13-16.78,23.13-16.78a21.07,21.07,0,0,0-7.88-1.45Z"/><path class="cls-2" d="M306.26,180.41a20.1,20.1,0,0,1-20.08-20.07c0-8.89,8.66-13.08,17-17.13,2-1,4.06-2,6-3a5.77,5.77,0,0,1,2.8-.75c5.49,0,11.4,8.63,14.37,21a13.6,13.6,0,0,1-2.87,11.78A22.63,22.63,0,0,1,306.26,180.41Z"/><path d="M312,140h0c5.26,0,11,8.48,13.89,20.62a13.1,13.1,0,0,1-2.79,11.35,22.07,22.07,0,0,1-16.82,8,19.6,19.6,0,0,1-19.58-19.57c0-8.57,8.13-12.51,16.74-16.68,2-1,4.08-2,6-3A5.29,5.29,0,0,1,312,140m0-1a6.3,6.3,0,0,0-3,.81c-10,5.46-23.26,9.21-23.26,20.58a20.58,20.58,0,0,0,20.58,20.57c11.37,0,23.23-9.52,20.58-20.57C323.89,148.06,318,138.94,312,139Z"/><path class="cls-6" d="M306.45,152.17s2.13,9.4,0,11.84-.88,4.13,0,3.57"/><path class="cls-7" d="M300.79,157.38a2,2,0,1,1-3.47,0"/><path class="cls-7" d="M317.07,157a2,2,0,1,1-3.71.94,1.85,1.85,0,0,1,.24-.94"/><path class="cls-6" d="M303,172.79s11.26-1.5,11.93-3.66-1.69,9.2-8,7.89"/><line class="cls-6" x1="295.72" y1="157.38" x2="302.39" y2="157.38"/><line class="cls-6" x1="312" y1="157.02" x2="318.67" y2="157.02"/><line class="cls-6" x1="309.59" y1="134.64" x2="309.02" y2="125.9"/><line class="cls-6" x1="327.21" y1="145.78" x2="335.14" y2="141.13"/><path class="cls-6" d="M308.43,188.14s16.07-7.31,21.05-7.23"/><polyline class="cls-8" points="194 58.87 195.92 70.58 169.31 72.11 168.11 59.11"/><polygon class="cls-5" points="171.97 108 202.23 108.82 228.6 104.51 254.69 94.47 273.16 124.39 265.49 164.06 250.41 177.8 228.84 187.1 201.45 184.07 187.74 177.93 168.16 144.74 171.97 108"/><path class="cls-9" d="M198.14,107s3,18.44,15.24,16.73,21.29-5.14,17.85-21.35S213.5,91.81,213.5,91.81,198.92,91.57,198.14,107Z"/><polygon class="cls-4" points="170.17 102.67 202.32 103.54 230.34 98.96 258.06 88.3 277.68 120.08 269.54 162.23 253.51 176.82 230.59 186.71 201.5 183.49 186.92 176.97 166.12 141.7 170.17 102.67"/><path class="cls-4" d="M232.67,182.69c.8-.75,6.6-8.45,6.6-8.45l22-9.74"/><polyline class="cls-4" points="227.59 183.52 219.64 178.07 192.5 177.29"/><line class="cls-4" x1="229.14" y1="101.01" x2="220.64" y2="174.83"/><line class="cls-4" x1="204.32" y1="105.06" x2="238.28" y2="171.95"/><line class="cls-4" x1="264.07" y1="108.16" x2="239.23" y2="138.34"/><line class="cls-4" x1="174.13" y1="110" x2="169.46" y2="139.62"/><line class="cls-4" x1="189.86" y1="173.63" x2="213.37" y2="164.15"/><line class="cls-4" x1="222.84" y1="162.61" x2="230.31" y2="161.38"/><line class="cls-4" x1="223.23" y1="177.48" x2="236.48" y2="175.31"/><line class="cls-4" x1="237.49" y1="160.21" x2="264.34" y2="158.63"/><line class="cls-4" x1="173.55" y1="130.87" x2="192.72" y2="142.36"/><line class="cls-4" x1="202.32" y1="103.54" x2="209.7" y2="90.37"/><line class="cls-4" x1="230.33" y1="98.96" x2="219.66" y2="88.74"/><line class="cls-4" x1="258.06" y1="88.3" x2="228.2" y2="85.91"/><line class="cls-4" x1="170.17" y1="102.67" x2="196.91" y2="91.03"/><path class="cls-4" d="M226.64,76.35l1.56,9.56s-9.31,5-31.29,5.12l-1.56-9.56"/><polyline class="cls-4" points="172.76 73.19 188.35 80.61 212.68 80.47 234 73.81 247.83 62.65 245.58 48.9 226.64 42.58 207.61 43.55 187.43 47.46 170.35 58.44 172.84 73.69"/><polyline class="cls-4" points="170.35 58.44 196.39 56.53 207.61 43.55 221.91 53.69 245.58 48.9"/><line class="cls-4" x1="221.91" y1="53.69" x2="196.39" y2="56.54"/><polyline class="cls-4" points="196.6 57.83 198.16 72.41 211.83 80.61 224.19 67.64 223.12 54.82"/><line class="cls-4" x1="225.19" y1="67.48" x2="245.84" y2="62.41"/><line class="cls-4" x1="196.19" y1="72.22" x2="174.29" y2="72.84"/><path class="cls-4" d="M221.34,56.45a55.84,55.84,0,0,1-23.2,2.66"/><path class="cls-4" d="M222.2,68s-11,4.35-22,3.6"/><path class="cls-4" d="M185.28,78.1c.28-.15,12.39-2.95,12.39-2.95"/><line class="cls-4" x1="235.7" y1="70.42" x2="224.2" y2="70.81"/><polyline class="cls-10" points="231.68 101.08 256.64 90.4 264.79 103.65 237.52 136.8"/><path class="cls-5" d="M198.43,60.93s14.42.57,23.52-3.85l1.11,9.9s-16.25,5.09-23,3.77"/><polyline class="cls-3" points="196.93 179.33 201.43 181.81 226.52 185.13 218.47 179.03"/><path class="cls-11" d="M98.22,242.74c4.52,0,6.53,3.93,6.53,9s-2,9-6.53,9-6.56-4-6.56-9S93.7,242.74,98.22,242.74Zm0,2.21c-2.6,0-3.94,2.86-3.94,6.8s1.34,6.76,3.94,6.76,4-2.83,4-6.76S100.84,245,98.22,245Zm11,21.35V240.81h2.6V266.3Z"/><path class="cls-11" d="M123.38,247v-2.07h15V247Zm7.58,9.39c-3.47,0-6-1.63-6-4.2s2.54-4.19,6-4.19,6,1.63,6,4.19S134.4,256.35,131,256.35Zm4.14,10c-5.51,0-8.52-1.67-8.52-4.46s3-4.5,8.52-4.5,8.51,1.7,8.51,4.5S140.58,266.33,135.1,266.33Zm-8-23v-2.13h7.4v2.13Zm3.82,6.59c-1.84,0-3.44.87-3.44,2.24s1.63,2.25,3.44,2.25,3.38-.9,3.38-2.25S132.79,249.91,131,249.91Zm-1.75,12c0,1.48,2.18,2.42,5.89,2.42s5.89-.91,5.89-2.42-2.22-2.45-5.89-2.45S129.21,260.38,129.21,261.87Zm17.9-8.72h-3.79v3.7h-2.6v-16h2.6v5.05h3.79V248h-3.79v3h3.79Z"/><path class="cls-11" d="M159,266.33v-9.16H148.85V255.1h23v2.07H161.6v9.16Zm10.76-13.77c-3.76-.7-8.08-3.23-9.42-6.06-1.13,2.83-5.51,5.36-9.39,6.09l-1.16-2.1c4.6-.61,9.21-3.73,9.21-7.29v-1.6h2.71v1.6c0,3.56,5.14,6.85,9.28,7.26Z"/><path class="cls-11" d="M188.62,248.66c0,3.26-2.42,5.42-5.63,5.92v4.17c2.72-.18,5-.33,6.71-.59l.26,2.07c-2.13.29-5.74.56-8.77.7-2.74.18-5.16.26-7.23.26l-.38-2.21c2,0,4.37,0,6.85-.09V254.6c-3.3-.4-5.77-2.62-5.77-5.92,0-3.67,3.09-6.21,6.93-6.21S188.62,245,188.62,248.66Zm-11.31,0c0,2.36,1.95,3.84,4.28,3.84s4.29-1.45,4.29-3.84-1.81-4-4.29-4A4,4,0,0,0,177.31,248.66Zm16.56,4.84v12.8h-2.54V240.81h2.54v10.53h3.94v2.16Z"/><path class="cls-11" d="M213.63,242.62c4.14,0,6.16,3.35,6.48,7.84h5.16v-9.65h2.59V266.3h-2.59V252.65h-5.16c-.3,4.55-2.28,8-6.48,8-4.52,0-6.56-4-6.56-9S209.11,242.62,213.63,242.62Zm0,2.22c-2.59,0-3.9,2.85-3.9,6.82s1.31,6.76,3.9,6.76,3.94-2.85,3.94-6.76S216.2,244.84,213.63,244.84Z"/><path class="cls-11" d="M234.85,266.12v-6h15v-1.87h-15v-2.1h7.52v-2.39H232.17v-2.1h23v2.1H244.92v2.39h7.46V262h-15V264h15.92v2.13Zm8.84-15.8c-5.63,0-9.07-1.61-9.07-4.49s3.44-4.49,9.07-4.49,9.1,1.63,9.1,4.49S249.41,250.32,243.69,250.32Zm-6.36-4.49c0,1.51,2.48,2.48,6.36,2.48s6.42-1,6.42-2.48-2.48-2.45-6.42-2.45S237.33,244.34,237.33,245.83Z"/><path class="cls-11" d="M273.86,259.44a84.41,84.41,0,0,1-12,.85H258.7v-10h9.54v-5h-9.66v-2.09H270.8v9.21h-9.53v5.77H262a73.59,73.59,0,0,0,11.57-.78Zm4.55-18.63V266.3h-2.59V240.81Z"/><path class="cls-11" d="M282.61,255.89v-2.1h23v2.1Zm3.06,9.85v-7.55h2.56v5.42h15v2.13Zm.09-15v-8.92h2.56v6.82h14.76v2.1Z"/><path class="cls-11" d="M315.49,262.77V260.7h8.75v-6.5h2.59v6.5H338.5v2.07Zm20.24-16a53.68,53.68,0,0,1-1.05,10.94l-2.48-.3a41.81,41.81,0,0,0,.81-5.68l-15.1.79-.38-2.13,15.6-.67c0-.59,0-1.2,0-1.81v-2.39h-15v-2.07h17.53Z"/><path class="cls-11" d="M356.22,256.94l.35,2.13a65.12,65.12,0,0,1-11.72.87H342V243.29h12.19v2.1h-9.65v12.33A68.24,68.24,0,0,0,356.22,256.94Zm2.8,9.36V240.81h2.59V266.3Z"/></svg>