<svg id="레이어_1" data-name="레이어 1" xmlns="http://www.w3.org/2000/svg" viewBox="0 0 300 300"><defs><style>.cls-1{fill:#ddd;}.cls-2,.cls-6{fill:#fff;}.cls-3{fill:#efefef;}.cls-4{fill:none;}.cls-4,.cls-6{stroke:#000;}.cls-4,.cls-6,.cls-7{stroke-miterlimit:10;}.cls-5{fill:#f7f7f7;}.cls-7{stroke:#fff;}.cls-8{fill:#e5e5e3;}.cls-9{fill:#fffde3;opacity:0.27;}.cls-10{fill:#fcfcfc;}.cls-11{fill:#111;}</style></defs><path class="cls-1" d="M220.87,59.88a6,6,0,0,1-6.23-5.72c0-3,2.62-5.2,6.23-5.2s6.23,2.19,6.23,5.2A6,6,0,0,1,220.87,59.88Z"/><path d="M220.87,49.46c3.32,0,5.73,2,5.73,4.7a5.76,5.76,0,0,1-11.46,0c0-2.72,2.41-4.7,5.73-4.7m0-1c-3.72,0-6.73,2.27-6.73,5.7a6.75,6.75,0,0,0,13.46,0c0-3.43-3-5.7-6.73-5.7Z"/><path class="cls-1" d="M210.1,59.88c-2.93,0-5.68-2.22-5.75-4.66A4.27,4.27,0,0,1,205.53,52a5.3,5.3,0,0,1,4.5-1.38c2.38.37,5.16,1.8,5.16,4.61A4.87,4.87,0,0,1,210.1,59.88Z"/><path d="M209.16,51.09h0a5.16,5.16,0,0,1,.79.06c2.19.34,4.74,1.62,4.74,4.12a4.37,4.37,0,0,1-4.59,4.1c-2.68,0-5.18-2-5.25-4.17a3.81,3.81,0,0,1,1-2.81,4.58,4.58,0,0,1,3.27-1.3m0-1a5,5,0,0,0-5.31,5.14c.09,2.82,3.17,5.14,6.25,5.14a5.36,5.36,0,0,0,5.59-5.1c0-2.82-2.54-4.63-5.59-5.11a7.43,7.43,0,0,0-.94-.07Z"/><path class="cls-1" d="M201.37,69.26c-3.28-.06-5.56-3.17-5.63-6a6.42,6.42,0,0,1,1.56-4.69,4.63,4.63,0,0,1,3.41-1.35c.2,0,.4,0,.61,0a6.06,6.06,0,0,1,5.67,6,5.8,5.8,0,0,1-5.53,6Z"/><path d="M200.71,57.68h0a5.33,5.33,0,0,1,.56,0,5.57,5.57,0,0,1,5.22,5.53,5.31,5.31,0,0,1-5,5.53h-.08c-3-.05-5.07-2.91-5.14-5.55a5.89,5.89,0,0,1,1.42-4.33,4.09,4.09,0,0,1,3.05-1.2m0-1c-3.51,0-5.57,2.79-5.47,6.55.08,3.23,2.67,6.47,6.12,6.53h.1a6.31,6.31,0,0,0,6-6.53,6.55,6.55,0,0,0-6.13-6.52l-.65,0Z"/><path class="cls-1" d="M199.41,81.2A5.62,5.62,0,1,1,205,75.58,5.62,5.62,0,0,1,199.41,81.2Z"/><path d="M199.41,70.46a5.12,5.12,0,1,1-5.12,5.12,5.12,5.12,0,0,1,5.12-5.12m0-1a6.12,6.12,0,1,0,6.12,6.12,6.12,6.12,0,0,0-6.12-6.12Z"/><path class="cls-2" d="M208.37,90.62c-3.23,0-6.51-3.05-6.51-6.05,0-3.21,3.2-5.2,6.15-5.2A5.64,5.64,0,0,1,213.64,85,5.34,5.34,0,0,1,208.37,90.62Z"/><path d="M208,79.87A5.13,5.13,0,0,1,213.14,85a4.84,4.84,0,0,1-4.77,5.12c-2.92,0-6-2.85-6-5.55,0-2.9,2.94-4.7,5.65-4.7m0-1c-3.38,0-6.65,2.32-6.65,5.7s3.62,6.55,7,6.55A5.83,5.83,0,0,0,214.14,85,6.13,6.13,0,0,0,208,78.87Z"/><path class="cls-2" d="M220.42,93.54a6.32,6.32,0,0,1-6.12-5.89,6.18,6.18,0,0,1,6.11-6.38,6.32,6.32,0,0,1,6.1,6.41,5.73,5.73,0,0,1-1.73,4.07,5.84,5.84,0,0,1-4.18,1.79Z"/><path d="M220.41,81.77a5.82,5.82,0,0,1,5.6,5.91,5.31,5.31,0,0,1-1.58,3.72A5.38,5.38,0,0,1,220.6,93h-.16a5.81,5.81,0,0,1-5.64-5.4,5.69,5.69,0,0,1,5.61-5.87m0-1a6.68,6.68,0,0,0-6.61,6.9A6.81,6.81,0,0,0,220.41,94h.19A6.51,6.51,0,0,0,227,87.67a6.78,6.78,0,0,0-6.6-6.9Z"/><path class="cls-2" d="M231.08,88.88a6.09,6.09,0,0,1,0-12.16,6.08,6.08,0,1,1,0,12.16Z"/><path d="M231.08,77.22a5.58,5.58,0,1,1,0,11.16,5.59,5.59,0,0,1,0-11.16m0-1a6.59,6.59,0,0,0,0,13.16,6.58,6.58,0,1,0,0-13.16Z"/><path class="cls-2" d="M235.7,77.86a6.09,6.09,0,1,1,6.4-6.07,5.67,5.67,0,0,1-1.61,4.13,6.68,6.68,0,0,1-4.78,1.94Z"/><path d="M235.7,66.2a5.81,5.81,0,0,1,5.9,5.61,5.08,5.08,0,0,1-1.47,3.76,6.16,6.16,0,0,1-4.43,1.79,5.59,5.59,0,1,1,0-11.16m0-1a6.59,6.59,0,1,0,0,13.16h0c3.81,0,7-2.79,6.89-6.58a6.81,6.81,0,0,0-6.9-6.58Z"/><path class="cls-2" d="M231.08,66.82a6.09,6.09,0,1,1,0-12.16c3.61,0,6.9,3,6.9,6.38S234.41,66.82,231.08,66.82Z"/><path d="M231.08,55.16c3.29,0,6.4,2.86,6.4,5.88s-3.31,5.28-6.4,5.28a5.59,5.59,0,1,1,0-11.16m0-1a6.59,6.59,0,1,0,0,13.16c3.81,0,7.4-2.65,7.4-6.28s-3.59-6.88-7.4-6.88Z"/><path class="cls-2" d="M217.76,87.9c-9.84,0-17.85-7.71-17.85-17.18s8-17.17,17.85-17.17,17.85,7.7,17.85,17.17S227.6,87.9,217.76,87.9Z"/><path d="M217.76,54.05c9.57,0,17.35,7.48,17.35,16.67S227.33,87.4,217.76,87.4s-17.35-7.48-17.35-16.68,7.79-16.67,17.35-16.67m0-1c-10.13,0-18.35,7.91-18.35,17.67s8.22,17.68,18.35,17.68,18.35-7.91,18.35-17.68-8.21-17.67-18.35-17.67Z"/><ellipse class="cls-3" cx="216.9" cy="68.41" rx="16.03" ry="14.39"/><path class="cls-4" d="M211,67s5.41-1,6.37,3.76"/><path class="cls-4" d="M216.58,80.25s4.85-1.63,4.24,3.18"/><path class="cls-4" d="M227.6,66.13s4.31.17,4.53,3.78"/><path class="cls-4" d="M211.1,57.27s4.74-1.41,4.59,2.81"/><path class="cls-4" d="M202.52,75.83a3,3,0,0,1,3.56,2.69"/><path class="cls-5" d="M280.85,206.9,275.33,216a91.7,91.7,0,0,0-21.78,2.11c-49.85,10.68-66-1.09-66-1.09s-26.67-12.87-51.12-4.1-24.13,6.84-67.95.81c-16.28-2.23-27.92.44-36.11,4.7L7.17,180.34l26,8.49,6.67-17.52,13.34,17,4.13-10.13S73.53,188.33,74.48,190s13.33-3.86,13.33-3.86L91,191.57l4.76-11.5,7,17.8,12.38-11.5,11.11,10.15,3.49-9.33.76-.88,18.29,11.83,15.88-24.64,10.16,18.34,18.1-6,5.07,6.29,14-18.61,5.08,9.3,22.86-14.23,10.16,24.91,17.47-6,1.26,17.25Z"/><path class="cls-4" d="M33.24,215,8.08,170.85l26,9.84,6.67-20.32,13.33,19.69,4.13-11.75S74.44,180.11,75.39,182s13.34-4.47,13.34-4.47l3.17,6.35,4.76-13.34,7,20.64L116,177.83l11.11,11.78,3.5-10.82"/><polyline class="cls-4" points="130.64 177.2 149.69 191.49 165.56 162.91 175.72 184.18 193.82 177.2 198.9 184.5 212.87 162.91 217.95 173.71 240.81 157.2 250.97 186.09 268.43 179.1 269.7 199.11 281.76 201.65 276.24 212.21"/><path class="cls-4" d="M15.39,236.89s10.16-34.29,54-27.31,43.5,9.24,67.94-.93,51.12,4.74,51.12,4.74,16.19,13.66,66,1.27c17-4.22,30.88-2.61,41.77,1.36"/><path class="cls-2" d="M82.79,153.86s.85,13.07-15.6,16l-1.43.06v0c0-1.69-.09-3.31-.15-4.88C66.51,164.54,70.36,152.93,82.79,153.86Z"/><path class="cls-2" d="M52.28,102.09A65.21,65.21,0,0,1,52,93h0c.19-2.91.78-5.6,2.22-6.4,3.65-2,11.35,15.3,11.57,15.81h0a20.81,20.81,0,0,1,2.07,6c1.41,7.47-1.27,14.53-6.22,17.76l-6.55,1.78,0,0a5.85,5.85,0,0,1-.59,0c-6.33-.55-12.09-6.43-13.61-14.47a21.65,21.65,0,0,1-.35-4.77c0-2.27,1-16.57,3.64-15.73a7,7,0,0,1,2.26,1.57A37.14,37.14,0,0,1,52,101.46a0,0,0,0,1,0,0A2.71,2.71,0,0,1,52.28,102.09Zm6.94,7.9a1.61,1.61,0,0,0-.13-3.22,1.61,1.61,0,1,0,.13,3.22ZM50,113a1.61,1.61,0,0,0-.13-3.22A1.61,1.61,0,1,0,50,113Z"/><path class="cls-2" d="M65.76,169.89,65.6,165h0C65.67,166.58,65.73,168.2,65.76,169.89Z"/><path class="cls-2" d="M65.6,165l.16,4.87v0a293,293,0,0,1-2,39.68l-5.67.23c6.71-17.14,6-40.28,4.19-56.59l0-.38c-.06-.56-.13-1.11-.19-1.65v-.05c-1.24-10.55-2.84-17.76-2.84-17.76h0a2.8,2.8,0,0,0,.57,0h0a2.18,2.18,0,0,0,.57,0,3.06,3.06,0,0,0,.56-.13c.57,1.67,3.82,11.94,4.7,31.8Z"/><path class="cls-3" d="M62.55,125.89c.82,3.55.83,6.56-1.64,7.32,0-.08,0-.14-.07-.18,1.95-1,1.91-3.75,1.18-7Z"/><path class="cls-2" d="M62.21,152.86l0,.38c-6.77,4.12-18.87-7.94-12.08-7.07a25.94,25.94,0,0,1,11.84,5v.05Z"/><path class="cls-3" d="M62,126c.73,3.24.77,6-1.18,7a.31.31,0,0,0,0-.07l-1.39.37c-2.12-.36-3.49-3.09-4.32-5.36a11.33,11.33,0,0,0,2.46-.18,11,11,0,0,0,4.07-1.65Z"/><path class="cls-3" d="M55.09,127.92l6.55-1.78a11,11,0,0,1-4.07,1.65,11.33,11.33,0,0,1-2.46.18Z"/><path class="cls-2" d="M60.84,133s0,.1.07.18a3.06,3.06,0,0,1-.56.13,2.18,2.18,0,0,1-.57,0A3.22,3.22,0,0,0,60.84,133Z"/><path class="cls-2" d="M60.82,133a.31.31,0,0,1,0,.07,3.22,3.22,0,0,1-1.06.33h0a1.87,1.87,0,0,1-.34,0Z"/><path d="M60.76,108.32a1.61,1.61,0,0,1-3.22.13,1.61,1.61,0,1,1,3.22-.13Z"/><path class="cls-2" d="M59.77,133.36a2.8,2.8,0,0,1-.57,0l.23-.06A1.87,1.87,0,0,0,59.77,133.36Z"/><path d="M51.5,111.28a1.61,1.61,0,0,1-3.22.13,1.61,1.61,0,1,1,3.22-.13Z"/><path class="cls-2" d="M49.93,87.39h0a.63.63,0,0,1-.66-.6.65.65,0,0,1,.61-.67.64.64,0,0,1,.66.61A.62.62,0,0,1,49.93,87.39Z"/><path class="cls-2" d="M49.69,92.69a.65.65,0,0,1-.55.37.64.64,0,0,1-.66-.61.65.65,0,0,1,.61-.67.64.64,0,0,1,.66.61A.6.6,0,0,1,49.69,92.69Z"/><path class="cls-2" d="M45.56,89.16a.63.63,0,0,1-.61.66.64.64,0,1,1,.61-.66Z"/><path class="cls-4" d="M65.61,165c-.88-19.86-4.13-30.13-4.7-31.8,0-.08,0-.14-.07-.18a.31.31,0,0,0,0-.07"/><path class="cls-4" d="M62.25,153.24c1.78,16.31,2.52,39.45-4.19,56.59l5.67-.23a293,293,0,0,0,2-39.68"/><path class="cls-4" d="M62,151.21c.06.54.13,1.09.19,1.65"/><path class="cls-4" d="M59.17,133.4s1.6,7.21,2.84,17.76"/><path class="cls-4" d="M54.52,127.94c.87,2.4,2.36,5.35,4.68,5.45a2.8,2.8,0,0,0,.57,0h0a3.22,3.22,0,0,0,1.06-.33c1.95-1,1.91-3.75,1.18-7l0-.13"/><path class="cls-4" d="M65.79,102.42a20.81,20.81,0,0,1,2.07,6c1.41,7.47-1.27,14.53-6.22,17.76a11,11,0,0,1-4.07,1.65,11.33,11.33,0,0,1-2.46.18,5.85,5.85,0,0,1-.59,0c-6.33-.55-12.09-6.43-13.61-14.47a21.65,21.65,0,0,1-.35-4.77"/><path class="cls-4" d="M64.92,100.94a15.27,15.27,0,0,1,.86,1.47"/><path class="cls-4" d="M52,101.46a37.14,37.14,0,0,0-5.53-6.93A7,7,0,0,0,44.2,93c-2.6-.84-3.67,13.46-3.64,15.73"/><path class="cls-4" d="M52.29,102.13v0a2.71,2.71,0,0,0-.28-.61"/><path class="cls-4" d="M52,93a65.21,65.21,0,0,0,.29,9.08"/><path class="cls-4" d="M65.79,102.42h0c-.22-.51-7.92-17.82-11.57-15.81-1.44.8-2,3.49-2.22,6.4"/><path class="cls-4" d="M44.16,105.12s9.35-2.77,10.72,7.63a3.37,3.37,0,0,1-2.72,2.86c-2.6.71,3.43,1.27,3.43,1.27"/><path class="cls-4" d="M56.91,102.79c-.75-.64,2.05-1.5,3.62-.15"/><path class="cls-4" d="M52.81,120.85s8.4,0,8.29-4.2"/><path class="cls-4" d="M65.6,165h0c.9-.47,4.75-12.08,17.18-11.15,0,0,.85,13.07-15.6,16l-1.43.06"/><path class="cls-4" d="M62,151.16a25.94,25.94,0,0,0-11.84-5c-6.79-.87,5.31,11.19,12.08,7.07"/><path class="cls-4" d="M52,93.05v0h0c-.05-.49-.55-4.34-2.06-5.61"/><path class="cls-4" d="M52,101.48a0,0,0,0,0,0,0c-.08-.46-1.37-7.22-2.3-8.77"/><path class="cls-4" d="M46.46,94.53c-.32-.29-.89-4.53-1.51-4.71"/><path class="cls-4" d="M50.49,86.74a.62.62,0,0,1-.56.65h0a.63.63,0,0,1-.66-.6.65.65,0,0,1,.61-.67A.64.64,0,0,1,50.49,86.74Z"/><path class="cls-4" d="M45.56,89.16a.63.63,0,0,1-.61.66.64.64,0,1,1,.61-.66Z"/><path class="cls-4" d="M49.75,92.39a.6.6,0,0,1-.06.3.65.65,0,0,1-.55.37.64.64,0,0,1-.66-.61.65.65,0,0,1,.61-.67A.64.64,0,0,1,49.75,92.39Z"/><path class="cls-2" d="M230.21,219.82c-1.27-1-1.39-7.22-1.06-11.44l.07-.81-.76.31a9.89,9.89,0,0,1-3.8.72c-6.87,0-14.79-6.09-17.62-11.56-1.18-2.29-1.38-4.3-.58-5.72,16.6,5.46,20.78,10.38,20.82,10.43l.31.39.39-.31c.14-.11,13.9-10.92,27.18-10.92a20.75,20.75,0,0,1,7.19,1.22c-1.39,2.71-8.92,16-22.44,16a23.67,23.67,0,0,1-7.44-1.26,1,1,0,0,0-.3,0,.86.86,0,0,0-.72.39c-1,1.48.64,8.7,2,12.6Z"/><path d="M255.16,190.41v1a20.6,20.6,0,0,1,6.48,1c-1.9,3.49-9.2,15.23-21.73,15.23a23.51,23.51,0,0,1-7.28-1.23,1.48,1.48,0,0,0-.46-.08,1.36,1.36,0,0,0-1.13.61c-1.17,1.69.51,8.66,1.71,12.38h-2.34c-.79-1-1.15-5.92-.76-10.9l.13-1.62-1.51.62a9.47,9.47,0,0,1-3.61.68c-6.69,0-14.42-5.95-17.17-11.29-.6-1.17-1.42-3.23-.77-4.87,16,5.32,20.13,10.08,20.17,10.13l.62.77.78-.62c.14-.11,13.77-10.81,26.87-10.81v-1m0,0c-13.61,0-27.49,11-27.49,11s-4.09-5.08-21.43-10.71c-4,5.58,8.23,18.37,18.42,18.37a10.23,10.23,0,0,0,4-.76s-.84,10.72,1.41,12h4.09c-1.64-4.37-3.46-13-2-13l.15,0a24.25,24.25,0,0,0,7.59,1.28c15.49,0,23.13-16.79,23.13-16.79a21.22,21.22,0,0,0-7.88-1.44Z"/><path class="cls-2" d="M230.93,195.2a20.09,20.09,0,0,1-20.08-20.08c0-8.88,8.65-13.07,17-17.12,2-1,4.06-2,6-3a5.82,5.82,0,0,1,2.81-.76c5.48,0,11.39,8.64,14.37,21A13.6,13.6,0,0,1,248.14,187,22.61,22.61,0,0,1,230.93,195.2Z"/><path d="M236.65,154.73h0c5.25,0,11,8.49,13.88,20.63a13.13,13.13,0,0,1-2.78,11.35,22.09,22.09,0,0,1-16.82,8,19.6,19.6,0,0,1-19.58-19.58c0-8.57,8.13-12.5,16.74-16.67,2-1,4.07-2,6-3a5.42,5.42,0,0,1,2.57-.69m0-1a6.32,6.32,0,0,0-3.05.82c-10,5.45-23.25,9.21-23.25,20.57a20.57,20.57,0,0,0,20.58,20.58c11.36,0,23.23-9.53,20.57-20.58-2.95-12.27-8.85-21.39-14.85-21.39Z"/><path class="cls-6" d="M231.11,167s2.14,9.4,0,11.84-.87,4.13,0,3.57"/><path class="cls-7" d="M225.46,172.17a2,2,0,1,1-3.48,0"/><path class="cls-7" d="M241.73,171.8a2,2,0,1,1-3.47,0"/><path class="cls-6" d="M227.67,187.58s11.26-1.5,11.92-3.67-1.68,9.21-8,7.9"/><line class="cls-6" x1="220.38" y1="172.17" x2="227.06" y2="172.17"/><line class="cls-6" x1="236.66" y1="171.8" x2="243.33" y2="171.8"/><line class="cls-6" x1="234.26" y1="149.43" x2="233.68" y2="140.69"/><line class="cls-6" x1="251.88" y1="160.57" x2="259.8" y2="155.91"/><path class="cls-6" d="M233.1,202.93s16.07-7.31,21.05-7.23"/><polyline class="cls-8" points="118.67 73.66 120.58 85.37 93.98 86.9 92.77 73.9"/><polygon class="cls-5" points="96.63 122.79 126.89 123.61 153.26 119.3 179.35 109.26 197.82 139.18 190.16 178.85 175.07 192.58 153.5 201.89 126.12 198.86 112.4 192.72 92.82 159.53 96.63 122.79"/><path class="cls-9" d="M122.8,121.83s3,18.44,15.24,16.73,21.29-5.14,17.85-21.35-17.72-10.62-17.72-10.62S123.58,106.36,122.8,121.83Z"/><polygon class="cls-4" points="94.83 117.46 126.98 118.33 155 113.75 182.72 103.08 202.35 134.87 194.2 177.02 178.17 191.61 155.25 201.5 126.16 198.28 111.59 191.76 90.78 156.49 94.83 117.46"/><path class="cls-4" d="M157.34,197.48c.8-.75,6.6-8.45,6.6-8.45l22-9.74"/><polyline class="cls-4" points="152.25 198.31 144.3 192.86 117.17 192.08"/><line class="cls-4" x1="153.8" y1="115.79" x2="145.31" y2="189.62"/><line class="cls-4" x1="128.99" y1="119.85" x2="162.95" y2="186.74"/><line class="cls-4" x1="188.73" y1="122.95" x2="163.9" y2="153.13"/><line class="cls-4" x1="98.79" y1="124.79" x2="94.12" y2="154.41"/><line class="cls-4" x1="114.52" y1="188.42" x2="138.04" y2="178.94"/><line class="cls-4" x1="147.5" y1="177.39" x2="154.98" y2="176.17"/><line class="cls-4" x1="147.89" y1="192.27" x2="161.14" y2="190.1"/><line class="cls-4" x1="162.15" y1="175" x2="189.01" y2="173.42"/><line class="cls-4" x1="98.22" y1="145.66" x2="117.39" y2="157.15"/><line class="cls-4" x1="126.98" y1="118.33" x2="134.36" y2="105.16"/><line class="cls-4" x1="155" y1="113.74" x2="144.33" y2="103.53"/><line class="cls-4" x1="182.72" y1="103.08" x2="152.87" y2="100.7"/><line class="cls-4" x1="94.83" y1="117.46" x2="121.58" y2="105.82"/><path class="cls-4" d="M151.3,91.14l1.57,9.56s-9.31,5-31.29,5.12L120,96.25"/><polyline class="cls-4" points="97.43 87.98 113.02 95.4 137.34 95.26 158.66 88.6 172.49 77.44 170.24 63.69 151.31 57.37 132.28 58.34 112.1 62.25 95.02 73.23 97.51 88.47"/><polyline class="cls-4" points="95.02 73.23 121.05 71.32 132.28 58.34 146.57 68.48 170.24 63.69"/><line class="cls-4" x1="146.57" y1="68.48" x2="121.05" y2="71.32"/><polyline class="cls-4" points="121.26 72.62 122.83 87.2 136.5 95.4 148.85 82.43 147.78 69.61"/><line class="cls-4" x1="149.85" y1="82.27" x2="170.51" y2="77.2"/><line class="cls-4" x1="120.85" y1="87.01" x2="98.96" y2="87.62"/><path class="cls-4" d="M146,71.23a55.74,55.74,0,0,1-23.2,2.67"/><path class="cls-4" d="M146.86,82.76s-11,4.35-22,3.6"/><path class="cls-4" d="M110,92.89c.28-.15,12.39-3,12.39-3"/><line class="cls-4" x1="160.36" y1="85.21" x2="148.86" y2="85.6"/><polyline class="cls-10" points="156.34 115.87 181.3 105.19 189.45 118.43 162.19 151.59"/><path class="cls-5" d="M123.1,75.71s14.42.58,23.52-3.84l1.1,9.9s-16.25,5.09-23,3.77"/><polyline class="cls-3" points="121.59 194.12 126.09 196.6 151.19 199.91 143.13 193.81"/><path class="cls-11" d="M22.88,257.53c4.52,0,6.53,3.93,6.53,9s-2,9-6.53,9-6.56-4-6.56-9S18.36,257.53,22.88,257.53Zm0,2.21c-2.59,0-3.93,2.86-3.93,6.79s1.34,6.77,3.93,6.77,4-2.83,4-6.77S25.51,259.74,22.88,259.74Zm11,21.35V255.6h2.59v25.49Z"/><path class="cls-11" d="M48,261.75v-2.07H63.09v2.07Zm7.58,9.39c-3.47,0-6-1.63-6-4.2s2.53-4.2,6-4.2,6,1.64,6,4.2S59.06,271.14,55.62,271.14Zm4.14,10c-5.51,0-8.51-1.66-8.51-4.46s3-4.49,8.51-4.49,8.52,1.69,8.52,4.49S65.24,281.11,59.76,281.11Zm-8-23V256h7.41v2.13Zm3.82,6.59c-1.84,0-3.44.87-3.44,2.24s1.63,2.25,3.44,2.25,3.38-.91,3.38-2.25S57.46,264.7,55.62,264.7Zm-1.75,11.95c0,1.49,2.19,2.42,5.89,2.42s5.89-.9,5.89-2.42-2.21-2.45-5.89-2.45S53.87,275.17,53.87,276.65Zm17.91-8.71H68v3.7H65.39v-16H68v5h3.8v2.12H68v3h3.8Z"/><path class="cls-11" d="M83.67,281.11V272H73.52v-2.07h23V272H86.26v9.15Zm10.76-13.76c-3.77-.7-8.08-3.24-9.42-6.06-1.14,2.82-5.51,5.36-9.39,6.09l-1.17-2.1c4.61-.61,9.22-3.73,9.22-7.29v-1.6h2.71V258c0,3.56,5.13,6.85,9.27,7.26Z"/><path class="cls-11" d="M113.29,263.44c0,3.27-2.42,5.43-5.63,5.92v4.17c2.71-.17,5-.32,6.71-.58l.26,2.07c-2.13.29-5.75.55-8.78.7-2.74.18-5.16.26-7.23.26l-.38-2.21c2,0,4.37,0,6.85-.09v-4.29c-3.29-.4-5.77-2.62-5.77-5.92,0-3.67,3.09-6.21,6.94-6.21S113.29,259.77,113.29,263.44Zm-11.32,0c0,2.37,2,3.85,4.29,3.85s4.29-1.45,4.29-3.85-1.81-4-4.29-4A4,4,0,0,0,102,263.44Zm16.57,4.84v12.81H116V255.6h2.54v10.53h3.93v2.15Z"/><path class="cls-11" d="M138.3,257.41c4.14,0,6.15,3.35,6.47,7.84h5.16V255.6h2.6v25.49h-2.6V267.44h-5.16c-.29,4.55-2.27,8-6.47,8-4.52,0-6.56-4-6.56-9S133.78,257.41,138.3,257.41Zm0,2.21c-2.6,0-3.91,2.86-3.91,6.83s1.31,6.76,3.91,6.76,3.93-2.85,3.93-6.76S140.86,259.62,138.3,259.62Z"/><path class="cls-11" d="M159.52,280.91v-6h15V273h-15v-2.1H167v-2.39H156.84v-2.1h23v2.1H169.58v2.39H177v5.89H162.09v1.95H178v2.13Zm8.84-15.8c-5.63,0-9.07-1.61-9.07-4.49s3.44-4.49,9.07-4.49,9.09,1.63,9.09,4.49S174.07,265.11,168.36,265.11ZM162,260.62c0,1.51,2.48,2.47,6.36,2.47s6.41-1,6.41-2.47-2.48-2.45-6.41-2.45S162,259.13,162,260.62Z"/><path class="cls-11" d="M198.53,274.23a84.45,84.45,0,0,1-12,.85h-3.17v-10h9.53V260h-9.65v-2.1h12.22v9.22h-9.54v5.77h.76a72.42,72.42,0,0,0,11.58-.79Zm4.55-18.63v25.49h-2.6V255.6Z"/><path class="cls-11" d="M207.27,270.68v-2.1h23v2.1Zm3.06,9.85V273h2.57v5.42h15v2.13Zm.09-15v-8.92H213v6.82h14.75v2.1Z"/><path class="cls-11" d="M240.15,277.56v-2.07h8.75V269h2.6v6.5h11.66v2.07Zm20.24-16a53.5,53.5,0,0,1-1.05,10.93l-2.48-.29a43.21,43.21,0,0,0,.82-5.68l-15.11.78-.37-2.12,15.6-.68c0-.58,0-1.19,0-1.8v-2.39H242.87V258.2h17.52Z"/><path class="cls-11" d="M280.88,271.73l.35,2.12a64,64,0,0,1-11.72.88h-2.86V258.08h12.19v2.1h-9.65v12.33A68.17,68.17,0,0,0,280.88,271.73Zm2.8,9.36V255.6h2.6v25.49Z"/></svg>